%TF.GenerationSoftware,KiCad,Pcbnew,(6.0.7)*%
%TF.CreationDate,2023-03-03T12:59:51+05:30*%
%TF.ProjectId,ESP32-dev-board,45535033-322d-4646-9576-2d626f617264,rev?*%
%TF.SameCoordinates,Original*%
%TF.FileFunction,Legend,Bot*%
%TF.FilePolarity,Positive*%
%FSLAX46Y46*%
G04 Gerber Fmt 4.6, Leading zero omitted, Abs format (unit mm)*
G04 Created by KiCad (PCBNEW (6.0.7)) date 2023-03-03 12:59:51*
%MOMM*%
%LPD*%
G01*
G04 APERTURE LIST*
%ADD10C,0.150000*%
G04 APERTURE END LIST*
D10*
X126912619Y-70842142D02*
X126960238Y-70889761D01*
X127103095Y-70937380D01*
X127198333Y-70937380D01*
X127341190Y-70889761D01*
X127436428Y-70794523D01*
X127484047Y-70699285D01*
X127531666Y-70508809D01*
X127531666Y-70365952D01*
X127484047Y-70175476D01*
X127436428Y-70080238D01*
X127341190Y-69985000D01*
X127198333Y-69937380D01*
X127103095Y-69937380D01*
X126960238Y-69985000D01*
X126912619Y-70032619D01*
X126626904Y-69937380D02*
X126055476Y-69937380D01*
X126341190Y-70937380D02*
X126341190Y-69937380D01*
X125769761Y-70889761D02*
X125626904Y-70937380D01*
X125388809Y-70937380D01*
X125293571Y-70889761D01*
X125245952Y-70842142D01*
X125198333Y-70746904D01*
X125198333Y-70651666D01*
X125245952Y-70556428D01*
X125293571Y-70508809D01*
X125388809Y-70461190D01*
X125579285Y-70413571D01*
X125674523Y-70365952D01*
X125722142Y-70318333D01*
X125769761Y-70223095D01*
X125769761Y-70127857D01*
X125722142Y-70032619D01*
X125674523Y-69985000D01*
X125579285Y-69937380D01*
X125341190Y-69937380D01*
X125198333Y-69985000D01*
X127626904Y-75017380D02*
X127055476Y-75017380D01*
X127341190Y-76017380D02*
X127341190Y-75017380D01*
X126817380Y-75017380D02*
X126150714Y-76017380D01*
X126150714Y-75017380D02*
X126817380Y-76017380D01*
X125769761Y-76017380D02*
X125769761Y-75017380D01*
X125531666Y-75017380D01*
X125388809Y-75065000D01*
X125293571Y-75160238D01*
X125245952Y-75255476D01*
X125198333Y-75445952D01*
X125198333Y-75588809D01*
X125245952Y-75779285D01*
X125293571Y-75874523D01*
X125388809Y-75969761D01*
X125531666Y-76017380D01*
X125769761Y-76017380D01*
X127732451Y-54512926D02*
X127827689Y-54465306D01*
X127970547Y-54465306D01*
X128113404Y-54512926D01*
X128208642Y-54608164D01*
X128256261Y-54703402D01*
X128303880Y-54893878D01*
X128303880Y-55036735D01*
X128256261Y-55227211D01*
X128208642Y-55322449D01*
X128113404Y-55417687D01*
X127970547Y-55465306D01*
X127875308Y-55465306D01*
X127732451Y-55417687D01*
X127684832Y-55370068D01*
X127684832Y-55036735D01*
X127875308Y-55036735D01*
X127256261Y-55465306D02*
X127256261Y-54465306D01*
X126684832Y-55465306D01*
X126684832Y-54465306D01*
X126208642Y-55465306D02*
X126208642Y-54465306D01*
X125970547Y-54465306D01*
X125827689Y-54512926D01*
X125732451Y-54608164D01*
X125684832Y-54703402D01*
X125637213Y-54893878D01*
X125637213Y-55036735D01*
X125684832Y-55227211D01*
X125732451Y-55322449D01*
X125827689Y-55417687D01*
X125970547Y-55465306D01*
X126208642Y-55465306D01*
X127126904Y-72525000D02*
X127222142Y-72477380D01*
X127365000Y-72477380D01*
X127507857Y-72525000D01*
X127603095Y-72620238D01*
X127650714Y-72715476D01*
X127698333Y-72905952D01*
X127698333Y-73048809D01*
X127650714Y-73239285D01*
X127603095Y-73334523D01*
X127507857Y-73429761D01*
X127365000Y-73477380D01*
X127269761Y-73477380D01*
X127126904Y-73429761D01*
X127079285Y-73382142D01*
X127079285Y-73048809D01*
X127269761Y-73048809D01*
X126650714Y-73477380D02*
X126650714Y-72477380D01*
X126079285Y-73477380D01*
X126079285Y-72477380D01*
X125603095Y-73477380D02*
X125603095Y-72477380D01*
X125365000Y-72477380D01*
X125222142Y-72525000D01*
X125126904Y-72620238D01*
X125079285Y-72715476D01*
X125031666Y-72905952D01*
X125031666Y-73048809D01*
X125079285Y-73239285D01*
X125126904Y-73334523D01*
X125222142Y-73429761D01*
X125365000Y-73477380D01*
X125603095Y-73477380D01*
X128296370Y-60376331D02*
X128153513Y-60423950D01*
X127915418Y-60423950D01*
X127820180Y-60376331D01*
X127772561Y-60328712D01*
X127724942Y-60233474D01*
X127724942Y-60138236D01*
X127772561Y-60042998D01*
X127820180Y-59995379D01*
X127915418Y-59947760D01*
X128105894Y-59900141D01*
X128201132Y-59852522D01*
X128248751Y-59804903D01*
X128296370Y-59709665D01*
X128296370Y-59614427D01*
X128248751Y-59519189D01*
X128201132Y-59471570D01*
X128105894Y-59423950D01*
X127867799Y-59423950D01*
X127724942Y-59471570D01*
X127296370Y-60423950D02*
X127296370Y-59423950D01*
X127058275Y-59423950D01*
X126915418Y-59471570D01*
X126820180Y-59566808D01*
X126772561Y-59662046D01*
X126724942Y-59852522D01*
X126724942Y-59995379D01*
X126772561Y-60185855D01*
X126820180Y-60281093D01*
X126915418Y-60376331D01*
X127058275Y-60423950D01*
X127296370Y-60423950D01*
X126343989Y-60138236D02*
X125867799Y-60138236D01*
X126439227Y-60423950D02*
X126105894Y-59423950D01*
X125772561Y-60423950D01*
X128079285Y-68016428D02*
X127317380Y-68016428D01*
X127698333Y-68397380D02*
X127698333Y-67635476D01*
X126936428Y-67397380D02*
X126317380Y-67397380D01*
X126650714Y-67778333D01*
X126507857Y-67778333D01*
X126412619Y-67825952D01*
X126365000Y-67873571D01*
X126317380Y-67968809D01*
X126317380Y-68206904D01*
X126365000Y-68302142D01*
X126412619Y-68349761D01*
X126507857Y-68397380D01*
X126793571Y-68397380D01*
X126888809Y-68349761D01*
X126936428Y-68302142D01*
X125984047Y-67730714D02*
X125745952Y-68397380D01*
X125507857Y-67730714D01*
X125222142Y-67397380D02*
X124603095Y-67397380D01*
X124936428Y-67778333D01*
X124793571Y-67778333D01*
X124698333Y-67825952D01*
X124650714Y-67873571D01*
X124603095Y-67968809D01*
X124603095Y-68206904D01*
X124650714Y-68302142D01*
X124698333Y-68349761D01*
X124793571Y-68397380D01*
X125079285Y-68397380D01*
X125174523Y-68349761D01*
X125222142Y-68302142D01*
X127031666Y-78557380D02*
X127365000Y-78081190D01*
X127603095Y-78557380D02*
X127603095Y-77557380D01*
X127222142Y-77557380D01*
X127126904Y-77605000D01*
X127079285Y-77652619D01*
X127031666Y-77747857D01*
X127031666Y-77890714D01*
X127079285Y-77985952D01*
X127126904Y-78033571D01*
X127222142Y-78081190D01*
X127603095Y-78081190D01*
X126698333Y-77557380D02*
X126031666Y-78557380D01*
X126031666Y-77557380D02*
X126698333Y-78557380D01*
X125650714Y-78557380D02*
X125650714Y-77557380D01*
X125412619Y-77557380D01*
X125269761Y-77605000D01*
X125174523Y-77700238D01*
X125126904Y-77795476D01*
X125079285Y-77985952D01*
X125079285Y-78128809D01*
X125126904Y-78319285D01*
X125174523Y-78414523D01*
X125269761Y-78509761D01*
X125412619Y-78557380D01*
X125650714Y-78557380D01*
X128655380Y-52555534D02*
X127893475Y-52555534D01*
X128274428Y-52936486D02*
X128274428Y-52174582D01*
X127512523Y-51936486D02*
X126893475Y-51936486D01*
X127226809Y-52317439D01*
X127083952Y-52317439D01*
X126988714Y-52365058D01*
X126941095Y-52412677D01*
X126893475Y-52507915D01*
X126893475Y-52746010D01*
X126941095Y-52841248D01*
X126988714Y-52888867D01*
X127083952Y-52936486D01*
X127369666Y-52936486D01*
X127464904Y-52888867D01*
X127512523Y-52841248D01*
X126560142Y-52269820D02*
X126322047Y-52936486D01*
X126083952Y-52269820D01*
X125798237Y-51936486D02*
X125179190Y-51936486D01*
X125512523Y-52317439D01*
X125369666Y-52317439D01*
X125274428Y-52365058D01*
X125226809Y-52412677D01*
X125179190Y-52507915D01*
X125179190Y-52746010D01*
X125226809Y-52841248D01*
X125274428Y-52888867D01*
X125369666Y-52936486D01*
X125655380Y-52936486D01*
X125750618Y-52888867D01*
X125798237Y-52841248D01*
X127507857Y-81097380D02*
X127507857Y-80097380D01*
X127269761Y-80097380D01*
X127126904Y-80145000D01*
X127031666Y-80240238D01*
X126984047Y-80335476D01*
X126936428Y-80525952D01*
X126936428Y-80668809D01*
X126984047Y-80859285D01*
X127031666Y-80954523D01*
X127126904Y-81049761D01*
X127269761Y-81097380D01*
X127507857Y-81097380D01*
X126650714Y-80097380D02*
X126079285Y-80097380D01*
X126365000Y-81097380D02*
X126365000Y-80097380D01*
X125174523Y-81097380D02*
X125507857Y-80621190D01*
X125745952Y-81097380D02*
X125745952Y-80097380D01*
X125365000Y-80097380D01*
X125269761Y-80145000D01*
X125222142Y-80192619D01*
X125174523Y-80287857D01*
X125174523Y-80430714D01*
X125222142Y-80525952D01*
X125269761Y-80573571D01*
X125365000Y-80621190D01*
X125745952Y-80621190D01*
X128243109Y-57863058D02*
X128100252Y-57910677D01*
X127862156Y-57910677D01*
X127766918Y-57863058D01*
X127719299Y-57815439D01*
X127671680Y-57720201D01*
X127671680Y-57624963D01*
X127719299Y-57529725D01*
X127766918Y-57482106D01*
X127862156Y-57434487D01*
X128052633Y-57386868D01*
X128147871Y-57339249D01*
X128195490Y-57291630D01*
X128243109Y-57196392D01*
X128243109Y-57101154D01*
X128195490Y-57005916D01*
X128147871Y-56958297D01*
X128052633Y-56910677D01*
X127814537Y-56910677D01*
X127671680Y-56958297D01*
X126671680Y-57815439D02*
X126719299Y-57863058D01*
X126862156Y-57910677D01*
X126957394Y-57910677D01*
X127100252Y-57863058D01*
X127195490Y-57767820D01*
X127243109Y-57672582D01*
X127290728Y-57482106D01*
X127290728Y-57339249D01*
X127243109Y-57148773D01*
X127195490Y-57053535D01*
X127100252Y-56958297D01*
X126957394Y-56910677D01*
X126862156Y-56910677D01*
X126719299Y-56958297D01*
X126671680Y-57005916D01*
X125766918Y-57910677D02*
X126243109Y-57910677D01*
X126243109Y-56910677D01*
M02*
