%TF.GenerationSoftware,KiCad,Pcbnew,(6.0.7)*%
%TF.CreationDate,2023-03-03T12:59:51+05:30*%
%TF.ProjectId,ESP32-dev-board,45535033-322d-4646-9576-2d626f617264,rev?*%
%TF.SameCoordinates,Original*%
%TF.FileFunction,Paste,Top*%
%TF.FilePolarity,Positive*%
%FSLAX46Y46*%
G04 Gerber Fmt 4.6, Leading zero omitted, Abs format (unit mm)*
G04 Created by KiCad (PCBNEW (6.0.7)) date 2023-03-03 12:59:51*
%MOMM*%
%LPD*%
G01*
G04 APERTURE LIST*
G04 Aperture macros list*
%AMRoundRect*
0 Rectangle with rounded corners*
0 $1 Rounding radius*
0 $2 $3 $4 $5 $6 $7 $8 $9 X,Y pos of 4 corners*
0 Add a 4 corners polygon primitive as box body*
4,1,4,$2,$3,$4,$5,$6,$7,$8,$9,$2,$3,0*
0 Add four circle primitives for the rounded corners*
1,1,$1+$1,$2,$3*
1,1,$1+$1,$4,$5*
1,1,$1+$1,$6,$7*
1,1,$1+$1,$8,$9*
0 Add four rect primitives between the rounded corners*
20,1,$1+$1,$2,$3,$4,$5,0*
20,1,$1+$1,$4,$5,$6,$7,0*
20,1,$1+$1,$6,$7,$8,$9,0*
20,1,$1+$1,$8,$9,$2,$3,0*%
G04 Aperture macros list end*
%ADD10R,2.000000X0.900000*%
%ADD11R,0.900000X2.000000*%
%ADD12R,5.000000X5.000000*%
%ADD13R,2.800000X1.000000*%
%ADD14R,2.450000X5.900000*%
%ADD15RoundRect,0.150000X0.150000X-0.587500X0.150000X0.587500X-0.150000X0.587500X-0.150000X-0.587500X0*%
%ADD16RoundRect,0.249999X-1.425001X0.512501X-1.425001X-0.512501X1.425001X-0.512501X1.425001X0.512501X0*%
%ADD17R,1.400000X0.620000*%
%ADD18R,2.400000X1.100000*%
%ADD19RoundRect,0.250000X0.625000X-0.400000X0.625000X0.400000X-0.625000X0.400000X-0.625000X-0.400000X0*%
%ADD20RoundRect,0.250000X0.400000X0.625000X-0.400000X0.625000X-0.400000X-0.625000X0.400000X-0.625000X0*%
%ADD21RoundRect,0.249999X0.512501X1.425001X-0.512501X1.425001X-0.512501X-1.425001X0.512501X-1.425001X0*%
%ADD22RoundRect,0.250000X-0.650000X0.412500X-0.650000X-0.412500X0.650000X-0.412500X0.650000X0.412500X0*%
%ADD23RoundRect,0.250000X-0.625000X0.400000X-0.625000X-0.400000X0.625000X-0.400000X0.625000X0.400000X0*%
%ADD24RoundRect,0.250000X0.412500X0.650000X-0.412500X0.650000X-0.412500X-0.650000X0.412500X-0.650000X0*%
%ADD25RoundRect,0.250000X0.650000X-0.412500X0.650000X0.412500X-0.650000X0.412500X-0.650000X-0.412500X0*%
%ADD26RoundRect,0.150000X0.587500X0.150000X-0.587500X0.150000X-0.587500X-0.150000X0.587500X-0.150000X0*%
%ADD27RoundRect,0.250001X0.624999X-0.462499X0.624999X0.462499X-0.624999X0.462499X-0.624999X-0.462499X0*%
%ADD28RoundRect,0.150000X-0.587500X-0.150000X0.587500X-0.150000X0.587500X0.150000X-0.587500X0.150000X0*%
%ADD29RoundRect,0.250000X-0.400000X-0.625000X0.400000X-0.625000X0.400000X0.625000X-0.400000X0.625000X0*%
%ADD30RoundRect,0.150000X-0.512500X-0.150000X0.512500X-0.150000X0.512500X0.150000X-0.512500X0.150000X0*%
%ADD31R,0.800000X1.000000*%
%ADD32R,1.500000X0.700000*%
%ADD33RoundRect,0.100000X0.100000X0.575000X-0.100000X0.575000X-0.100000X-0.575000X0.100000X-0.575000X0*%
%ADD34RoundRect,0.400000X0.400000X0.500000X-0.400000X0.500000X-0.400000X-0.500000X0.400000X-0.500000X0*%
%ADD35RoundRect,0.375000X0.375000X0.425000X-0.375000X0.425000X-0.375000X-0.425000X0.375000X-0.425000X0*%
%ADD36RoundRect,0.250001X0.462499X0.624999X-0.462499X0.624999X-0.462499X-0.624999X0.462499X-0.624999X0*%
%ADD37R,2.000000X1.500000*%
%ADD38R,2.000000X3.800000*%
G04 APERTURE END LIST*
D10*
%TO.C,U2*%
X96640000Y-47110000D03*
X96640000Y-48380000D03*
X96640000Y-49650000D03*
X96640000Y-50920000D03*
X96640000Y-52190000D03*
X96640000Y-53460000D03*
X96640000Y-54730000D03*
X96640000Y-56000000D03*
X96640000Y-57270000D03*
X96640000Y-58540000D03*
X96640000Y-59810000D03*
X96640000Y-61080000D03*
X96640000Y-62350000D03*
X96640000Y-63620000D03*
D11*
X99425000Y-64620000D03*
X100695000Y-64620000D03*
X101965000Y-64620000D03*
X103235000Y-64620000D03*
X104505000Y-64620000D03*
X105775000Y-64620000D03*
X107045000Y-64620000D03*
X108315000Y-64620000D03*
X109585000Y-64620000D03*
X110855000Y-64620000D03*
D10*
X113640000Y-63620000D03*
X113640000Y-62350000D03*
X113640000Y-61080000D03*
X113640000Y-59810000D03*
X113640000Y-58540000D03*
X113640000Y-57270000D03*
X113640000Y-56000000D03*
X113640000Y-54730000D03*
X113640000Y-53460000D03*
X113640000Y-52190000D03*
X113640000Y-50920000D03*
X113640000Y-49650000D03*
X113640000Y-48380000D03*
X113640000Y-47110000D03*
D12*
X104140000Y-54610000D03*
%TD*%
D13*
%TO.C,SW2*%
X83545000Y-109252000D03*
X77745000Y-109252000D03*
X83545000Y-113252000D03*
X77745000Y-113252000D03*
%TD*%
D14*
%TO.C,L1*%
X107839848Y-101092000D03*
X102289848Y-101092000D03*
%TD*%
D15*
%TO.C,Q3*%
X116890000Y-65657500D03*
X118790000Y-65657500D03*
X117840000Y-63782500D03*
%TD*%
D16*
%TO.C,D6*%
X98552000Y-95319615D03*
X98552000Y-101294615D03*
%TD*%
D17*
%TO.C,J10*%
X117888000Y-91420000D03*
X117888000Y-92520000D03*
X117888000Y-93620000D03*
X117888000Y-94720000D03*
X117888000Y-95820000D03*
X117888000Y-96920000D03*
X117888000Y-98020000D03*
X117888000Y-99120000D03*
X117888000Y-100220000D03*
D18*
X119888000Y-85450000D03*
X128888000Y-101600000D03*
X119888000Y-101600000D03*
X128888000Y-85450000D03*
%TD*%
D19*
%TO.C,R12*%
X113376156Y-140330251D03*
X113376156Y-137230251D03*
%TD*%
D20*
%TO.C,R17*%
X106334430Y-109545032D03*
X103234430Y-109545032D03*
%TD*%
D19*
%TO.C,R13*%
X121081204Y-140409758D03*
X121081204Y-137309758D03*
%TD*%
D21*
%TO.C,D5*%
X127137085Y-131797543D03*
X121162085Y-131797543D03*
%TD*%
D22*
%TO.C,C9*%
X94996000Y-95465500D03*
X94996000Y-98590500D03*
%TD*%
D23*
%TO.C,R4*%
X86995000Y-60680000D03*
X86995000Y-63780000D03*
%TD*%
D24*
%TO.C,C2*%
X100956507Y-85090000D03*
X97831507Y-85090000D03*
%TD*%
%TO.C,C5*%
X94210700Y-47076897D03*
X91085700Y-47076897D03*
%TD*%
D19*
%TO.C,R21*%
X121015000Y-62460000D03*
X121015000Y-59360000D03*
%TD*%
D23*
%TO.C,R1*%
X86995000Y-51790000D03*
X86995000Y-54890000D03*
%TD*%
D25*
%TO.C,C4*%
X100965000Y-125133500D03*
X100965000Y-122008500D03*
%TD*%
D23*
%TO.C,R3*%
X86995000Y-77825000D03*
X86995000Y-80925000D03*
%TD*%
%TO.C,R7*%
X86995000Y-69570000D03*
X86995000Y-72670000D03*
%TD*%
D26*
%TO.C,Q2*%
X109887500Y-72655000D03*
X109887500Y-70755000D03*
X108012500Y-71705000D03*
%TD*%
D27*
%TO.C,D3*%
X118456156Y-140322924D03*
X118456156Y-137347924D03*
%TD*%
D28*
%TO.C,Q1*%
X121145328Y-127116219D03*
X121145328Y-129016219D03*
X123020328Y-128066219D03*
%TD*%
D13*
%TO.C,SW5*%
X96160000Y-67850000D03*
X101960000Y-67850000D03*
X96160000Y-71850000D03*
X101960000Y-71850000D03*
%TD*%
D29*
%TO.C,R14*%
X106400000Y-114300000D03*
X109500000Y-114300000D03*
%TD*%
D23*
%TO.C,R8*%
X86995000Y-118338000D03*
X86995000Y-121438000D03*
%TD*%
D13*
%TO.C,SW1*%
X83545000Y-100630000D03*
X77745000Y-100630000D03*
X77745000Y-104630000D03*
X83545000Y-104630000D03*
%TD*%
D19*
%TO.C,R9*%
X104648000Y-78766000D03*
X104648000Y-75666000D03*
%TD*%
D24*
%TO.C,C3*%
X103797500Y-133985000D03*
X100672500Y-133985000D03*
%TD*%
D19*
%TO.C,R11*%
X108585000Y-124105000D03*
X108585000Y-121005000D03*
%TD*%
D13*
%TO.C,SW3*%
X83545000Y-117888000D03*
X77745000Y-117888000D03*
X83545000Y-121888000D03*
X77745000Y-121888000D03*
%TD*%
D30*
%TO.C,U4*%
X103675369Y-105657189D03*
X103675369Y-106607189D03*
X103675369Y-107557189D03*
X105950369Y-107557189D03*
X105950369Y-106607189D03*
X105950369Y-105657189D03*
%TD*%
D22*
%TO.C,C7*%
X93040149Y-49643759D03*
X93040149Y-52768759D03*
%TD*%
D30*
%TO.C,U3*%
X103637500Y-120970000D03*
X103637500Y-121920000D03*
X103637500Y-122870000D03*
X105912500Y-122870000D03*
X105912500Y-120970000D03*
%TD*%
D31*
%TO.C,SW4*%
X131103829Y-123985000D03*
X133313829Y-131285000D03*
X131103829Y-131285000D03*
X133313829Y-123985000D03*
D32*
X130453829Y-129885000D03*
X130453829Y-126885000D03*
X130453829Y-125385000D03*
%TD*%
D19*
%TO.C,R19*%
X117852898Y-61221105D03*
X117852898Y-58121105D03*
%TD*%
%TO.C,R10*%
X114906211Y-124143350D03*
X114906211Y-121043350D03*
%TD*%
D33*
%TO.C,J8*%
X103411436Y-138449761D03*
X104061436Y-138449761D03*
X104711436Y-138449761D03*
X105361436Y-138449761D03*
X106011436Y-138449761D03*
D34*
X105761436Y-141124761D03*
X103661436Y-141124761D03*
D35*
X101311436Y-138574761D03*
X108111436Y-138574761D03*
%TD*%
D23*
%TO.C,R15*%
X95885000Y-75285000D03*
X95885000Y-78385000D03*
%TD*%
D29*
%TO.C,R20*%
X113435940Y-70741007D03*
X116535940Y-70741007D03*
%TD*%
D23*
%TO.C,R2*%
X86995000Y-101080000D03*
X86995000Y-104180000D03*
%TD*%
D36*
%TO.C,D4*%
X103335257Y-114272592D03*
X100360257Y-114272592D03*
%TD*%
D19*
%TO.C,R16*%
X100563943Y-109556537D03*
X100563943Y-106456537D03*
%TD*%
D22*
%TO.C,C8*%
X108712000Y-106600973D03*
X108712000Y-109725973D03*
%TD*%
D37*
%TO.C,U1*%
X97815000Y-87870000D03*
X97815000Y-90170000D03*
D38*
X104115000Y-90170000D03*
D37*
X97815000Y-92470000D03*
%TD*%
D23*
%TO.C,R6*%
X86995000Y-109702000D03*
X86995000Y-112802000D03*
%TD*%
D27*
%TO.C,D2*%
X115916156Y-140322924D03*
X115916156Y-137347924D03*
%TD*%
D29*
%TO.C,R18*%
X107705990Y-67200319D03*
X110805990Y-67200319D03*
%TD*%
D25*
%TO.C,C1*%
X95250000Y-92367500D03*
X95250000Y-89242500D03*
%TD*%
D27*
%TO.C,D1*%
X107188000Y-78703500D03*
X107188000Y-75728500D03*
%TD*%
D23*
%TO.C,R5*%
X86995000Y-87350000D03*
X86995000Y-90450000D03*
%TD*%
D22*
%TO.C,C6*%
X98425000Y-75272500D03*
X98425000Y-78397500D03*
%TD*%
M02*
