M48
; DRILL file {KiCad (6.0.7)} date Fri Mar  3 12:59:45 2023
; FORMAT={-:-/ absolute / inch / decimal}
; #@! TF.CreationDate,2023-03-03T12:59:45+05:30
; #@! TF.GenerationSoftware,Kicad,Pcbnew,(6.0.7)
; #@! TF.FileFunction,Plated,1,2,PTH
FMAT,2
INCH
; #@! TA.AperFunction,Plated,PTH,ViaDrill
T1C0.0157
; #@! TA.AperFunction,Plated,PTH,ComponentDrill
T2C0.0197
; #@! TA.AperFunction,Plated,PTH,ComponentDrill
T3C0.0374
; #@! TA.AperFunction,Plated,PTH,ComponentDrill
T4C0.0394
%
G90
G05
T1
X3.0597Y-4.5916
X3.0604Y-4.2518
X3.0627Y-3.9127
X3.2892Y-3.9154
X3.2904Y-4.5918
X3.2905Y-4.2527
X3.3657Y-2.5475
X3.42Y-2.3378
X3.4223Y-3.0111
X3.424Y-3.5101
X3.4242Y-3.1346
X3.4247Y-2.1078
X3.4248Y-2.6874
X3.425Y-2.81
X3.4282Y-3.3813
X3.4852Y-2.0394
X3.5339Y-1.8539
X3.6565Y-1.8519
X3.72Y-2.26
X3.7249Y-2.1662
X3.727Y-3.4614
X3.73Y-2.2132
X3.736Y-2.3078
X3.739Y-2.1061
X3.7595Y-3.4604
X3.7847Y-2.7181
X3.785Y-3.4395
X3.7962Y-3.884
X3.7999Y-3.3732
X3.8Y-3.34
X3.8762Y-2.9113
X3.8792Y-1.8559
X3.9Y-1.925
X3.9731Y-4.7517
X3.975Y-3.475
X3.975Y-3.525
X3.975Y-4.975
X4.0138Y-2.7173
X4.0302Y-4.1974
X4.0581Y-2.9782
X4.06Y-2.12
X4.06Y-2.16
X4.06Y-2.2
X4.075Y-4.7
X4.1Y-2.12
X4.1Y-2.16
X4.1Y-2.2
X4.1196Y-4.1974
X4.125Y-4.8
X4.14Y-2.12
X4.14Y-2.16
X4.14Y-2.2
X4.15Y-2.775
X4.15Y-2.8602
X4.1822Y-2.6449
X4.2281Y-4.3137
X4.28Y-4.3621
X4.3059Y-2.7106
X4.339Y-4.886
X4.35Y-3.4
X4.3986Y-1.9082
X4.4022Y-2.2552
X4.4038Y-4.8862
X4.4171Y-1.8554
X4.464Y-4.886
X4.5506Y-3.7717
X4.5815Y-2.2
X4.5838Y-3.6857
X4.6131Y-5.3346
X4.6402Y-3.0348
X4.7001Y-5.0049
X4.7082Y-3.8167
X4.7181Y-3.4167
X4.721Y-3.9514
X4.725Y-2.225
X4.725Y-4.45
X4.7309Y-3.8595
X4.7661Y-5.359
X4.825Y-2.9
X4.85Y-4.75
X4.875Y-2.05
X4.875Y-2.775
X5.0721Y-3.4138
X5.0736Y-3.9486
T3
X5.1118Y-2.0687
X5.1118Y-2.1671
X5.1118Y-2.2656
X5.1118Y-2.364
X5.1118Y-2.6766
X5.1118Y-2.775
X5.1118Y-2.8734
X5.1118Y-2.9719
X5.1118Y-3.0703
X5.1118Y-3.1687
T4
X3.2747Y-2.3758
X3.2747Y-2.4742
X3.2747Y-2.7258
X3.2747Y-2.8242
X3.2747Y-3.0758
X3.2747Y-3.1742
X3.2747Y-3.4258
X3.2747Y-3.5242
X3.275Y-2.0266
X3.275Y-2.125
X4.9753Y-4.4908
X4.9753Y-4.5892
T2
G00X4.0113Y-5.5699
M15
G01X4.0113Y-5.5423
M16
G05
G00X4.2337Y-5.5699
M15
G01X4.2337Y-5.5423
M16
G05
T0
M30
