%TF.GenerationSoftware,KiCad,Pcbnew,(6.0.7)*%
%TF.CreationDate,2023-03-03T12:59:51+05:30*%
%TF.ProjectId,ESP32-dev-board,45535033-322d-4646-9576-2d626f617264,rev?*%
%TF.SameCoordinates,Original*%
%TF.FileFunction,Copper,L2,Bot*%
%TF.FilePolarity,Positive*%
%FSLAX46Y46*%
G04 Gerber Fmt 4.6, Leading zero omitted, Abs format (unit mm)*
G04 Created by KiCad (PCBNEW (6.0.7)) date 2023-03-03 12:59:51*
%MOMM*%
%LPD*%
G01*
G04 APERTURE LIST*
G04 Aperture macros list*
%AMRoundRect*
0 Rectangle with rounded corners*
0 $1 Rounding radius*
0 $2 $3 $4 $5 $6 $7 $8 $9 X,Y pos of 4 corners*
0 Add a 4 corners polygon primitive as box body*
4,1,4,$2,$3,$4,$5,$6,$7,$8,$9,$2,$3,0*
0 Add four circle primitives for the rounded corners*
1,1,$1+$1,$2,$3*
1,1,$1+$1,$4,$5*
1,1,$1+$1,$6,$7*
1,1,$1+$1,$8,$9*
0 Add four rect primitives between the rounded corners*
20,1,$1+$1,$2,$3,$4,$5,0*
20,1,$1+$1,$4,$5,$6,$7,0*
20,1,$1+$1,$6,$7,$8,$9,0*
20,1,$1+$1,$8,$9,$2,$3,0*%
G04 Aperture macros list end*
%TA.AperFunction,ComponentPad*%
%ADD10RoundRect,0.250000X0.750000X-0.600000X0.750000X0.600000X-0.750000X0.600000X-0.750000X-0.600000X0*%
%TD*%
%TA.AperFunction,ComponentPad*%
%ADD11O,2.000000X1.700000*%
%TD*%
%TA.AperFunction,ComponentPad*%
%ADD12RoundRect,0.250000X-0.725000X0.600000X-0.725000X-0.600000X0.725000X-0.600000X0.725000X0.600000X0*%
%TD*%
%TA.AperFunction,ComponentPad*%
%ADD13O,1.950000X1.700000*%
%TD*%
%TA.AperFunction,ComponentPad*%
%ADD14O,1.100000X1.800000*%
%TD*%
%TA.AperFunction,ComponentPad*%
%ADD15RoundRect,0.250000X-0.750000X0.600000X-0.750000X-0.600000X0.750000X-0.600000X0.750000X0.600000X0*%
%TD*%
%TA.AperFunction,ViaPad*%
%ADD16C,0.800000*%
%TD*%
%TA.AperFunction,Conductor*%
%ADD17C,0.500000*%
%TD*%
%TA.AperFunction,Conductor*%
%ADD18C,0.300000*%
%TD*%
G04 APERTURE END LIST*
D10*
%TO.P,J3,1,Pin_1*%
%TO.N,+3V3*%
X83177500Y-62845000D03*
D11*
%TO.P,J3,2,Pin_2*%
%TO.N,FS-2*%
X83177500Y-60345000D03*
%TD*%
D10*
%TO.P,J5,1,Pin_1*%
%TO.N,+3V3*%
X83177500Y-71735000D03*
D11*
%TO.P,J5,2,Pin_2*%
%TO.N,FS-3*%
X83177500Y-69235000D03*
%TD*%
D10*
%TO.P,J1,1,Pin_1*%
%TO.N,+3V3*%
X83185000Y-53975000D03*
D11*
%TO.P,J1,2,Pin_2*%
%TO.N,FS-1*%
X83185000Y-51475000D03*
%TD*%
D10*
%TO.P,J4,1,Pin_1*%
%TO.N,+3V3*%
X83177500Y-89515000D03*
D11*
%TO.P,J4,2,Pin_2*%
%TO.N,FS-5*%
X83177500Y-87015000D03*
%TD*%
D12*
%TO.P,J6,1,Pin_1*%
%TO.N,+3V3*%
X129840000Y-52545000D03*
D13*
%TO.P,J6,2,Pin_2*%
%TO.N,GND*%
X129840000Y-55045000D03*
%TO.P,J6,3,Pin_3*%
%TO.N,SCL*%
X129840000Y-57545000D03*
%TO.P,J6,4,Pin_4*%
%TO.N,SDA*%
X129840000Y-60045000D03*
%TD*%
D12*
%TO.P,J7,1,Pin_1*%
%TO.N,+3V3*%
X129840000Y-67985000D03*
D13*
%TO.P,J7,2,Pin_2*%
%TO.N,CTS*%
X129840000Y-70485000D03*
%TO.P,J7,3,Pin_3*%
%TO.N,GND*%
X129840000Y-72985000D03*
%TO.P,J7,4,Pin_4*%
%TO.N,TXD*%
X129840000Y-75485000D03*
%TO.P,J7,5,Pin_5*%
%TO.N,RXD*%
X129840000Y-77985000D03*
%TO.P,J7,6,Pin_6*%
%TO.N,DTR*%
X129840000Y-80485000D03*
%TD*%
D14*
%TO.P,J8,6,Shield*%
%TO.N,GND*%
X101886436Y-141124761D03*
X107536436Y-141124761D03*
%TD*%
D10*
%TO.P,J2,1,Pin_1*%
%TO.N,+3V3*%
X83177500Y-80625000D03*
D11*
%TO.P,J2,2,Pin_2*%
%TO.N,FS-4*%
X83177500Y-78125000D03*
%TD*%
D15*
%TO.P,J9,1,Pin_1*%
%TO.N,VCCQ*%
X126372500Y-114066000D03*
D11*
%TO.P,J9,2,Pin_2*%
%TO.N,GND*%
X126372500Y-116566000D03*
%TD*%
D16*
%TO.N,+3V3*%
X120015000Y-56515000D03*
X100965000Y-89535000D03*
X100965000Y-88265000D03*
X99060000Y-48895000D03*
X92874990Y-47039497D03*
%TO.N,VCCQ*%
X119383022Y-127123742D03*
X100965000Y-126365000D03*
%TO.N,+5V*%
X120015000Y-113030000D03*
X123190000Y-120650000D03*
%TO.N,LED*%
X105410000Y-72649500D03*
X105410000Y-70485000D03*
%TO.N,STAT*%
X117172155Y-135498661D03*
X103505000Y-119380000D03*
%TO.N,FS-1*%
X94970013Y-53495920D03*
X88524820Y-51801562D03*
%TO.N,FS-4*%
X86926470Y-76483135D03*
X94488000Y-57404000D03*
%TO.N,FS-2*%
X94613038Y-55022350D03*
X86869259Y-59380955D03*
%TO.N,FS-5*%
X94895643Y-58617960D03*
X87075164Y-85883754D03*
%TO.N,FS-3*%
X94742629Y-56216368D03*
X86990530Y-68259497D03*
%TO.N,CTS*%
X123825000Y-70485000D03*
X117862168Y-77082832D03*
%TO.N,TXD*%
X123825000Y-52070000D03*
%TO.N,DTR*%
X122555000Y-73660000D03*
%TO.N,CS_SD*%
X109370807Y-68848617D03*
X110490000Y-86360000D03*
%TO.N,SCK*%
X115586227Y-95801961D03*
X111815359Y-57282535D03*
%TO.N,MISO*%
X120165534Y-98032300D03*
X116369500Y-55879999D03*
%TO.N,MOSI*%
X111725643Y-48468897D03*
X116427666Y-93617706D03*
%TO.N,GND*%
X103124000Y-53848000D03*
X86975195Y-79619569D03*
X101950254Y-69019400D03*
X108712000Y-110797922D03*
X83545880Y-99451059D03*
X96422401Y-98652433D03*
X128868509Y-100294169D03*
X104140000Y-53848000D03*
X103076986Y-75646675D03*
X105156000Y-53848000D03*
X107392960Y-109569245D03*
X96132485Y-69038890D03*
X95492342Y-87894189D03*
X106227950Y-67181425D03*
X105156000Y-55880000D03*
X96520000Y-84836000D03*
X77793725Y-99382639D03*
X83576374Y-116632835D03*
X94667004Y-87919662D03*
X113385000Y-124105000D03*
X119913986Y-100365632D03*
X104140000Y-54864000D03*
X111857764Y-124110116D03*
X121058930Y-136118104D03*
X98532263Y-47140736D03*
X104775000Y-121920000D03*
X103124000Y-54864000D03*
X104638369Y-106615033D03*
X105156000Y-54864000D03*
X119840700Y-86784073D03*
X110210000Y-124105000D03*
X128830469Y-86710986D03*
X112194711Y-47127750D03*
X83577483Y-108017632D03*
X100916322Y-120692815D03*
X89760402Y-47088033D03*
X77715514Y-116625609D03*
X77735254Y-107994894D03*
X96139367Y-87364342D03*
X103124000Y-55880000D03*
X119589153Y-96943543D03*
X86995000Y-71373914D03*
X98454549Y-73947113D03*
X86969013Y-89157162D03*
X102367590Y-106615033D03*
X85489798Y-64706569D03*
X104140000Y-55880000D03*
X86988503Y-53538692D03*
X96518531Y-85680248D03*
%TD*%
D17*
%TO.N,+3V3*%
X99060000Y-48895000D02*
X99060000Y-70466800D01*
X100965000Y-72371800D02*
X100965000Y-88265000D01*
X121920000Y-49530000D02*
X120015000Y-51435000D01*
X129840000Y-52545000D02*
X129380000Y-52545000D01*
X83563247Y-53975000D02*
X83185000Y-53975000D01*
X120015000Y-51435000D02*
X120015000Y-56515000D01*
X92025503Y-47039497D02*
X89766938Y-49298062D01*
X92874990Y-47039497D02*
X92025503Y-47039497D01*
X98590263Y-91909737D02*
X85572237Y-91909737D01*
X100965000Y-89535000D02*
X100965000Y-88265000D01*
X126365000Y-49530000D02*
X121920000Y-49530000D01*
X85572237Y-91909737D02*
X83177500Y-89515000D01*
X89766938Y-49298062D02*
X88240185Y-49298062D01*
X129380000Y-52545000D02*
X126365000Y-49530000D01*
X88240185Y-49298062D02*
X83563247Y-53975000D01*
X100965000Y-89535000D02*
X98590263Y-91909737D01*
X99060000Y-70466800D02*
X100965000Y-72371800D01*
%TO.N,VCCQ*%
X101726945Y-127126945D02*
X100965000Y-126365000D01*
X119383022Y-127123742D02*
X119379819Y-127126945D01*
X119379819Y-127126945D02*
X101726945Y-127126945D01*
%TO.N,+5V*%
X120015000Y-117475000D02*
X120015000Y-113030000D01*
X123190000Y-120650000D02*
X120015000Y-117475000D01*
D18*
%TO.N,LED*%
X105410000Y-70485000D02*
X105410000Y-72649500D01*
%TO.N,STAT*%
X99695000Y-119380000D02*
X98425000Y-120650000D01*
X98425000Y-120650000D02*
X98425000Y-127000000D01*
X98425000Y-127000000D02*
X99060000Y-127635000D01*
X103505000Y-119380000D02*
X99695000Y-119380000D01*
X100330000Y-128905000D02*
X114300000Y-128905000D01*
X99060000Y-127635000D02*
X100330000Y-128905000D01*
X114300000Y-128905000D02*
X117172155Y-131777155D01*
X117172155Y-131777155D02*
X117172155Y-135498661D01*
%TO.N,FS-1*%
X93275655Y-51801562D02*
X88524820Y-51801562D01*
X94970013Y-53495920D02*
X93275655Y-51801562D01*
%TO.N,FS-4*%
X94488000Y-57404000D02*
X89408000Y-62484000D01*
X89408000Y-62484000D02*
X89408000Y-71628000D01*
X89408000Y-71628000D02*
X86868000Y-74168000D01*
X86868000Y-74168000D02*
X86868000Y-76424665D01*
X86868000Y-76424665D02*
X86926470Y-76483135D01*
%TO.N,FS-2*%
X86868000Y-59379696D02*
X86869259Y-59380955D01*
X94613038Y-55022350D02*
X88741650Y-55022350D01*
X86868000Y-56896000D02*
X86868000Y-59379696D01*
X88741650Y-55022350D02*
X86868000Y-56896000D01*
%TO.N,FS-5*%
X89408000Y-74168000D02*
X89408000Y-83550918D01*
X89408000Y-83550918D02*
X87075164Y-85883754D01*
X90932000Y-72644000D02*
X89408000Y-74168000D01*
X90932000Y-62581603D02*
X90932000Y-72644000D01*
X94895643Y-58617960D02*
X90932000Y-62581603D01*
%TO.N,FS-3*%
X86990530Y-62361470D02*
X86990530Y-68259497D01*
X87376000Y-61976000D02*
X86990530Y-62361470D01*
X93135632Y-56216368D02*
X87376000Y-61976000D01*
X94742629Y-56216368D02*
X93135632Y-56216368D01*
%TO.N,CTS*%
X117862168Y-73907832D02*
X121285000Y-70485000D01*
X117862168Y-77082832D02*
X117862168Y-73907832D01*
X121285000Y-70485000D02*
X123825000Y-70485000D01*
%TO.N,TXD*%
X126365000Y-74930000D02*
X126920000Y-75485000D01*
X125095000Y-61893342D02*
X126365000Y-63163342D01*
X125095000Y-53340000D02*
X125095000Y-61893342D01*
X123825000Y-52070000D02*
X125095000Y-53340000D01*
X126920000Y-75485000D02*
X129840000Y-75485000D01*
X126365000Y-63163342D02*
X126365000Y-74930000D01*
%TO.N,DTR*%
X122555000Y-77470000D02*
X125570000Y-80485000D01*
X125570000Y-80485000D02*
X129840000Y-80485000D01*
X122555000Y-73660000D02*
X122555000Y-77470000D01*
%TO.N,CS_SD*%
X109220000Y-68999424D02*
X109370807Y-68848617D01*
X110490000Y-86360000D02*
X109220000Y-85090000D01*
X109220000Y-85090000D02*
X109220000Y-68999424D01*
%TO.N,SCK*%
X115586227Y-93907638D02*
X115586227Y-95801961D01*
X111815359Y-90136770D02*
X115586227Y-93907638D01*
X111815359Y-57282535D02*
X111815359Y-90136770D01*
%TO.N,MISO*%
X116369500Y-55879999D02*
X116369500Y-85700790D01*
X120389153Y-97808681D02*
X120165534Y-98032300D01*
X116369500Y-85700790D02*
X120389153Y-89720443D01*
X120389153Y-89720443D02*
X120389153Y-97808681D01*
%TO.N,MOSI*%
X115570000Y-92710000D02*
X115570000Y-92760040D01*
X115570000Y-92760040D02*
X116427666Y-93617706D01*
X115570000Y-52313254D02*
X115570000Y-92710000D01*
X111725643Y-48468897D02*
X115570000Y-52313254D01*
%TD*%
%TA.AperFunction,Conductor*%
%TO.N,GND*%
G36*
X91082121Y-39728502D02*
G01*
X91128614Y-39782158D01*
X91140000Y-39834500D01*
X91140000Y-45395000D01*
X119140000Y-45395000D01*
X119140000Y-44412703D01*
X126795743Y-44412703D01*
X126833268Y-44697734D01*
X126909129Y-44975036D01*
X127021923Y-45239476D01*
X127169561Y-45486161D01*
X127349313Y-45710528D01*
X127557851Y-45908423D01*
X127791317Y-46076186D01*
X127795112Y-46078195D01*
X127795113Y-46078196D01*
X127816869Y-46089715D01*
X128045392Y-46210712D01*
X128069699Y-46219607D01*
X128273217Y-46294084D01*
X128315373Y-46309511D01*
X128596264Y-46370755D01*
X128624841Y-46373004D01*
X128819282Y-46388307D01*
X128819291Y-46388307D01*
X128821739Y-46388500D01*
X128977271Y-46388500D01*
X128979407Y-46388354D01*
X128979418Y-46388354D01*
X129187548Y-46374165D01*
X129187554Y-46374164D01*
X129191825Y-46373873D01*
X129196020Y-46373004D01*
X129196022Y-46373004D01*
X129341437Y-46342890D01*
X129473342Y-46315574D01*
X129744343Y-46219607D01*
X129999812Y-46087750D01*
X130003313Y-46085289D01*
X130003317Y-46085287D01*
X130117418Y-46005095D01*
X130235023Y-45922441D01*
X130445622Y-45726740D01*
X130627713Y-45504268D01*
X130777927Y-45259142D01*
X130893483Y-44995898D01*
X130972244Y-44719406D01*
X131012751Y-44434784D01*
X131012845Y-44416951D01*
X131014235Y-44151583D01*
X131014235Y-44151576D01*
X131014257Y-44147297D01*
X130976732Y-43862266D01*
X130900871Y-43584964D01*
X130788077Y-43320524D01*
X130657400Y-43102178D01*
X130642643Y-43077521D01*
X130642640Y-43077517D01*
X130640439Y-43073839D01*
X130460687Y-42849472D01*
X130252149Y-42651577D01*
X130018683Y-42483814D01*
X129996843Y-42472250D01*
X129973654Y-42459972D01*
X129764608Y-42349288D01*
X129494627Y-42250489D01*
X129213736Y-42189245D01*
X129182685Y-42186801D01*
X128990718Y-42171693D01*
X128990709Y-42171693D01*
X128988261Y-42171500D01*
X128832729Y-42171500D01*
X128830593Y-42171646D01*
X128830582Y-42171646D01*
X128622452Y-42185835D01*
X128622446Y-42185836D01*
X128618175Y-42186127D01*
X128613980Y-42186996D01*
X128613978Y-42186996D01*
X128477416Y-42215277D01*
X128336658Y-42244426D01*
X128065657Y-42340393D01*
X127810188Y-42472250D01*
X127806687Y-42474711D01*
X127806683Y-42474713D01*
X127796594Y-42481804D01*
X127574977Y-42637559D01*
X127364378Y-42833260D01*
X127182287Y-43055732D01*
X127032073Y-43300858D01*
X126916517Y-43564102D01*
X126837756Y-43840594D01*
X126797249Y-44125216D01*
X126797227Y-44129505D01*
X126797226Y-44129512D01*
X126796263Y-44313421D01*
X126795743Y-44412703D01*
X119140000Y-44412703D01*
X119140000Y-39834500D01*
X119160002Y-39766379D01*
X119213658Y-39719886D01*
X119266000Y-39708500D01*
X128855633Y-39708500D01*
X128875018Y-39710000D01*
X128889851Y-39712310D01*
X128889855Y-39712310D01*
X128898724Y-39713691D01*
X128919183Y-39711016D01*
X128941008Y-39710072D01*
X129297937Y-39725656D01*
X129308886Y-39726614D01*
X129693379Y-39777233D01*
X129704205Y-39779142D01*
X130082822Y-39863080D01*
X130093439Y-39865925D01*
X130263702Y-39919608D01*
X130463302Y-39982542D01*
X130473615Y-39986295D01*
X130831932Y-40134715D01*
X130841876Y-40139353D01*
X131185867Y-40318423D01*
X131195387Y-40323919D01*
X131522468Y-40532292D01*
X131531472Y-40538597D01*
X131839138Y-40774678D01*
X131847558Y-40781743D01*
X132133483Y-41043744D01*
X132141256Y-41051517D01*
X132403257Y-41337442D01*
X132410322Y-41345862D01*
X132646403Y-41653528D01*
X132652708Y-41662532D01*
X132861081Y-41989613D01*
X132866576Y-41999132D01*
X132998193Y-42251964D01*
X133045643Y-42343115D01*
X133050285Y-42353068D01*
X133172895Y-42649074D01*
X133198702Y-42711377D01*
X133202458Y-42721698D01*
X133238680Y-42836579D01*
X133319075Y-43091561D01*
X133321920Y-43102178D01*
X133405858Y-43480795D01*
X133407767Y-43491621D01*
X133458386Y-43876114D01*
X133459344Y-43887063D01*
X133470521Y-44143049D01*
X133474603Y-44236552D01*
X133473223Y-44261429D01*
X133471309Y-44273724D01*
X133472473Y-44282626D01*
X133472473Y-44282628D01*
X133475436Y-44305283D01*
X133476500Y-44321621D01*
X133476500Y-139650633D01*
X133475000Y-139670018D01*
X133472690Y-139684851D01*
X133472690Y-139684855D01*
X133471309Y-139693724D01*
X133473984Y-139714183D01*
X133474928Y-139736008D01*
X133465693Y-139947512D01*
X133459344Y-140092936D01*
X133458386Y-140103886D01*
X133407767Y-140488379D01*
X133405858Y-140499205D01*
X133321920Y-140877822D01*
X133319075Y-140888439D01*
X133265392Y-141058702D01*
X133236713Y-141149661D01*
X133202461Y-141258294D01*
X133198705Y-141268615D01*
X133090109Y-141530790D01*
X133050289Y-141626923D01*
X133045647Y-141636876D01*
X132866577Y-141980867D01*
X132861081Y-141990387D01*
X132652708Y-142317468D01*
X132646403Y-142326472D01*
X132410322Y-142634138D01*
X132403257Y-142642558D01*
X132141256Y-142928483D01*
X132133483Y-142936256D01*
X131847558Y-143198257D01*
X131839138Y-143205322D01*
X131531472Y-143441403D01*
X131522468Y-143447708D01*
X131195387Y-143656081D01*
X131185868Y-143661576D01*
X130841876Y-143840647D01*
X130831932Y-143845285D01*
X130473615Y-143993705D01*
X130463302Y-143997458D01*
X130263702Y-144060392D01*
X130093439Y-144114075D01*
X130082822Y-144116920D01*
X129704205Y-144200858D01*
X129693379Y-144202767D01*
X129308886Y-144253386D01*
X129297937Y-144254344D01*
X128948446Y-144269603D01*
X128923571Y-144268223D01*
X128911276Y-144266309D01*
X128902374Y-144267473D01*
X128902372Y-144267473D01*
X128887323Y-144269441D01*
X128879714Y-144270436D01*
X128863379Y-144271500D01*
X80694367Y-144271500D01*
X80674982Y-144270000D01*
X80660149Y-144267690D01*
X80660145Y-144267690D01*
X80651276Y-144266309D01*
X80630817Y-144268984D01*
X80608992Y-144269928D01*
X80252063Y-144254344D01*
X80241114Y-144253386D01*
X79856621Y-144202767D01*
X79845795Y-144200858D01*
X79467178Y-144116920D01*
X79456561Y-144114075D01*
X79286298Y-144060392D01*
X79086698Y-143997458D01*
X79076385Y-143993705D01*
X78718068Y-143845285D01*
X78708124Y-143840647D01*
X78364132Y-143661576D01*
X78354613Y-143656081D01*
X78027532Y-143447708D01*
X78018528Y-143441403D01*
X77710862Y-143205322D01*
X77702442Y-143198257D01*
X77416517Y-142936256D01*
X77408744Y-142928483D01*
X77146743Y-142642558D01*
X77139678Y-142634138D01*
X76903597Y-142326472D01*
X76897292Y-142317468D01*
X76688919Y-141990387D01*
X76683423Y-141980867D01*
X76504353Y-141636876D01*
X76499711Y-141626923D01*
X76459892Y-141530790D01*
X76351295Y-141268615D01*
X76347539Y-141258294D01*
X76313288Y-141149661D01*
X76284608Y-141058702D01*
X76230925Y-140888439D01*
X76228080Y-140877822D01*
X76144142Y-140499205D01*
X76142233Y-140488379D01*
X76091614Y-140103886D01*
X76090656Y-140092936D01*
X76084307Y-139947512D01*
X76079294Y-139832703D01*
X78535743Y-139832703D01*
X78573268Y-140117734D01*
X78649129Y-140395036D01*
X78761923Y-140659476D01*
X78773693Y-140679142D01*
X78898955Y-140888439D01*
X78909561Y-140906161D01*
X79089313Y-141130528D01*
X79297851Y-141328423D01*
X79531317Y-141496186D01*
X79535112Y-141498195D01*
X79535113Y-141498196D01*
X79556869Y-141509715D01*
X79785392Y-141630712D01*
X80055373Y-141729511D01*
X80336264Y-141790755D01*
X80364841Y-141793004D01*
X80559282Y-141808307D01*
X80559291Y-141808307D01*
X80561739Y-141808500D01*
X80717271Y-141808500D01*
X80719407Y-141808354D01*
X80719418Y-141808354D01*
X80927548Y-141794165D01*
X80927554Y-141794164D01*
X80931825Y-141793873D01*
X80936020Y-141793004D01*
X80936022Y-141793004D01*
X81072583Y-141764724D01*
X81213342Y-141735574D01*
X81484343Y-141639607D01*
X81708551Y-141523885D01*
X100828436Y-141523885D01*
X100828737Y-141530033D01*
X100842963Y-141675122D01*
X100845346Y-141687157D01*
X100901753Y-141873984D01*
X100906428Y-141885326D01*
X100998048Y-142057640D01*
X101004835Y-142067856D01*
X101128183Y-142219096D01*
X101136827Y-142227800D01*
X101287199Y-142352199D01*
X101297367Y-142359058D01*
X101469043Y-142451882D01*
X101480343Y-142456632D01*
X101615129Y-142498356D01*
X101629231Y-142498562D01*
X101632436Y-142491806D01*
X101632436Y-142484808D01*
X102140436Y-142484808D01*
X102144409Y-142498339D01*
X102152204Y-142499459D01*
X102278778Y-142462207D01*
X102290146Y-142457614D01*
X102463102Y-142367195D01*
X102473364Y-142360479D01*
X102625456Y-142238193D01*
X102634222Y-142229609D01*
X102759672Y-142080105D01*
X102766596Y-142069994D01*
X102860620Y-141898963D01*
X102865448Y-141887699D01*
X102924461Y-141701666D01*
X102927009Y-141689677D01*
X102944043Y-141537814D01*
X102944436Y-141530790D01*
X102944436Y-141523885D01*
X106478436Y-141523885D01*
X106478737Y-141530033D01*
X106492963Y-141675122D01*
X106495346Y-141687157D01*
X106551753Y-141873984D01*
X106556428Y-141885326D01*
X106648048Y-142057640D01*
X106654835Y-142067856D01*
X106778183Y-142219096D01*
X106786827Y-142227800D01*
X106937199Y-142352199D01*
X106947367Y-142359058D01*
X107119043Y-142451882D01*
X107130343Y-142456632D01*
X107265129Y-142498356D01*
X107279231Y-142498562D01*
X107282436Y-142491806D01*
X107282436Y-142484808D01*
X107790436Y-142484808D01*
X107794409Y-142498339D01*
X107802204Y-142499459D01*
X107928778Y-142462207D01*
X107940146Y-142457614D01*
X108113102Y-142367195D01*
X108123364Y-142360479D01*
X108275456Y-142238193D01*
X108284222Y-142229609D01*
X108409672Y-142080105D01*
X108416596Y-142069994D01*
X108510620Y-141898963D01*
X108515448Y-141887699D01*
X108574461Y-141701666D01*
X108577009Y-141689677D01*
X108594043Y-141537814D01*
X108594436Y-141530790D01*
X108594436Y-141396876D01*
X108589961Y-141381637D01*
X108588571Y-141380432D01*
X108580888Y-141378761D01*
X107808551Y-141378761D01*
X107793312Y-141383236D01*
X107792107Y-141384626D01*
X107790436Y-141392309D01*
X107790436Y-142484808D01*
X107282436Y-142484808D01*
X107282436Y-141396876D01*
X107277961Y-141381637D01*
X107276571Y-141380432D01*
X107268888Y-141378761D01*
X106496551Y-141378761D01*
X106481312Y-141383236D01*
X106480107Y-141384626D01*
X106478436Y-141392309D01*
X106478436Y-141523885D01*
X102944436Y-141523885D01*
X102944436Y-141396876D01*
X102939961Y-141381637D01*
X102938571Y-141380432D01*
X102930888Y-141378761D01*
X102158551Y-141378761D01*
X102143312Y-141383236D01*
X102142107Y-141384626D01*
X102140436Y-141392309D01*
X102140436Y-142484808D01*
X101632436Y-142484808D01*
X101632436Y-141396876D01*
X101627961Y-141381637D01*
X101626571Y-141380432D01*
X101618888Y-141378761D01*
X100846551Y-141378761D01*
X100831312Y-141383236D01*
X100830107Y-141384626D01*
X100828436Y-141392309D01*
X100828436Y-141523885D01*
X81708551Y-141523885D01*
X81739812Y-141507750D01*
X81743313Y-141505289D01*
X81743317Y-141505287D01*
X81915000Y-141384626D01*
X81975023Y-141342441D01*
X82185622Y-141146740D01*
X82367713Y-140924268D01*
X82411603Y-140852646D01*
X100828436Y-140852646D01*
X100832911Y-140867885D01*
X100834301Y-140869090D01*
X100841984Y-140870761D01*
X101614321Y-140870761D01*
X101629560Y-140866286D01*
X101630765Y-140864896D01*
X101632436Y-140857213D01*
X101632436Y-139764714D01*
X101628463Y-139751183D01*
X101620668Y-139750063D01*
X101494094Y-139787315D01*
X101482726Y-139791908D01*
X101309770Y-139882327D01*
X101299508Y-139889043D01*
X101147416Y-140011329D01*
X101138650Y-140019913D01*
X101013200Y-140169417D01*
X101006276Y-140179528D01*
X100912252Y-140350559D01*
X100907424Y-140361823D01*
X100848411Y-140547856D01*
X100845863Y-140559845D01*
X100828829Y-140711708D01*
X100828436Y-140718732D01*
X100828436Y-140852646D01*
X82411603Y-140852646D01*
X82517927Y-140679142D01*
X82633483Y-140415898D01*
X82712244Y-140139406D01*
X82752751Y-139854784D01*
X82752845Y-139836951D01*
X82754235Y-139571583D01*
X82754235Y-139571576D01*
X82754257Y-139567297D01*
X82742195Y-139475673D01*
X82722646Y-139327186D01*
X82716732Y-139282266D01*
X82640871Y-139004964D01*
X82627424Y-138973437D01*
X82625566Y-138969081D01*
X101872840Y-138969081D01*
X101873576Y-138976084D01*
X101873576Y-138976085D01*
X101876197Y-139001016D01*
X101891800Y-139149473D01*
X101950254Y-139321182D01*
X102045298Y-139475673D01*
X102050229Y-139480708D01*
X102050231Y-139480711D01*
X102093316Y-139524708D01*
X102139495Y-139571863D01*
X102172865Y-139634527D01*
X102167059Y-139705286D01*
X102159278Y-139715456D01*
X102160264Y-139715924D01*
X102140436Y-139757716D01*
X102140436Y-140852646D01*
X102144911Y-140867885D01*
X102146301Y-140869090D01*
X102153984Y-140870761D01*
X102926321Y-140870761D01*
X102941560Y-140866286D01*
X102942765Y-140864896D01*
X102944436Y-140857213D01*
X102944436Y-140725637D01*
X102944135Y-140719489D01*
X102929909Y-140574400D01*
X102927526Y-140562365D01*
X102871119Y-140375538D01*
X102866444Y-140364196D01*
X102774824Y-140191882D01*
X102768037Y-140181666D01*
X102644689Y-140030426D01*
X102636046Y-140021723D01*
X102617458Y-140006346D01*
X102577719Y-139947512D01*
X102576097Y-139876534D01*
X102613106Y-139815947D01*
X102676997Y-139784986D01*
X102697773Y-139783261D01*
X102732046Y-139783261D01*
X102866691Y-139768158D01*
X102881058Y-139763155D01*
X103031330Y-139710825D01*
X103031333Y-139710823D01*
X103037988Y-139708506D01*
X103045958Y-139703526D01*
X103185838Y-139616120D01*
X103191812Y-139612387D01*
X103237218Y-139567297D01*
X103315521Y-139489539D01*
X103315524Y-139489535D01*
X103320518Y-139484576D01*
X103417709Y-139331427D01*
X103441419Y-139264841D01*
X103476193Y-139167186D01*
X103476194Y-139167181D01*
X103478555Y-139160551D01*
X103500032Y-138980441D01*
X103498838Y-138969081D01*
X105922840Y-138969081D01*
X105923576Y-138976084D01*
X105923576Y-138976085D01*
X105926197Y-139001016D01*
X105941800Y-139149473D01*
X106000254Y-139321182D01*
X106095298Y-139475673D01*
X106100229Y-139480708D01*
X106100231Y-139480711D01*
X106180863Y-139563049D01*
X106222207Y-139605268D01*
X106374674Y-139703526D01*
X106381294Y-139705935D01*
X106381297Y-139705937D01*
X106538502Y-139763155D01*
X106545121Y-139765564D01*
X106685205Y-139783261D01*
X106723279Y-139783261D01*
X106791400Y-139803263D01*
X106837893Y-139856919D01*
X106847997Y-139927193D01*
X106818503Y-139991773D01*
X106802233Y-140007456D01*
X106797413Y-140011331D01*
X106788650Y-140019913D01*
X106663200Y-140169417D01*
X106656276Y-140179528D01*
X106562252Y-140350559D01*
X106557424Y-140361823D01*
X106498411Y-140547856D01*
X106495863Y-140559845D01*
X106478829Y-140711708D01*
X106478436Y-140718732D01*
X106478436Y-140852646D01*
X106482911Y-140867885D01*
X106484301Y-140869090D01*
X106491984Y-140870761D01*
X107264321Y-140870761D01*
X107279560Y-140866286D01*
X107280765Y-140864896D01*
X107282436Y-140857213D01*
X107282436Y-140852646D01*
X107790436Y-140852646D01*
X107794911Y-140867885D01*
X107796301Y-140869090D01*
X107803984Y-140870761D01*
X108576321Y-140870761D01*
X108591560Y-140866286D01*
X108592765Y-140864896D01*
X108594436Y-140857213D01*
X108594436Y-140725637D01*
X108594135Y-140719489D01*
X108579909Y-140574400D01*
X108577526Y-140562365D01*
X108521119Y-140375538D01*
X108516444Y-140364196D01*
X108424824Y-140191882D01*
X108418037Y-140181666D01*
X108294689Y-140030426D01*
X108286045Y-140021722D01*
X108135673Y-139897323D01*
X108125505Y-139890464D01*
X108018677Y-139832703D01*
X126795743Y-139832703D01*
X126833268Y-140117734D01*
X126909129Y-140395036D01*
X127021923Y-140659476D01*
X127033693Y-140679142D01*
X127158955Y-140888439D01*
X127169561Y-140906161D01*
X127349313Y-141130528D01*
X127557851Y-141328423D01*
X127791317Y-141496186D01*
X127795112Y-141498195D01*
X127795113Y-141498196D01*
X127816869Y-141509715D01*
X128045392Y-141630712D01*
X128315373Y-141729511D01*
X128596264Y-141790755D01*
X128624841Y-141793004D01*
X128819282Y-141808307D01*
X128819291Y-141808307D01*
X128821739Y-141808500D01*
X128977271Y-141808500D01*
X128979407Y-141808354D01*
X128979418Y-141808354D01*
X129187548Y-141794165D01*
X129187554Y-141794164D01*
X129191825Y-141793873D01*
X129196020Y-141793004D01*
X129196022Y-141793004D01*
X129332583Y-141764724D01*
X129473342Y-141735574D01*
X129744343Y-141639607D01*
X129999812Y-141507750D01*
X130003313Y-141505289D01*
X130003317Y-141505287D01*
X130175000Y-141384626D01*
X130235023Y-141342441D01*
X130445622Y-141146740D01*
X130627713Y-140924268D01*
X130777927Y-140679142D01*
X130893483Y-140415898D01*
X130972244Y-140139406D01*
X131012751Y-139854784D01*
X131012845Y-139836951D01*
X131014235Y-139571583D01*
X131014235Y-139571576D01*
X131014257Y-139567297D01*
X131002195Y-139475673D01*
X130982646Y-139327186D01*
X130976732Y-139282266D01*
X130900871Y-139004964D01*
X130887424Y-138973437D01*
X130789763Y-138744476D01*
X130789761Y-138744472D01*
X130788077Y-138740524D01*
X130640439Y-138493839D01*
X130460687Y-138269472D01*
X130252149Y-138071577D01*
X130018683Y-137903814D01*
X129996843Y-137892250D01*
X129973654Y-137879972D01*
X129764608Y-137769288D01*
X129494627Y-137670489D01*
X129213736Y-137609245D01*
X129182685Y-137606801D01*
X128990718Y-137591693D01*
X128990709Y-137591693D01*
X128988261Y-137591500D01*
X128832729Y-137591500D01*
X128830593Y-137591646D01*
X128830582Y-137591646D01*
X128622452Y-137605835D01*
X128622446Y-137605836D01*
X128618175Y-137606127D01*
X128613980Y-137606996D01*
X128613978Y-137606996D01*
X128477416Y-137635277D01*
X128336658Y-137664426D01*
X128065657Y-137760393D01*
X127810188Y-137892250D01*
X127806687Y-137894711D01*
X127806683Y-137894713D01*
X127796594Y-137901804D01*
X127574977Y-138057559D01*
X127559892Y-138071577D01*
X127373534Y-138244752D01*
X127364378Y-138253260D01*
X127182287Y-138475732D01*
X127032073Y-138720858D01*
X126916517Y-138984102D01*
X126837756Y-139260594D01*
X126797249Y-139545216D01*
X126797227Y-139549505D01*
X126797226Y-139549512D01*
X126795765Y-139828417D01*
X126795743Y-139832703D01*
X108018677Y-139832703D01*
X107953829Y-139797640D01*
X107942529Y-139792890D01*
X107807743Y-139751166D01*
X107793641Y-139750960D01*
X107790436Y-139757716D01*
X107790436Y-140852646D01*
X107282436Y-140852646D01*
X107282436Y-139764714D01*
X107274379Y-139737274D01*
X107249189Y-139698079D01*
X107249188Y-139627083D01*
X107281301Y-139573173D01*
X107365521Y-139489539D01*
X107365524Y-139489535D01*
X107370518Y-139484576D01*
X107467709Y-139331427D01*
X107491419Y-139264841D01*
X107526193Y-139167186D01*
X107526194Y-139167181D01*
X107528555Y-139160551D01*
X107550032Y-138980441D01*
X107531072Y-138800049D01*
X107472618Y-138628340D01*
X107434186Y-138565870D01*
X107381270Y-138479856D01*
X107381268Y-138479853D01*
X107377574Y-138473849D01*
X107372643Y-138468814D01*
X107372641Y-138468811D01*
X107255593Y-138349286D01*
X107255592Y-138349285D01*
X107250665Y-138344254D01*
X107098198Y-138245996D01*
X107091578Y-138243587D01*
X107091575Y-138243585D01*
X106934370Y-138186367D01*
X106934369Y-138186367D01*
X106927751Y-138183958D01*
X106787667Y-138166261D01*
X106690826Y-138166261D01*
X106556181Y-138181364D01*
X106549528Y-138183681D01*
X106549527Y-138183681D01*
X106391542Y-138238697D01*
X106391539Y-138238699D01*
X106384884Y-138241016D01*
X106378905Y-138244752D01*
X106370803Y-138249815D01*
X106231060Y-138337135D01*
X106226064Y-138342096D01*
X106226063Y-138342097D01*
X106107351Y-138459983D01*
X106107348Y-138459987D01*
X106102354Y-138464946D01*
X106098580Y-138470892D01*
X106098579Y-138470894D01*
X106096704Y-138473849D01*
X106005163Y-138618095D01*
X106002798Y-138624737D01*
X105946679Y-138782336D01*
X105946678Y-138782341D01*
X105944317Y-138788971D01*
X105922840Y-138969081D01*
X103498838Y-138969081D01*
X103481072Y-138800049D01*
X103422618Y-138628340D01*
X103384186Y-138565870D01*
X103331270Y-138479856D01*
X103331268Y-138479853D01*
X103327574Y-138473849D01*
X103322643Y-138468814D01*
X103322641Y-138468811D01*
X103205593Y-138349286D01*
X103205592Y-138349285D01*
X103200665Y-138344254D01*
X103048198Y-138245996D01*
X103041578Y-138243587D01*
X103041575Y-138243585D01*
X102884370Y-138186367D01*
X102884369Y-138186367D01*
X102877751Y-138183958D01*
X102737667Y-138166261D01*
X102640826Y-138166261D01*
X102506181Y-138181364D01*
X102499528Y-138183681D01*
X102499527Y-138183681D01*
X102341542Y-138238697D01*
X102341539Y-138238699D01*
X102334884Y-138241016D01*
X102328905Y-138244752D01*
X102320803Y-138249815D01*
X102181060Y-138337135D01*
X102176064Y-138342096D01*
X102176063Y-138342097D01*
X102057351Y-138459983D01*
X102057348Y-138459987D01*
X102052354Y-138464946D01*
X102048580Y-138470892D01*
X102048579Y-138470894D01*
X102046704Y-138473849D01*
X101955163Y-138618095D01*
X101952798Y-138624737D01*
X101896679Y-138782336D01*
X101896678Y-138782341D01*
X101894317Y-138788971D01*
X101872840Y-138969081D01*
X82625566Y-138969081D01*
X82529763Y-138744476D01*
X82529761Y-138744472D01*
X82528077Y-138740524D01*
X82380439Y-138493839D01*
X82200687Y-138269472D01*
X81992149Y-138071577D01*
X81758683Y-137903814D01*
X81736843Y-137892250D01*
X81713654Y-137879972D01*
X81504608Y-137769288D01*
X81234627Y-137670489D01*
X80953736Y-137609245D01*
X80922685Y-137606801D01*
X80730718Y-137591693D01*
X80730709Y-137591693D01*
X80728261Y-137591500D01*
X80572729Y-137591500D01*
X80570593Y-137591646D01*
X80570582Y-137591646D01*
X80362452Y-137605835D01*
X80362446Y-137605836D01*
X80358175Y-137606127D01*
X80353980Y-137606996D01*
X80353978Y-137606996D01*
X80217416Y-137635277D01*
X80076658Y-137664426D01*
X79805657Y-137760393D01*
X79550188Y-137892250D01*
X79546687Y-137894711D01*
X79546683Y-137894713D01*
X79536594Y-137901804D01*
X79314977Y-138057559D01*
X79299892Y-138071577D01*
X79113534Y-138244752D01*
X79104378Y-138253260D01*
X78922287Y-138475732D01*
X78772073Y-138720858D01*
X78656517Y-138984102D01*
X78577756Y-139260594D01*
X78537249Y-139545216D01*
X78537227Y-139549505D01*
X78537226Y-139549512D01*
X78535765Y-139828417D01*
X78535743Y-139832703D01*
X76079294Y-139832703D01*
X76075561Y-139747206D01*
X76077188Y-139720805D01*
X76077769Y-139717352D01*
X76077770Y-139717345D01*
X76078576Y-139712552D01*
X76078729Y-139700000D01*
X76074773Y-139672376D01*
X76073500Y-139654514D01*
X76073500Y-120629152D01*
X97761594Y-120629152D01*
X97762340Y-120637043D01*
X97765941Y-120675138D01*
X97766500Y-120686996D01*
X97766500Y-126917944D01*
X97765941Y-126929800D01*
X97764212Y-126937537D01*
X97764461Y-126945459D01*
X97766438Y-127008369D01*
X97766500Y-127012327D01*
X97766500Y-127041432D01*
X97767056Y-127045832D01*
X97767988Y-127057664D01*
X97769438Y-127103831D01*
X97773316Y-127117177D01*
X97775419Y-127124416D01*
X97779430Y-127143782D01*
X97782118Y-127165064D01*
X97785034Y-127172429D01*
X97785035Y-127172433D01*
X97799126Y-127208021D01*
X97802965Y-127219231D01*
X97815855Y-127263600D01*
X97826775Y-127282065D01*
X97835466Y-127299805D01*
X97843365Y-127319756D01*
X97870516Y-127357126D01*
X97877033Y-127367048D01*
X97896507Y-127399977D01*
X97896510Y-127399981D01*
X97900547Y-127406807D01*
X97915711Y-127421971D01*
X97928551Y-127437004D01*
X97941159Y-127454357D01*
X97976752Y-127483802D01*
X97985532Y-127491792D01*
X99806345Y-129312605D01*
X99814335Y-129321385D01*
X99818584Y-129328080D01*
X99824362Y-129333506D01*
X99824363Y-129333507D01*
X99870257Y-129376604D01*
X99873099Y-129379359D01*
X99893667Y-129399927D01*
X99897170Y-129402644D01*
X99906195Y-129410352D01*
X99939867Y-129441972D01*
X99946812Y-129445790D01*
X99946816Y-129445793D01*
X99958653Y-129452300D01*
X99975181Y-129463156D01*
X99992131Y-129476304D01*
X100034545Y-129494659D01*
X100045183Y-129499871D01*
X100085663Y-129522124D01*
X100093340Y-129524095D01*
X100093345Y-129524097D01*
X100106426Y-129527455D01*
X100125134Y-129533860D01*
X100144823Y-129542380D01*
X100152649Y-129543619D01*
X100152651Y-129543620D01*
X100177159Y-129547501D01*
X100190459Y-129549608D01*
X100202070Y-129552012D01*
X100233107Y-129559981D01*
X100239135Y-129561529D01*
X100239136Y-129561529D01*
X100246812Y-129563500D01*
X100268258Y-129563500D01*
X100287968Y-129565051D01*
X100301322Y-129567166D01*
X100301323Y-129567166D01*
X100309152Y-129568406D01*
X100355141Y-129564059D01*
X100366996Y-129563500D01*
X113975050Y-129563500D01*
X114043171Y-129583502D01*
X114064145Y-129600405D01*
X116476750Y-132013010D01*
X116510776Y-132075322D01*
X116513655Y-132102105D01*
X116513655Y-134823902D01*
X116493653Y-134892023D01*
X116481291Y-134908212D01*
X116433115Y-134961717D01*
X116337628Y-135127105D01*
X116278613Y-135308733D01*
X116258651Y-135498661D01*
X116278613Y-135688589D01*
X116337628Y-135870217D01*
X116433115Y-136035605D01*
X116560902Y-136177527D01*
X116715403Y-136289779D01*
X116721431Y-136292463D01*
X116721433Y-136292464D01*
X116883836Y-136364770D01*
X116889867Y-136367455D01*
X116983267Y-136387308D01*
X117070211Y-136405789D01*
X117070216Y-136405789D01*
X117076668Y-136407161D01*
X117267642Y-136407161D01*
X117274094Y-136405789D01*
X117274099Y-136405789D01*
X117361043Y-136387308D01*
X117454443Y-136367455D01*
X117460474Y-136364770D01*
X117622877Y-136292464D01*
X117622879Y-136292463D01*
X117628907Y-136289779D01*
X117783408Y-136177527D01*
X117911195Y-136035605D01*
X118006682Y-135870217D01*
X118065697Y-135688589D01*
X118085659Y-135498661D01*
X118065697Y-135308733D01*
X118006682Y-135127105D01*
X117911195Y-134961717D01*
X117863019Y-134908212D01*
X117832301Y-134844205D01*
X117830655Y-134823902D01*
X117830655Y-131859215D01*
X117831214Y-131847358D01*
X117832944Y-131839618D01*
X117830717Y-131768754D01*
X117830655Y-131764796D01*
X117830655Y-131735723D01*
X117830102Y-131731344D01*
X117829169Y-131719501D01*
X117827967Y-131681244D01*
X117827967Y-131681243D01*
X117827718Y-131673324D01*
X117821734Y-131652726D01*
X117817726Y-131633373D01*
X117817287Y-131629898D01*
X117815037Y-131612091D01*
X117798030Y-131569137D01*
X117794184Y-131557902D01*
X117783513Y-131521171D01*
X117783512Y-131521168D01*
X117781300Y-131513555D01*
X117770380Y-131495090D01*
X117761689Y-131477350D01*
X117753790Y-131457399D01*
X117726637Y-131420026D01*
X117720122Y-131410107D01*
X117700648Y-131377178D01*
X117700645Y-131377174D01*
X117696608Y-131370348D01*
X117681444Y-131355184D01*
X117668603Y-131340150D01*
X117660656Y-131329212D01*
X117655996Y-131322798D01*
X117620402Y-131293352D01*
X117611623Y-131285363D01*
X115508324Y-129182064D01*
X131251536Y-129182064D01*
X131280654Y-129374599D01*
X131282857Y-129380585D01*
X131282858Y-129380591D01*
X131345689Y-129551360D01*
X131345691Y-129551365D01*
X131347892Y-129557346D01*
X131450503Y-129722840D01*
X131584295Y-129864322D01*
X131743804Y-129976011D01*
X131749667Y-129978548D01*
X131916654Y-130050810D01*
X131916658Y-130050811D01*
X131922513Y-130053345D01*
X131928760Y-130054650D01*
X131928763Y-130054651D01*
X132108386Y-130092176D01*
X132108391Y-130092177D01*
X132113122Y-130093165D01*
X132119514Y-130093500D01*
X132262492Y-130093500D01*
X132331780Y-130086462D01*
X132401207Y-130079410D01*
X132401208Y-130079410D01*
X132407556Y-130078765D01*
X132488672Y-130053345D01*
X132587280Y-130022444D01*
X132587285Y-130022442D01*
X132593370Y-130020535D01*
X132680304Y-129972346D01*
X132758100Y-129929223D01*
X132758103Y-129929221D01*
X132763679Y-129926130D01*
X132768520Y-129921981D01*
X132768524Y-129921978D01*
X132906684Y-129803560D01*
X132911527Y-129799409D01*
X133030875Y-129645547D01*
X133069444Y-129567166D01*
X133114029Y-129476556D01*
X133116847Y-129470829D01*
X133118457Y-129464649D01*
X133164321Y-129288575D01*
X133164321Y-129288572D01*
X133165931Y-129282393D01*
X133176122Y-129087936D01*
X133147004Y-128895401D01*
X133144801Y-128889415D01*
X133144800Y-128889409D01*
X133081969Y-128718640D01*
X133081967Y-128718635D01*
X133079766Y-128712654D01*
X132977155Y-128547160D01*
X132850175Y-128412881D01*
X132847748Y-128410315D01*
X132843363Y-128405678D01*
X132768017Y-128352920D01*
X132689088Y-128297654D01*
X132683854Y-128293989D01*
X132600658Y-128257987D01*
X132511004Y-128219190D01*
X132511000Y-128219189D01*
X132505145Y-128216655D01*
X132498898Y-128215350D01*
X132498895Y-128215349D01*
X132319272Y-128177824D01*
X132319267Y-128177823D01*
X132314536Y-128176835D01*
X132308144Y-128176500D01*
X132165166Y-128176500D01*
X132095878Y-128183538D01*
X132026451Y-128190590D01*
X132026450Y-128190590D01*
X132020102Y-128191235D01*
X131963768Y-128208889D01*
X131840378Y-128247556D01*
X131840373Y-128247558D01*
X131834288Y-128249465D01*
X131764994Y-128287876D01*
X131669558Y-128340777D01*
X131669555Y-128340779D01*
X131663979Y-128343870D01*
X131659138Y-128348019D01*
X131659134Y-128348022D01*
X131559527Y-128433396D01*
X131516131Y-128470591D01*
X131512220Y-128475633D01*
X131512219Y-128475634D01*
X131460332Y-128542526D01*
X131396783Y-128624453D01*
X131393967Y-128630176D01*
X131393965Y-128630179D01*
X131350437Y-128718640D01*
X131310811Y-128799171D01*
X131309202Y-128805349D01*
X131309201Y-128805351D01*
X131287306Y-128889409D01*
X131261727Y-128987607D01*
X131251536Y-129182064D01*
X115508324Y-129182064D01*
X114823655Y-128497395D01*
X114815665Y-128488615D01*
X114815663Y-128488613D01*
X114811416Y-128481920D01*
X114794932Y-128466440D01*
X114759743Y-128433396D01*
X114756901Y-128430641D01*
X114736333Y-128410073D01*
X114732826Y-128407353D01*
X114723804Y-128399647D01*
X114695913Y-128373456D01*
X114690133Y-128368028D01*
X114683181Y-128364206D01*
X114671342Y-128357697D01*
X114654818Y-128346843D01*
X114644132Y-128338555D01*
X114637868Y-128333696D01*
X114630596Y-128330549D01*
X114630594Y-128330548D01*
X114595465Y-128315346D01*
X114584805Y-128310124D01*
X114551284Y-128291695D01*
X114551282Y-128291694D01*
X114544337Y-128287876D01*
X114523559Y-128282541D01*
X114504869Y-128276142D01*
X114485176Y-128267620D01*
X114439552Y-128260394D01*
X114427929Y-128257987D01*
X114394736Y-128249465D01*
X114383188Y-128246500D01*
X114361741Y-128246500D01*
X114342031Y-128244949D01*
X114328677Y-128242834D01*
X114320848Y-128241594D01*
X114274859Y-128245941D01*
X114263004Y-128246500D01*
X100654949Y-128246500D01*
X100586828Y-128226498D01*
X100565854Y-128209595D01*
X100048269Y-127692009D01*
X99120405Y-126764145D01*
X99086379Y-126701833D01*
X99083500Y-126675050D01*
X99083500Y-126365000D01*
X100051496Y-126365000D01*
X100071458Y-126554928D01*
X100130473Y-126736556D01*
X100133776Y-126742278D01*
X100133777Y-126742279D01*
X100163850Y-126794366D01*
X100225960Y-126901944D01*
X100230378Y-126906851D01*
X100230379Y-126906852D01*
X100347993Y-127037476D01*
X100353747Y-127043866D01*
X100446761Y-127111445D01*
X100477730Y-127133945D01*
X100508248Y-127156118D01*
X100514276Y-127158802D01*
X100514278Y-127158803D01*
X100676681Y-127231109D01*
X100682712Y-127233794D01*
X100689167Y-127235166D01*
X100689176Y-127235169D01*
X100745772Y-127247199D01*
X100808669Y-127281350D01*
X101143175Y-127615856D01*
X101155561Y-127630268D01*
X101164094Y-127641863D01*
X101164099Y-127641868D01*
X101168437Y-127647763D01*
X101174015Y-127652502D01*
X101174018Y-127652505D01*
X101208713Y-127681980D01*
X101216229Y-127688910D01*
X101221924Y-127694605D01*
X101224806Y-127696885D01*
X101244196Y-127712226D01*
X101247600Y-127715017D01*
X101297648Y-127757536D01*
X101303230Y-127762278D01*
X101309746Y-127765606D01*
X101314795Y-127768973D01*
X101319924Y-127772140D01*
X101325661Y-127776679D01*
X101391820Y-127807600D01*
X101395714Y-127809503D01*
X101460753Y-127842714D01*
X101467861Y-127844453D01*
X101473504Y-127846552D01*
X101479267Y-127848469D01*
X101485895Y-127851567D01*
X101493057Y-127853057D01*
X101493058Y-127853057D01*
X101557357Y-127866431D01*
X101561641Y-127867401D01*
X101632555Y-127884753D01*
X101638157Y-127885101D01*
X101638160Y-127885101D01*
X101643709Y-127885445D01*
X101643707Y-127885481D01*
X101647700Y-127885720D01*
X101651892Y-127886094D01*
X101659060Y-127887585D01*
X101736465Y-127885491D01*
X101739873Y-127885445D01*
X118844844Y-127885445D01*
X118912965Y-127905447D01*
X118918906Y-127909509D01*
X118926270Y-127914860D01*
X118932298Y-127917544D01*
X118932300Y-127917545D01*
X119094703Y-127989851D01*
X119100734Y-127992536D01*
X119194135Y-128012389D01*
X119281078Y-128030870D01*
X119281083Y-128030870D01*
X119287535Y-128032242D01*
X119478509Y-128032242D01*
X119484961Y-128030870D01*
X119484966Y-128030870D01*
X119571909Y-128012389D01*
X119665310Y-127992536D01*
X119671341Y-127989851D01*
X119833744Y-127917545D01*
X119833746Y-127917544D01*
X119839774Y-127914860D01*
X119994275Y-127802608D01*
X120096649Y-127688910D01*
X120117643Y-127665594D01*
X120117644Y-127665593D01*
X120122062Y-127660686D01*
X120217549Y-127495298D01*
X120276564Y-127313670D01*
X120278990Y-127290593D01*
X120295836Y-127130307D01*
X120296526Y-127123742D01*
X120293600Y-127095906D01*
X120277254Y-126940377D01*
X120277254Y-126940375D01*
X120276564Y-126933814D01*
X120217549Y-126752186D01*
X120203282Y-126727474D01*
X120125363Y-126592516D01*
X120122062Y-126586798D01*
X119994275Y-126444876D01*
X119839774Y-126332624D01*
X119833746Y-126329940D01*
X119833744Y-126329939D01*
X119671341Y-126257633D01*
X119671340Y-126257633D01*
X119665310Y-126254948D01*
X119571909Y-126235095D01*
X119484966Y-126216614D01*
X119484961Y-126216614D01*
X119478509Y-126215242D01*
X119287535Y-126215242D01*
X119281083Y-126216614D01*
X119281078Y-126216614D01*
X119194135Y-126235095D01*
X119100734Y-126254948D01*
X119094704Y-126257633D01*
X119094703Y-126257633D01*
X118932300Y-126329939D01*
X118932298Y-126329940D01*
X118926270Y-126332624D01*
X118920929Y-126336504D01*
X118920928Y-126336505D01*
X118910088Y-126344381D01*
X118843221Y-126368239D01*
X118836027Y-126368445D01*
X102093316Y-126368445D01*
X102025195Y-126348443D01*
X102004221Y-126331540D01*
X101885125Y-126212444D01*
X101866508Y-126182064D01*
X131251536Y-126182064D01*
X131280654Y-126374599D01*
X131282857Y-126380585D01*
X131282858Y-126380591D01*
X131345689Y-126551360D01*
X131345691Y-126551365D01*
X131347892Y-126557346D01*
X131450503Y-126722840D01*
X131584295Y-126864322D01*
X131743804Y-126976011D01*
X131749667Y-126978548D01*
X131916654Y-127050810D01*
X131916658Y-127050811D01*
X131922513Y-127053345D01*
X131928760Y-127054650D01*
X131928763Y-127054651D01*
X132108386Y-127092176D01*
X132108391Y-127092177D01*
X132113122Y-127093165D01*
X132119514Y-127093500D01*
X132262492Y-127093500D01*
X132331780Y-127086462D01*
X132401207Y-127079410D01*
X132401208Y-127079410D01*
X132407556Y-127078765D01*
X132488672Y-127053345D01*
X132587280Y-127022444D01*
X132587285Y-127022442D01*
X132593370Y-127020535D01*
X132680304Y-126972346D01*
X132758100Y-126929223D01*
X132758103Y-126929221D01*
X132763679Y-126926130D01*
X132768520Y-126921981D01*
X132768524Y-126921978D01*
X132906684Y-126803560D01*
X132911527Y-126799409D01*
X133030875Y-126645547D01*
X133071608Y-126562768D01*
X133114029Y-126476556D01*
X133116847Y-126470829D01*
X133124619Y-126440993D01*
X133164321Y-126288575D01*
X133164321Y-126288572D01*
X133165931Y-126282393D01*
X133171189Y-126182064D01*
X133175788Y-126094317D01*
X133175788Y-126094313D01*
X133176122Y-126087936D01*
X133147004Y-125895401D01*
X133144801Y-125889415D01*
X133144800Y-125889409D01*
X133081969Y-125718640D01*
X133081967Y-125718635D01*
X133079766Y-125712654D01*
X132996130Y-125577763D01*
X132980517Y-125552582D01*
X132980516Y-125552581D01*
X132977155Y-125547160D01*
X132843363Y-125405678D01*
X132683854Y-125293989D01*
X132635842Y-125273212D01*
X132511004Y-125219190D01*
X132511000Y-125219189D01*
X132505145Y-125216655D01*
X132498898Y-125215350D01*
X132498895Y-125215349D01*
X132319272Y-125177824D01*
X132319267Y-125177823D01*
X132314536Y-125176835D01*
X132308144Y-125176500D01*
X132165166Y-125176500D01*
X132095878Y-125183538D01*
X132026451Y-125190590D01*
X132026450Y-125190590D01*
X132020102Y-125191235D01*
X131963768Y-125208889D01*
X131840378Y-125247556D01*
X131840373Y-125247558D01*
X131834288Y-125249465D01*
X131758542Y-125291452D01*
X131669558Y-125340777D01*
X131669555Y-125340779D01*
X131663979Y-125343870D01*
X131659138Y-125348019D01*
X131659134Y-125348022D01*
X131520974Y-125466440D01*
X131516131Y-125470591D01*
X131396783Y-125624453D01*
X131393967Y-125630176D01*
X131393965Y-125630179D01*
X131350437Y-125718640D01*
X131310811Y-125799171D01*
X131309202Y-125805349D01*
X131309201Y-125805351D01*
X131287306Y-125889409D01*
X131261727Y-125987607D01*
X131261393Y-125993986D01*
X131252573Y-126162285D01*
X131251536Y-126182064D01*
X101866508Y-126182064D01*
X101854387Y-126162285D01*
X101830230Y-126087936D01*
X101799527Y-125993444D01*
X101704040Y-125828056D01*
X101683597Y-125805351D01*
X101580675Y-125691045D01*
X101580674Y-125691044D01*
X101576253Y-125686134D01*
X101421752Y-125573882D01*
X101415724Y-125571198D01*
X101415722Y-125571197D01*
X101253319Y-125498891D01*
X101253318Y-125498891D01*
X101247288Y-125496206D01*
X101126780Y-125470591D01*
X101066944Y-125457872D01*
X101066939Y-125457872D01*
X101060487Y-125456500D01*
X100869513Y-125456500D01*
X100863061Y-125457872D01*
X100863056Y-125457872D01*
X100803220Y-125470591D01*
X100682712Y-125496206D01*
X100676682Y-125498891D01*
X100676681Y-125498891D01*
X100514278Y-125571197D01*
X100514276Y-125571198D01*
X100508248Y-125573882D01*
X100353747Y-125686134D01*
X100349326Y-125691044D01*
X100349325Y-125691045D01*
X100246404Y-125805351D01*
X100225960Y-125828056D01*
X100130473Y-125993444D01*
X100071458Y-126175072D01*
X100070768Y-126181633D01*
X100070768Y-126181635D01*
X100060849Y-126276014D01*
X100051496Y-126365000D01*
X99083500Y-126365000D01*
X99083500Y-120974950D01*
X99103502Y-120906829D01*
X99120405Y-120885855D01*
X99930855Y-120075405D01*
X99993167Y-120041379D01*
X100019950Y-120038500D01*
X102824776Y-120038500D01*
X102892897Y-120058502D01*
X102898834Y-120062562D01*
X102916511Y-120075405D01*
X103011422Y-120144362D01*
X103048248Y-120171118D01*
X103054276Y-120173802D01*
X103054278Y-120173803D01*
X103216681Y-120246109D01*
X103222712Y-120248794D01*
X103316112Y-120268647D01*
X103403056Y-120287128D01*
X103403061Y-120287128D01*
X103409513Y-120288500D01*
X103600487Y-120288500D01*
X103606939Y-120287128D01*
X103606944Y-120287128D01*
X103693888Y-120268647D01*
X103787288Y-120248794D01*
X103793319Y-120246109D01*
X103955722Y-120173803D01*
X103955724Y-120173802D01*
X103961752Y-120171118D01*
X104012377Y-120134337D01*
X104093489Y-120075405D01*
X104116253Y-120058866D01*
X104195247Y-119971134D01*
X104239621Y-119921852D01*
X104239622Y-119921851D01*
X104244040Y-119916944D01*
X104322409Y-119781206D01*
X104336223Y-119757279D01*
X104336224Y-119757278D01*
X104339527Y-119751556D01*
X104398542Y-119569928D01*
X104418504Y-119380000D01*
X104398542Y-119190072D01*
X104339527Y-119008444D01*
X104244040Y-118843056D01*
X104196692Y-118790470D01*
X104120675Y-118706045D01*
X104120674Y-118706044D01*
X104116253Y-118701134D01*
X103961752Y-118588882D01*
X103955724Y-118586198D01*
X103955722Y-118586197D01*
X103793319Y-118513891D01*
X103793318Y-118513891D01*
X103787288Y-118511206D01*
X103693887Y-118491353D01*
X103606944Y-118472872D01*
X103606939Y-118472872D01*
X103600487Y-118471500D01*
X103409513Y-118471500D01*
X103403061Y-118472872D01*
X103403056Y-118472872D01*
X103316113Y-118491353D01*
X103222712Y-118511206D01*
X103216682Y-118513891D01*
X103216681Y-118513891D01*
X103054278Y-118586197D01*
X103054276Y-118586198D01*
X103048248Y-118588882D01*
X102899092Y-118697251D01*
X102898837Y-118697436D01*
X102831969Y-118721294D01*
X102824776Y-118721500D01*
X99777056Y-118721500D01*
X99765200Y-118720941D01*
X99765197Y-118720941D01*
X99757463Y-118719212D01*
X99702446Y-118720941D01*
X99686631Y-118721438D01*
X99682673Y-118721500D01*
X99653568Y-118721500D01*
X99649168Y-118722056D01*
X99637336Y-118722988D01*
X99591169Y-118724438D01*
X99570579Y-118730420D01*
X99551218Y-118734430D01*
X99544230Y-118735312D01*
X99537796Y-118736125D01*
X99537795Y-118736125D01*
X99529936Y-118737118D01*
X99522571Y-118740034D01*
X99522567Y-118740035D01*
X99486979Y-118754126D01*
X99475769Y-118757965D01*
X99431400Y-118770855D01*
X99412943Y-118781771D01*
X99395193Y-118790466D01*
X99375244Y-118798365D01*
X99368833Y-118803023D01*
X99368831Y-118803024D01*
X99337864Y-118825523D01*
X99327946Y-118832038D01*
X99288193Y-118855548D01*
X99273032Y-118870709D01*
X99258000Y-118883548D01*
X99240643Y-118896159D01*
X99235590Y-118902267D01*
X99211194Y-118931757D01*
X99203204Y-118940537D01*
X98017396Y-120126345D01*
X98008613Y-120134337D01*
X98001920Y-120138584D01*
X97996494Y-120144362D01*
X97953395Y-120190258D01*
X97950640Y-120193100D01*
X97930073Y-120213667D01*
X97927356Y-120217170D01*
X97919648Y-120226195D01*
X97888028Y-120259867D01*
X97884207Y-120266818D01*
X97884206Y-120266819D01*
X97877697Y-120278658D01*
X97866843Y-120295182D01*
X97859018Y-120305271D01*
X97853696Y-120312132D01*
X97850549Y-120319404D01*
X97850548Y-120319406D01*
X97835346Y-120354535D01*
X97830124Y-120365195D01*
X97807876Y-120405663D01*
X97802541Y-120426441D01*
X97796142Y-120445131D01*
X97787620Y-120464824D01*
X97786380Y-120472655D01*
X97780394Y-120510448D01*
X97777987Y-120522071D01*
X97766500Y-120566812D01*
X97766500Y-120588259D01*
X97764949Y-120607969D01*
X97761594Y-120629152D01*
X76073500Y-120629152D01*
X76073500Y-113030000D01*
X119101496Y-113030000D01*
X119121458Y-113219928D01*
X119180473Y-113401556D01*
X119183776Y-113407278D01*
X119183777Y-113407279D01*
X119239619Y-113503999D01*
X119256500Y-113566999D01*
X119256500Y-117407930D01*
X119255067Y-117426880D01*
X119251801Y-117448349D01*
X119252394Y-117455641D01*
X119252394Y-117455644D01*
X119256085Y-117501018D01*
X119256500Y-117511233D01*
X119256500Y-117519293D01*
X119256925Y-117522937D01*
X119259789Y-117547507D01*
X119260222Y-117551882D01*
X119266140Y-117624637D01*
X119268396Y-117631601D01*
X119269587Y-117637560D01*
X119270971Y-117643415D01*
X119271818Y-117650681D01*
X119296735Y-117719327D01*
X119298152Y-117723455D01*
X119309688Y-117759063D01*
X119320649Y-117792899D01*
X119324445Y-117799154D01*
X119326951Y-117804628D01*
X119329670Y-117810058D01*
X119332167Y-117816937D01*
X119336180Y-117823057D01*
X119336180Y-117823058D01*
X119372186Y-117877976D01*
X119374523Y-117881680D01*
X119412405Y-117944107D01*
X119416121Y-117948315D01*
X119416122Y-117948316D01*
X119419803Y-117952484D01*
X119419776Y-117952508D01*
X119422429Y-117955500D01*
X119425132Y-117958733D01*
X119429144Y-117964852D01*
X119434456Y-117969884D01*
X119485383Y-118018128D01*
X119487825Y-118020506D01*
X122269875Y-120802556D01*
X122300613Y-120852714D01*
X122355473Y-121021556D01*
X122450960Y-121186944D01*
X122578747Y-121328866D01*
X122733248Y-121441118D01*
X122739276Y-121443802D01*
X122739278Y-121443803D01*
X122901681Y-121516109D01*
X122907712Y-121518794D01*
X123001113Y-121538647D01*
X123088056Y-121557128D01*
X123088061Y-121557128D01*
X123094513Y-121558500D01*
X123285487Y-121558500D01*
X123291939Y-121557128D01*
X123291944Y-121557128D01*
X123378887Y-121538647D01*
X123472288Y-121518794D01*
X123478319Y-121516109D01*
X123640722Y-121443803D01*
X123640724Y-121443802D01*
X123646752Y-121441118D01*
X123801253Y-121328866D01*
X123929040Y-121186944D01*
X124024527Y-121021556D01*
X124083542Y-120839928D01*
X124103504Y-120650000D01*
X124083542Y-120460072D01*
X124024527Y-120278444D01*
X124010465Y-120254087D01*
X123985507Y-120210859D01*
X123929040Y-120113056D01*
X123883744Y-120062749D01*
X123805675Y-119976045D01*
X123805674Y-119976044D01*
X123801253Y-119971134D01*
X123646752Y-119858882D01*
X123640724Y-119856198D01*
X123640722Y-119856197D01*
X123478319Y-119783891D01*
X123478318Y-119783891D01*
X123472288Y-119781206D01*
X123465833Y-119779834D01*
X123465824Y-119779831D01*
X123409228Y-119767801D01*
X123346331Y-119733650D01*
X120810405Y-117197724D01*
X120776379Y-117135412D01*
X120773500Y-117108629D01*
X120773500Y-116834580D01*
X124891252Y-116834580D01*
X124915977Y-116952421D01*
X124919037Y-116962617D01*
X124999763Y-117167029D01*
X125004494Y-117176561D01*
X125118516Y-117364462D01*
X125124780Y-117373052D01*
X125268827Y-117539052D01*
X125276458Y-117546472D01*
X125446411Y-117685826D01*
X125455178Y-117691850D01*
X125646182Y-117800576D01*
X125655846Y-117805041D01*
X125862441Y-117880031D01*
X125872708Y-117882802D01*
X126090155Y-117922123D01*
X126098384Y-117923056D01*
X126102876Y-117923268D01*
X126115624Y-117919525D01*
X126116829Y-117918135D01*
X126118500Y-117910452D01*
X126118500Y-117901970D01*
X126626500Y-117901970D01*
X126630810Y-117916648D01*
X126642693Y-117918711D01*
X126746825Y-117909876D01*
X126757297Y-117908086D01*
X126970035Y-117852870D01*
X126980075Y-117849335D01*
X127180470Y-117759063D01*
X127189756Y-117753894D01*
X127372075Y-117631150D01*
X127380370Y-117624481D01*
X127539400Y-117472772D01*
X127546441Y-117464814D01*
X127677641Y-117288475D01*
X127683245Y-117279438D01*
X127782857Y-117083516D01*
X127786857Y-117073665D01*
X127852034Y-116863760D01*
X127854317Y-116853376D01*
X127856361Y-116837957D01*
X127854165Y-116823793D01*
X127840978Y-116820000D01*
X126644615Y-116820000D01*
X126629376Y-116824475D01*
X126628171Y-116825865D01*
X126626500Y-116833548D01*
X126626500Y-117901970D01*
X126118500Y-117901970D01*
X126118500Y-116838115D01*
X126114025Y-116822876D01*
X126112635Y-116821671D01*
X126104952Y-116820000D01*
X124906308Y-116820000D01*
X124892777Y-116823973D01*
X124891252Y-116834580D01*
X120773500Y-116834580D01*
X120773500Y-114716400D01*
X124864000Y-114716400D01*
X124874974Y-114822166D01*
X124930950Y-114989946D01*
X125024022Y-115140348D01*
X125149197Y-115265305D01*
X125294758Y-115355030D01*
X125295280Y-115355352D01*
X125342773Y-115408124D01*
X125354197Y-115478196D01*
X125325923Y-115543320D01*
X125316136Y-115553782D01*
X125205594Y-115659234D01*
X125198559Y-115667186D01*
X125067359Y-115843525D01*
X125061755Y-115852562D01*
X124962143Y-116048484D01*
X124958143Y-116058335D01*
X124892966Y-116268240D01*
X124890683Y-116278624D01*
X124888639Y-116294043D01*
X124890835Y-116308207D01*
X124904022Y-116312000D01*
X127838692Y-116312000D01*
X127852223Y-116308027D01*
X127853748Y-116297420D01*
X127829023Y-116179579D01*
X127825963Y-116169383D01*
X127745237Y-115964971D01*
X127740506Y-115955439D01*
X127626484Y-115767538D01*
X127620220Y-115758948D01*
X127476173Y-115592948D01*
X127468544Y-115585530D01*
X127436931Y-115559609D01*
X127396936Y-115500949D01*
X127395004Y-115429979D01*
X127431748Y-115369230D01*
X127450518Y-115355030D01*
X127590620Y-115268332D01*
X127596848Y-115264478D01*
X127721805Y-115139303D01*
X127814615Y-114988738D01*
X127870297Y-114820861D01*
X127881000Y-114716400D01*
X127881000Y-113415600D01*
X127870026Y-113309834D01*
X127842126Y-113226206D01*
X127816368Y-113149002D01*
X127814050Y-113142054D01*
X127720978Y-112991652D01*
X127595803Y-112866695D01*
X127542428Y-112833794D01*
X127451468Y-112777725D01*
X127451466Y-112777724D01*
X127445238Y-112773885D01*
X127284754Y-112720655D01*
X127283889Y-112720368D01*
X127283887Y-112720368D01*
X127277361Y-112718203D01*
X127270525Y-112717503D01*
X127270522Y-112717502D01*
X127227469Y-112713091D01*
X127172900Y-112707500D01*
X125572100Y-112707500D01*
X125568854Y-112707837D01*
X125568850Y-112707837D01*
X125473192Y-112717762D01*
X125473188Y-112717763D01*
X125466334Y-112718474D01*
X125459798Y-112720655D01*
X125459796Y-112720655D01*
X125327694Y-112764728D01*
X125298554Y-112774450D01*
X125148152Y-112867522D01*
X125023195Y-112992697D01*
X124930385Y-113143262D01*
X124874703Y-113311139D01*
X124864000Y-113415600D01*
X124864000Y-114716400D01*
X120773500Y-114716400D01*
X120773500Y-113566999D01*
X120790381Y-113503999D01*
X120846223Y-113407279D01*
X120846224Y-113407278D01*
X120849527Y-113401556D01*
X120908542Y-113219928D01*
X120928504Y-113030000D01*
X120911022Y-112863668D01*
X120909232Y-112846635D01*
X120909232Y-112846633D01*
X120908542Y-112840072D01*
X120849527Y-112658444D01*
X120754040Y-112493056D01*
X120626253Y-112351134D01*
X120471752Y-112238882D01*
X120465724Y-112236198D01*
X120465722Y-112236197D01*
X120303319Y-112163891D01*
X120303318Y-112163891D01*
X120297288Y-112161206D01*
X120203888Y-112141353D01*
X120116944Y-112122872D01*
X120116939Y-112122872D01*
X120110487Y-112121500D01*
X119919513Y-112121500D01*
X119913061Y-112122872D01*
X119913056Y-112122872D01*
X119826112Y-112141353D01*
X119732712Y-112161206D01*
X119726682Y-112163891D01*
X119726681Y-112163891D01*
X119564278Y-112236197D01*
X119564276Y-112236198D01*
X119558248Y-112238882D01*
X119403747Y-112351134D01*
X119275960Y-112493056D01*
X119180473Y-112658444D01*
X119121458Y-112840072D01*
X119120768Y-112846633D01*
X119120768Y-112846635D01*
X119118978Y-112863668D01*
X119101496Y-113030000D01*
X76073500Y-113030000D01*
X76073500Y-86950774D01*
X81665602Y-86950774D01*
X81674251Y-87181158D01*
X81721593Y-87406791D01*
X81806276Y-87621221D01*
X81809043Y-87625780D01*
X81809044Y-87625783D01*
X81898545Y-87773276D01*
X81925877Y-87818317D01*
X81929374Y-87822347D01*
X82015938Y-87922103D01*
X82076977Y-87992445D01*
X82112620Y-88021670D01*
X82152614Y-88080329D01*
X82154546Y-88151299D01*
X82117802Y-88212048D01*
X82099032Y-88226248D01*
X82047019Y-88258435D01*
X81953152Y-88316522D01*
X81828195Y-88441697D01*
X81735385Y-88592262D01*
X81679703Y-88760139D01*
X81669000Y-88864600D01*
X81669000Y-90165400D01*
X81669337Y-90168646D01*
X81669337Y-90168650D01*
X81678939Y-90261186D01*
X81679974Y-90271166D01*
X81682155Y-90277702D01*
X81682155Y-90277704D01*
X81692664Y-90309203D01*
X81735950Y-90438946D01*
X81829022Y-90589348D01*
X81954197Y-90714305D01*
X82104762Y-90807115D01*
X82184505Y-90833564D01*
X82266111Y-90860632D01*
X82266113Y-90860632D01*
X82272639Y-90862797D01*
X82279475Y-90863497D01*
X82279478Y-90863498D01*
X82322531Y-90867909D01*
X82377100Y-90873500D01*
X83411129Y-90873500D01*
X83479250Y-90893502D01*
X83500224Y-90910405D01*
X84988467Y-92398648D01*
X85000853Y-92413060D01*
X85009386Y-92424655D01*
X85009391Y-92424660D01*
X85013729Y-92430555D01*
X85019307Y-92435294D01*
X85019310Y-92435297D01*
X85054005Y-92464772D01*
X85061521Y-92471702D01*
X85067217Y-92477398D01*
X85070078Y-92479661D01*
X85070083Y-92479666D01*
X85089503Y-92495030D01*
X85092904Y-92497819D01*
X85123939Y-92524185D01*
X85148522Y-92545070D01*
X85155042Y-92548399D01*
X85160089Y-92551765D01*
X85165213Y-92554930D01*
X85170954Y-92559472D01*
X85177585Y-92562571D01*
X85177588Y-92562573D01*
X85224960Y-92584713D01*
X85233186Y-92588557D01*
X85237067Y-92590371D01*
X85241013Y-92592299D01*
X85306045Y-92625506D01*
X85313151Y-92627245D01*
X85318801Y-92629346D01*
X85324558Y-92631261D01*
X85331187Y-92634359D01*
X85402672Y-92649228D01*
X85406938Y-92650194D01*
X85477847Y-92667545D01*
X85483449Y-92667893D01*
X85483452Y-92667893D01*
X85489001Y-92668237D01*
X85488999Y-92668272D01*
X85492971Y-92668512D01*
X85497192Y-92668889D01*
X85504352Y-92670378D01*
X85581779Y-92668283D01*
X85585187Y-92668237D01*
X98523193Y-92668237D01*
X98542143Y-92669670D01*
X98556378Y-92671836D01*
X98556382Y-92671836D01*
X98563612Y-92672936D01*
X98570904Y-92672343D01*
X98570907Y-92672343D01*
X98616281Y-92668652D01*
X98626496Y-92668237D01*
X98634556Y-92668237D01*
X98651943Y-92666210D01*
X98662770Y-92664948D01*
X98667145Y-92664515D01*
X98732602Y-92659191D01*
X98732605Y-92659190D01*
X98739900Y-92658597D01*
X98746864Y-92656341D01*
X98752823Y-92655150D01*
X98758678Y-92653766D01*
X98765944Y-92652919D01*
X98834590Y-92628002D01*
X98838718Y-92626585D01*
X98901199Y-92606344D01*
X98901201Y-92606343D01*
X98908162Y-92604088D01*
X98914417Y-92600292D01*
X98919891Y-92597786D01*
X98925321Y-92595067D01*
X98932200Y-92592570D01*
X98977953Y-92562573D01*
X98993239Y-92552551D01*
X98996943Y-92550214D01*
X99059370Y-92512332D01*
X99067747Y-92504934D01*
X99067771Y-92504961D01*
X99070763Y-92502308D01*
X99073996Y-92499605D01*
X99080115Y-92495593D01*
X99133391Y-92439354D01*
X99135769Y-92436912D01*
X101121331Y-90451350D01*
X101184228Y-90417199D01*
X101240824Y-90405169D01*
X101240833Y-90405166D01*
X101247288Y-90403794D01*
X101253319Y-90401109D01*
X101415722Y-90328803D01*
X101415724Y-90328802D01*
X101421752Y-90326118D01*
X101445034Y-90309203D01*
X101519071Y-90255411D01*
X101576253Y-90213866D01*
X101638135Y-90145139D01*
X101699621Y-90076852D01*
X101699622Y-90076851D01*
X101704040Y-90071944D01*
X101773972Y-89950819D01*
X101796223Y-89912279D01*
X101796224Y-89912278D01*
X101799527Y-89906556D01*
X101858542Y-89724928D01*
X101862952Y-89682975D01*
X101877814Y-89541565D01*
X101878504Y-89535000D01*
X101871089Y-89464449D01*
X101859232Y-89351635D01*
X101859232Y-89351633D01*
X101858542Y-89345072D01*
X101799527Y-89163444D01*
X101740381Y-89061000D01*
X101723500Y-88998001D01*
X101723500Y-88801999D01*
X101740381Y-88738999D01*
X101796223Y-88642279D01*
X101796224Y-88642278D01*
X101799527Y-88636556D01*
X101858542Y-88454928D01*
X101860043Y-88440652D01*
X101877814Y-88271565D01*
X101878504Y-88265000D01*
X101858542Y-88075072D01*
X101799527Y-87893444D01*
X101740381Y-87791000D01*
X101723500Y-87728001D01*
X101723500Y-72649500D01*
X104496496Y-72649500D01*
X104497186Y-72656065D01*
X104515381Y-72829177D01*
X104516458Y-72839428D01*
X104575473Y-73021056D01*
X104670960Y-73186444D01*
X104675378Y-73191351D01*
X104675379Y-73191352D01*
X104721697Y-73242793D01*
X104798747Y-73328366D01*
X104953248Y-73440618D01*
X104959276Y-73443302D01*
X104959278Y-73443303D01*
X105113393Y-73511919D01*
X105127712Y-73518294D01*
X105213317Y-73536490D01*
X105308056Y-73556628D01*
X105308061Y-73556628D01*
X105314513Y-73558000D01*
X105505487Y-73558000D01*
X105511939Y-73556628D01*
X105511944Y-73556628D01*
X105606683Y-73536490D01*
X105692288Y-73518294D01*
X105706607Y-73511919D01*
X105860722Y-73443303D01*
X105860724Y-73443302D01*
X105866752Y-73440618D01*
X106021253Y-73328366D01*
X106098303Y-73242793D01*
X106144621Y-73191352D01*
X106144622Y-73191351D01*
X106149040Y-73186444D01*
X106244527Y-73021056D01*
X106303542Y-72839428D01*
X106304620Y-72829177D01*
X106322814Y-72656065D01*
X106323504Y-72649500D01*
X106306863Y-72491166D01*
X106304232Y-72466135D01*
X106304232Y-72466133D01*
X106303542Y-72459572D01*
X106244527Y-72277944D01*
X106240843Y-72271562D01*
X106171616Y-72151659D01*
X106149040Y-72112556D01*
X106100864Y-72059051D01*
X106070146Y-71995044D01*
X106068500Y-71974741D01*
X106068500Y-71159759D01*
X106088502Y-71091638D01*
X106100864Y-71075449D01*
X106144621Y-71026852D01*
X106144622Y-71026851D01*
X106149040Y-71021944D01*
X106234747Y-70873495D01*
X106241223Y-70862279D01*
X106241224Y-70862278D01*
X106244527Y-70856556D01*
X106303542Y-70674928D01*
X106305043Y-70660652D01*
X106322814Y-70491565D01*
X106323504Y-70485000D01*
X106316198Y-70415489D01*
X106304232Y-70301635D01*
X106304232Y-70301633D01*
X106303542Y-70295072D01*
X106244527Y-70113444D01*
X106235858Y-70098428D01*
X106165005Y-69975709D01*
X106149040Y-69948056D01*
X106072428Y-69862969D01*
X106025675Y-69811045D01*
X106025674Y-69811044D01*
X106021253Y-69806134D01*
X105866752Y-69693882D01*
X105860724Y-69691198D01*
X105860722Y-69691197D01*
X105698319Y-69618891D01*
X105698318Y-69618891D01*
X105692288Y-69616206D01*
X105598888Y-69596353D01*
X105511944Y-69577872D01*
X105511939Y-69577872D01*
X105505487Y-69576500D01*
X105314513Y-69576500D01*
X105308061Y-69577872D01*
X105308056Y-69577872D01*
X105221112Y-69596353D01*
X105127712Y-69616206D01*
X105121682Y-69618891D01*
X105121681Y-69618891D01*
X104959278Y-69691197D01*
X104959276Y-69691198D01*
X104953248Y-69693882D01*
X104798747Y-69806134D01*
X104794326Y-69811044D01*
X104794325Y-69811045D01*
X104747573Y-69862969D01*
X104670960Y-69948056D01*
X104654995Y-69975709D01*
X104584143Y-70098428D01*
X104575473Y-70113444D01*
X104516458Y-70295072D01*
X104515768Y-70301633D01*
X104515768Y-70301635D01*
X104503802Y-70415489D01*
X104496496Y-70485000D01*
X104497186Y-70491565D01*
X104514958Y-70660652D01*
X104516458Y-70674928D01*
X104575473Y-70856556D01*
X104578776Y-70862278D01*
X104578777Y-70862279D01*
X104585253Y-70873495D01*
X104670960Y-71021944D01*
X104675378Y-71026851D01*
X104675379Y-71026852D01*
X104719136Y-71075449D01*
X104749854Y-71139456D01*
X104751500Y-71159759D01*
X104751500Y-71974741D01*
X104731498Y-72042862D01*
X104719136Y-72059051D01*
X104670960Y-72112556D01*
X104648384Y-72151659D01*
X104579158Y-72271562D01*
X104575473Y-72277944D01*
X104516458Y-72459572D01*
X104515768Y-72466133D01*
X104515768Y-72466135D01*
X104513137Y-72491166D01*
X104496496Y-72649500D01*
X101723500Y-72649500D01*
X101723500Y-72438870D01*
X101724933Y-72419920D01*
X101727099Y-72405685D01*
X101727099Y-72405681D01*
X101728199Y-72398451D01*
X101727138Y-72385400D01*
X101723915Y-72345782D01*
X101723500Y-72335567D01*
X101723500Y-72327507D01*
X101720209Y-72299280D01*
X101719778Y-72294921D01*
X101718397Y-72277944D01*
X101713860Y-72222164D01*
X101711605Y-72215203D01*
X101710418Y-72209263D01*
X101709029Y-72203388D01*
X101708182Y-72196119D01*
X101683264Y-72127470D01*
X101681847Y-72123342D01*
X101661607Y-72060864D01*
X101661606Y-72060862D01*
X101659351Y-72053901D01*
X101655555Y-72047646D01*
X101653049Y-72042172D01*
X101650330Y-72036742D01*
X101647833Y-72029863D01*
X101643404Y-72023107D01*
X101607814Y-71968824D01*
X101605467Y-71965105D01*
X101601519Y-71958599D01*
X101567595Y-71902693D01*
X101560197Y-71894316D01*
X101560224Y-71894292D01*
X101557571Y-71891300D01*
X101554868Y-71888067D01*
X101550856Y-71881948D01*
X101494617Y-71828672D01*
X101492175Y-71826294D01*
X99855405Y-70189524D01*
X99821379Y-70127212D01*
X99818500Y-70100429D01*
X99818500Y-68848617D01*
X108457303Y-68848617D01*
X108457993Y-68855182D01*
X108467698Y-68947516D01*
X108477265Y-69038545D01*
X108536280Y-69220173D01*
X108539583Y-69225894D01*
X108544618Y-69234614D01*
X108561500Y-69297616D01*
X108561500Y-85007944D01*
X108560941Y-85019800D01*
X108559212Y-85027537D01*
X108559461Y-85035459D01*
X108561438Y-85098369D01*
X108561500Y-85102327D01*
X108561500Y-85131432D01*
X108562056Y-85135832D01*
X108562988Y-85147664D01*
X108564438Y-85193831D01*
X108566650Y-85201444D01*
X108566650Y-85201445D01*
X108570419Y-85214416D01*
X108574430Y-85233782D01*
X108577118Y-85255064D01*
X108580034Y-85262429D01*
X108580035Y-85262433D01*
X108594126Y-85298021D01*
X108597965Y-85309231D01*
X108610855Y-85353600D01*
X108621775Y-85372065D01*
X108630466Y-85389805D01*
X108638365Y-85409756D01*
X108665516Y-85447126D01*
X108672033Y-85457048D01*
X108691507Y-85489977D01*
X108691510Y-85489981D01*
X108695547Y-85496807D01*
X108710711Y-85511971D01*
X108723551Y-85527004D01*
X108736159Y-85544357D01*
X108762559Y-85566197D01*
X108771752Y-85573802D01*
X108780532Y-85581792D01*
X109547030Y-86348290D01*
X109581056Y-86410602D01*
X109583244Y-86424211D01*
X109596458Y-86549928D01*
X109598498Y-86556205D01*
X109598498Y-86556207D01*
X109618657Y-86618248D01*
X109655473Y-86731556D01*
X109658776Y-86737278D01*
X109658777Y-86737279D01*
X109667593Y-86752548D01*
X109750960Y-86896944D01*
X109878747Y-87038866D01*
X110033248Y-87151118D01*
X110039276Y-87153802D01*
X110039278Y-87153803D01*
X110100719Y-87181158D01*
X110207712Y-87228794D01*
X110287507Y-87245755D01*
X110388056Y-87267128D01*
X110388061Y-87267128D01*
X110394513Y-87268500D01*
X110585487Y-87268500D01*
X110591939Y-87267128D01*
X110591944Y-87267128D01*
X110692493Y-87245755D01*
X110772288Y-87228794D01*
X110879281Y-87181158D01*
X110940722Y-87153803D01*
X110940724Y-87153802D01*
X110946752Y-87151118D01*
X110956797Y-87143820D01*
X111023665Y-87119961D01*
X111092816Y-87136040D01*
X111142297Y-87186954D01*
X111156859Y-87245755D01*
X111156859Y-90054714D01*
X111156300Y-90066570D01*
X111154571Y-90074307D01*
X111154820Y-90082229D01*
X111156797Y-90145139D01*
X111156859Y-90149097D01*
X111156859Y-90178202D01*
X111157415Y-90182602D01*
X111158347Y-90194434D01*
X111159797Y-90240601D01*
X111162009Y-90248214D01*
X111162009Y-90248215D01*
X111165778Y-90261186D01*
X111169789Y-90280552D01*
X111172477Y-90301834D01*
X111175393Y-90309199D01*
X111175394Y-90309203D01*
X111189485Y-90344791D01*
X111193324Y-90356001D01*
X111206214Y-90400370D01*
X111217134Y-90418835D01*
X111225825Y-90436575D01*
X111233724Y-90456526D01*
X111260875Y-90493896D01*
X111267392Y-90503818D01*
X111286866Y-90536747D01*
X111286869Y-90536751D01*
X111290906Y-90543577D01*
X111306070Y-90558741D01*
X111318910Y-90573774D01*
X111331518Y-90591127D01*
X111367111Y-90620572D01*
X111375891Y-90628562D01*
X114890822Y-94143493D01*
X114924848Y-94205805D01*
X114927727Y-94232588D01*
X114927727Y-95127202D01*
X114907725Y-95195323D01*
X114895363Y-95211512D01*
X114847187Y-95265017D01*
X114751700Y-95430405D01*
X114692685Y-95612033D01*
X114672723Y-95801961D01*
X114692685Y-95991889D01*
X114751700Y-96173517D01*
X114847187Y-96338905D01*
X114851605Y-96343812D01*
X114851606Y-96343813D01*
X114970552Y-96475916D01*
X114974974Y-96480827D01*
X115129475Y-96593079D01*
X115135503Y-96595763D01*
X115135505Y-96595764D01*
X115271450Y-96656290D01*
X115303939Y-96670755D01*
X115397340Y-96690608D01*
X115484283Y-96709089D01*
X115484288Y-96709089D01*
X115490740Y-96710461D01*
X115681714Y-96710461D01*
X115688166Y-96709089D01*
X115688171Y-96709089D01*
X115775115Y-96690608D01*
X115868515Y-96670755D01*
X115901004Y-96656290D01*
X116036949Y-96595764D01*
X116036951Y-96595763D01*
X116042979Y-96593079D01*
X116197480Y-96480827D01*
X116201902Y-96475916D01*
X116320848Y-96343813D01*
X116320849Y-96343812D01*
X116325267Y-96338905D01*
X116420754Y-96173517D01*
X116479769Y-95991889D01*
X116499731Y-95801961D01*
X116479769Y-95612033D01*
X116420754Y-95430405D01*
X116325267Y-95265017D01*
X116277091Y-95211512D01*
X116246373Y-95147505D01*
X116244727Y-95127202D01*
X116244727Y-94652206D01*
X116264729Y-94584085D01*
X116318385Y-94537592D01*
X116370727Y-94526206D01*
X116523153Y-94526206D01*
X116529605Y-94524834D01*
X116529610Y-94524834D01*
X116616554Y-94506353D01*
X116709954Y-94486500D01*
X116715985Y-94483815D01*
X116878388Y-94411509D01*
X116878390Y-94411508D01*
X116884418Y-94408824D01*
X117038919Y-94296572D01*
X117043341Y-94291661D01*
X117162287Y-94159558D01*
X117162288Y-94159557D01*
X117166706Y-94154650D01*
X117262193Y-93989262D01*
X117321208Y-93807634D01*
X117341170Y-93617706D01*
X117321208Y-93427778D01*
X117262193Y-93246150D01*
X117166706Y-93080762D01*
X117038919Y-92938840D01*
X116884418Y-92826588D01*
X116878390Y-92823904D01*
X116878388Y-92823903D01*
X116715985Y-92751597D01*
X116715984Y-92751597D01*
X116709954Y-92748912D01*
X116616554Y-92729059D01*
X116529610Y-92710578D01*
X116529605Y-92710578D01*
X116523153Y-92709206D01*
X116502616Y-92709206D01*
X116434495Y-92689204D01*
X116413521Y-92672301D01*
X116265405Y-92524185D01*
X116231379Y-92461873D01*
X116228500Y-92435090D01*
X116228500Y-86795240D01*
X116248502Y-86727119D01*
X116302158Y-86680626D01*
X116372432Y-86670522D01*
X116437012Y-86700016D01*
X116443595Y-86706145D01*
X119693748Y-89956298D01*
X119727774Y-90018610D01*
X119730653Y-90045393D01*
X119730653Y-97161092D01*
X119710651Y-97229213D01*
X119678714Y-97263028D01*
X119565353Y-97345390D01*
X119554281Y-97353434D01*
X119549860Y-97358344D01*
X119549859Y-97358345D01*
X119468871Y-97448292D01*
X119426494Y-97495356D01*
X119331007Y-97660744D01*
X119271992Y-97842372D01*
X119271302Y-97848933D01*
X119271302Y-97848935D01*
X119264029Y-97918133D01*
X119252030Y-98032300D01*
X119252720Y-98038865D01*
X119271218Y-98214860D01*
X119271992Y-98222228D01*
X119331007Y-98403856D01*
X119426494Y-98569244D01*
X119554281Y-98711166D01*
X119708782Y-98823418D01*
X119714810Y-98826102D01*
X119714812Y-98826103D01*
X119877215Y-98898409D01*
X119883246Y-98901094D01*
X119976647Y-98920947D01*
X120063590Y-98939428D01*
X120063595Y-98939428D01*
X120070047Y-98940800D01*
X120261021Y-98940800D01*
X120267473Y-98939428D01*
X120267478Y-98939428D01*
X120354422Y-98920947D01*
X120447822Y-98901094D01*
X120453853Y-98898409D01*
X120616256Y-98826103D01*
X120616258Y-98826102D01*
X120622286Y-98823418D01*
X120776787Y-98711166D01*
X120904574Y-98569244D01*
X121000061Y-98403856D01*
X121059076Y-98222228D01*
X121059851Y-98214860D01*
X121078348Y-98038865D01*
X121079038Y-98032300D01*
X121059076Y-97842372D01*
X121057035Y-97836091D01*
X121057034Y-97836086D01*
X121055896Y-97832583D01*
X121050288Y-97805505D01*
X121048212Y-97783543D01*
X121047653Y-97771685D01*
X121047653Y-97448292D01*
X128320608Y-97448292D01*
X128350486Y-97645848D01*
X128352689Y-97651835D01*
X128352689Y-97651836D01*
X128358279Y-97667029D01*
X128419477Y-97833361D01*
X128524765Y-98003172D01*
X128662047Y-98148344D01*
X128825716Y-98262946D01*
X129009086Y-98342298D01*
X129204666Y-98383156D01*
X129209522Y-98383411D01*
X129209561Y-98383413D01*
X129209577Y-98383413D01*
X129211229Y-98383500D01*
X129357934Y-98383500D01*
X129387230Y-98380524D01*
X129500434Y-98369026D01*
X129500438Y-98369025D01*
X129506780Y-98368381D01*
X129640042Y-98326619D01*
X129691349Y-98310540D01*
X129691350Y-98310539D01*
X129697440Y-98308631D01*
X129872191Y-98211765D01*
X130023896Y-98081739D01*
X130027805Y-98076700D01*
X130142445Y-97928907D01*
X130142447Y-97928904D01*
X130146357Y-97923863D01*
X130183227Y-97848935D01*
X130231752Y-97750318D01*
X130234571Y-97744589D01*
X130284935Y-97551238D01*
X130290665Y-97441911D01*
X130295058Y-97358089D01*
X130295058Y-97358085D01*
X130295392Y-97351708D01*
X130265514Y-97154152D01*
X130196523Y-96966639D01*
X130091235Y-96796828D01*
X129953953Y-96651656D01*
X129790284Y-96537054D01*
X129606914Y-96457702D01*
X129411334Y-96416844D01*
X129406478Y-96416589D01*
X129406439Y-96416587D01*
X129406423Y-96416587D01*
X129404771Y-96416500D01*
X129258066Y-96416500D01*
X129244933Y-96417834D01*
X129115566Y-96430974D01*
X129115562Y-96430975D01*
X129109220Y-96431619D01*
X129017898Y-96460238D01*
X128924651Y-96489460D01*
X128924650Y-96489461D01*
X128918560Y-96491369D01*
X128743809Y-96588235D01*
X128738960Y-96592391D01*
X128647531Y-96670755D01*
X128592104Y-96718261D01*
X128588197Y-96723298D01*
X128588195Y-96723300D01*
X128473555Y-96871093D01*
X128473553Y-96871096D01*
X128469643Y-96876137D01*
X128381429Y-97055411D01*
X128331065Y-97248762D01*
X128320608Y-97448292D01*
X121047653Y-97448292D01*
X121047653Y-90648292D01*
X128320608Y-90648292D01*
X128350486Y-90845848D01*
X128419477Y-91033361D01*
X128524765Y-91203172D01*
X128662047Y-91348344D01*
X128825716Y-91462946D01*
X129009086Y-91542298D01*
X129204666Y-91583156D01*
X129209522Y-91583411D01*
X129209561Y-91583413D01*
X129209577Y-91583413D01*
X129211229Y-91583500D01*
X129357934Y-91583500D01*
X129387230Y-91580524D01*
X129500434Y-91569026D01*
X129500438Y-91569025D01*
X129506780Y-91568381D01*
X129640042Y-91526619D01*
X129691349Y-91510540D01*
X129691350Y-91510539D01*
X129697440Y-91508631D01*
X129872191Y-91411765D01*
X130023896Y-91281739D01*
X130027805Y-91276700D01*
X130142445Y-91128907D01*
X130142447Y-91128904D01*
X130146357Y-91123863D01*
X130234571Y-90944589D01*
X130270380Y-90807115D01*
X130283325Y-90757420D01*
X130283325Y-90757417D01*
X130284935Y-90751238D01*
X130291783Y-90620572D01*
X130295058Y-90558089D01*
X130295058Y-90558085D01*
X130295392Y-90551708D01*
X130265514Y-90354152D01*
X130256188Y-90328803D01*
X130198727Y-90172629D01*
X130198727Y-90172628D01*
X130196523Y-90166639D01*
X130091235Y-89996828D01*
X129953953Y-89851656D01*
X129790284Y-89737054D01*
X129606914Y-89657702D01*
X129411334Y-89616844D01*
X129406478Y-89616589D01*
X129406439Y-89616587D01*
X129406423Y-89616587D01*
X129404771Y-89616500D01*
X129258066Y-89616500D01*
X129244933Y-89617834D01*
X129115566Y-89630974D01*
X129115562Y-89630975D01*
X129109220Y-89631619D01*
X128990835Y-89668719D01*
X128924651Y-89689460D01*
X128924650Y-89689461D01*
X128918560Y-89691369D01*
X128912978Y-89694463D01*
X128912976Y-89694464D01*
X128884799Y-89710083D01*
X128743809Y-89788235D01*
X128738960Y-89792391D01*
X128605761Y-89906556D01*
X128592104Y-89918261D01*
X128588197Y-89923298D01*
X128588195Y-89923300D01*
X128473555Y-90071093D01*
X128473553Y-90071096D01*
X128469643Y-90076137D01*
X128466825Y-90081863D01*
X128466823Y-90081867D01*
X128404288Y-90208955D01*
X128381429Y-90255411D01*
X128379820Y-90261589D01*
X128335432Y-90431998D01*
X128331065Y-90448762D01*
X128330731Y-90455142D01*
X128322061Y-90620572D01*
X128320608Y-90648292D01*
X121047653Y-90648292D01*
X121047653Y-89802502D01*
X121048212Y-89790646D01*
X121049942Y-89782906D01*
X121047715Y-89712054D01*
X121047653Y-89708096D01*
X121047653Y-89679011D01*
X121047099Y-89674622D01*
X121046166Y-89662780D01*
X121046007Y-89657702D01*
X121044715Y-89616612D01*
X121038733Y-89596022D01*
X121034723Y-89576659D01*
X121033028Y-89563239D01*
X121033028Y-89563238D01*
X121032035Y-89555379D01*
X121029119Y-89548014D01*
X121029118Y-89548010D01*
X121015027Y-89512422D01*
X121011188Y-89501212D01*
X120998298Y-89456843D01*
X120987378Y-89438378D01*
X120978687Y-89420638D01*
X120970788Y-89400687D01*
X120943635Y-89363314D01*
X120937120Y-89353395D01*
X120917646Y-89320466D01*
X120917643Y-89320462D01*
X120913606Y-89313636D01*
X120898442Y-89298472D01*
X120885601Y-89283438D01*
X120877654Y-89272500D01*
X120872994Y-89266086D01*
X120837400Y-89236640D01*
X120828621Y-89228651D01*
X117064905Y-85464935D01*
X117030879Y-85402623D01*
X117028000Y-85375840D01*
X117028000Y-77842366D01*
X117048002Y-77774245D01*
X117101658Y-77727752D01*
X117171932Y-77717648D01*
X117236512Y-77747142D01*
X117244672Y-77755147D01*
X117246492Y-77756786D01*
X117250915Y-77761698D01*
X117298364Y-77796172D01*
X117399948Y-77869977D01*
X117405416Y-77873950D01*
X117411444Y-77876634D01*
X117411446Y-77876635D01*
X117573849Y-77948941D01*
X117579880Y-77951626D01*
X117673280Y-77971479D01*
X117760224Y-77989960D01*
X117760229Y-77989960D01*
X117766681Y-77991332D01*
X117957655Y-77991332D01*
X117964107Y-77989960D01*
X117964112Y-77989960D01*
X118051056Y-77971479D01*
X118144456Y-77951626D01*
X118150487Y-77948941D01*
X118312890Y-77876635D01*
X118312892Y-77876634D01*
X118318920Y-77873950D01*
X118324389Y-77869977D01*
X118425972Y-77796172D01*
X118473421Y-77761698D01*
X118492582Y-77740418D01*
X118596789Y-77624684D01*
X118596790Y-77624683D01*
X118601208Y-77619776D01*
X118680564Y-77482327D01*
X118693391Y-77460111D01*
X118693392Y-77460110D01*
X118696695Y-77454388D01*
X118755710Y-77272760D01*
X118763648Y-77197240D01*
X118774982Y-77089397D01*
X118775672Y-77082832D01*
X118769592Y-77024987D01*
X118756400Y-76899467D01*
X118756400Y-76899465D01*
X118755710Y-76892904D01*
X118696695Y-76711276D01*
X118676509Y-76676312D01*
X118604509Y-76551606D01*
X118601208Y-76545888D01*
X118553032Y-76492383D01*
X118522314Y-76428376D01*
X118520668Y-76408073D01*
X118520668Y-74232782D01*
X118540670Y-74164661D01*
X118557573Y-74143687D01*
X119041260Y-73660000D01*
X121641496Y-73660000D01*
X121642186Y-73666565D01*
X121658801Y-73824644D01*
X121661458Y-73849928D01*
X121720473Y-74031556D01*
X121815960Y-74196944D01*
X121820378Y-74201851D01*
X121820379Y-74201852D01*
X121864136Y-74250449D01*
X121894854Y-74314456D01*
X121896500Y-74334759D01*
X121896500Y-77387944D01*
X121895941Y-77399800D01*
X121894212Y-77407537D01*
X121894461Y-77415459D01*
X121896438Y-77478369D01*
X121896500Y-77482327D01*
X121896500Y-77511432D01*
X121897056Y-77515832D01*
X121897988Y-77527664D01*
X121899438Y-77573831D01*
X121901650Y-77581444D01*
X121901650Y-77581445D01*
X121905419Y-77594416D01*
X121909430Y-77613782D01*
X121912118Y-77635064D01*
X121915034Y-77642429D01*
X121915035Y-77642433D01*
X121929126Y-77678021D01*
X121932965Y-77689231D01*
X121945855Y-77733600D01*
X121956775Y-77752065D01*
X121965466Y-77769805D01*
X121973365Y-77789756D01*
X122000516Y-77827126D01*
X122007033Y-77837048D01*
X122026507Y-77869977D01*
X122026510Y-77869981D01*
X122030547Y-77876807D01*
X122045711Y-77891971D01*
X122058551Y-77907004D01*
X122071159Y-77924357D01*
X122100876Y-77948941D01*
X122106752Y-77953802D01*
X122115532Y-77961792D01*
X125046345Y-80892605D01*
X125054335Y-80901385D01*
X125058584Y-80908080D01*
X125064362Y-80913506D01*
X125064363Y-80913507D01*
X125110257Y-80956604D01*
X125113099Y-80959359D01*
X125133667Y-80979927D01*
X125137170Y-80982644D01*
X125146195Y-80990352D01*
X125179867Y-81021972D01*
X125186818Y-81025793D01*
X125186819Y-81025794D01*
X125198658Y-81032303D01*
X125215182Y-81043157D01*
X125225271Y-81050982D01*
X125232132Y-81056304D01*
X125239404Y-81059451D01*
X125239406Y-81059452D01*
X125274535Y-81074654D01*
X125285196Y-81079876D01*
X125325663Y-81102124D01*
X125346441Y-81107459D01*
X125365131Y-81113858D01*
X125384824Y-81122380D01*
X125428596Y-81129313D01*
X125430448Y-81129606D01*
X125442071Y-81132013D01*
X125470072Y-81139202D01*
X125486812Y-81143500D01*
X125508259Y-81143500D01*
X125527969Y-81145051D01*
X125549152Y-81148406D01*
X125595141Y-81144059D01*
X125606996Y-81143500D01*
X128454575Y-81143500D01*
X128522696Y-81163502D01*
X128562293Y-81204133D01*
X128613377Y-81288317D01*
X128616874Y-81292347D01*
X128703438Y-81392103D01*
X128764477Y-81462445D01*
X128768608Y-81465832D01*
X128938627Y-81605240D01*
X128938633Y-81605244D01*
X128942755Y-81608624D01*
X128947391Y-81611263D01*
X128947394Y-81611265D01*
X129102134Y-81699348D01*
X129143114Y-81722675D01*
X129359825Y-81801337D01*
X129365074Y-81802286D01*
X129365077Y-81802287D01*
X129582608Y-81841623D01*
X129582615Y-81841624D01*
X129586692Y-81842361D01*
X129604414Y-81843197D01*
X129609356Y-81843430D01*
X129609363Y-81843430D01*
X129610844Y-81843500D01*
X130022890Y-81843500D01*
X130089809Y-81837822D01*
X130189409Y-81829371D01*
X130189413Y-81829370D01*
X130194720Y-81828920D01*
X130199875Y-81827582D01*
X130199881Y-81827581D01*
X130412703Y-81772343D01*
X130412707Y-81772342D01*
X130417872Y-81771001D01*
X130422738Y-81768809D01*
X130422741Y-81768808D01*
X130576937Y-81699348D01*
X130628075Y-81676312D01*
X130819319Y-81547559D01*
X130825149Y-81541998D01*
X130982278Y-81392103D01*
X130986135Y-81388424D01*
X130997595Y-81373022D01*
X131120568Y-81207740D01*
X131123754Y-81203458D01*
X131160079Y-81132013D01*
X131208345Y-81037080D01*
X131228240Y-80997949D01*
X131232993Y-80982644D01*
X131295024Y-80782871D01*
X131296607Y-80777773D01*
X131326898Y-80549226D01*
X131318249Y-80318842D01*
X131270907Y-80093209D01*
X131186224Y-79878779D01*
X131066623Y-79681683D01*
X130979755Y-79581576D01*
X130919023Y-79511588D01*
X130919021Y-79511586D01*
X130915523Y-79507555D01*
X130821994Y-79430866D01*
X130741373Y-79364760D01*
X130741367Y-79364756D01*
X130737245Y-79361376D01*
X130705750Y-79343448D01*
X130656445Y-79292368D01*
X130642583Y-79222738D01*
X130668566Y-79156667D01*
X130697716Y-79129427D01*
X130743784Y-79098412D01*
X130819319Y-79047559D01*
X130986135Y-78888424D01*
X131123754Y-78703458D01*
X131157061Y-78637949D01*
X131218660Y-78516791D01*
X131228240Y-78497949D01*
X131264321Y-78381752D01*
X131295024Y-78282871D01*
X131296607Y-78277773D01*
X131308343Y-78189226D01*
X131326198Y-78054511D01*
X131326198Y-78054506D01*
X131326898Y-78049226D01*
X131318249Y-77818842D01*
X131270907Y-77593209D01*
X131263254Y-77573831D01*
X131188185Y-77383744D01*
X131188184Y-77383742D01*
X131186224Y-77378779D01*
X131154345Y-77326243D01*
X131069390Y-77186243D01*
X131066623Y-77181683D01*
X130979755Y-77081576D01*
X130919023Y-77011588D01*
X130919021Y-77011586D01*
X130915523Y-77007555D01*
X130873970Y-76973484D01*
X130741373Y-76864760D01*
X130741367Y-76864756D01*
X130737245Y-76861376D01*
X130705750Y-76843448D01*
X130656445Y-76792368D01*
X130642583Y-76722738D01*
X130668566Y-76656667D01*
X130697716Y-76629427D01*
X130733642Y-76605240D01*
X130819319Y-76547559D01*
X130986135Y-76388424D01*
X131123754Y-76203458D01*
X131151744Y-76148407D01*
X131208345Y-76037080D01*
X131228240Y-75997949D01*
X131232993Y-75982644D01*
X131295024Y-75782871D01*
X131296607Y-75777773D01*
X131326898Y-75549226D01*
X131318249Y-75318842D01*
X131270907Y-75093209D01*
X131268948Y-75088248D01*
X131188185Y-74883744D01*
X131188184Y-74883742D01*
X131186224Y-74878779D01*
X131174708Y-74859800D01*
X131069390Y-74686243D01*
X131066623Y-74681683D01*
X130979755Y-74581576D01*
X130919023Y-74511588D01*
X130919021Y-74511586D01*
X130915523Y-74507555D01*
X130834061Y-74440760D01*
X130741373Y-74364760D01*
X130741367Y-74364756D01*
X130737245Y-74361376D01*
X130732602Y-74358733D01*
X130705265Y-74343171D01*
X130655959Y-74292088D01*
X130642098Y-74222458D01*
X130668082Y-74156387D01*
X130697232Y-74129149D01*
X130814578Y-74050148D01*
X130822870Y-74043481D01*
X130981900Y-73891772D01*
X130988941Y-73883814D01*
X131120141Y-73707475D01*
X131125745Y-73698438D01*
X131225357Y-73502516D01*
X131229357Y-73492665D01*
X131294534Y-73282760D01*
X131296817Y-73272376D01*
X131298861Y-73256957D01*
X131296665Y-73242793D01*
X131283478Y-73239000D01*
X128398808Y-73239000D01*
X128385277Y-73242973D01*
X128383752Y-73253580D01*
X128408477Y-73371421D01*
X128411537Y-73381617D01*
X128492263Y-73586029D01*
X128496994Y-73595561D01*
X128611016Y-73783462D01*
X128617280Y-73792052D01*
X128761327Y-73958052D01*
X128768958Y-73965472D01*
X128938911Y-74104826D01*
X128947674Y-74110848D01*
X128974711Y-74126238D01*
X129024018Y-74177320D01*
X129037880Y-74246951D01*
X129011897Y-74313022D01*
X128982747Y-74340261D01*
X128978425Y-74343171D01*
X128860681Y-74422441D01*
X128693865Y-74581576D01*
X128556246Y-74766542D01*
X128555656Y-74767702D01*
X128503664Y-74814250D01*
X128449471Y-74826500D01*
X127244950Y-74826500D01*
X127176829Y-74806498D01*
X127155855Y-74789595D01*
X127060405Y-74694145D01*
X127026379Y-74631833D01*
X127023500Y-74605050D01*
X127023500Y-70420774D01*
X128353102Y-70420774D01*
X128361751Y-70651158D01*
X128409093Y-70876791D01*
X128411051Y-70881750D01*
X128411052Y-70881752D01*
X128462604Y-71012288D01*
X128493776Y-71091221D01*
X128496543Y-71095780D01*
X128496544Y-71095783D01*
X128523046Y-71139456D01*
X128613377Y-71288317D01*
X128616874Y-71292347D01*
X128703438Y-71392103D01*
X128764477Y-71462445D01*
X128768608Y-71465832D01*
X128938627Y-71605240D01*
X128938633Y-71605244D01*
X128942755Y-71608624D01*
X128947398Y-71611267D01*
X128974735Y-71626829D01*
X129024041Y-71677912D01*
X129037902Y-71747542D01*
X129011918Y-71813613D01*
X128982768Y-71840851D01*
X128865422Y-71919852D01*
X128857130Y-71926519D01*
X128698100Y-72078228D01*
X128691059Y-72086186D01*
X128559859Y-72262525D01*
X128554255Y-72271562D01*
X128454643Y-72467484D01*
X128450643Y-72477335D01*
X128385466Y-72687240D01*
X128383183Y-72697624D01*
X128381139Y-72713043D01*
X128383335Y-72727207D01*
X128396522Y-72731000D01*
X131281192Y-72731000D01*
X131294723Y-72727027D01*
X131296248Y-72716420D01*
X131271523Y-72598579D01*
X131268463Y-72588383D01*
X131187737Y-72383971D01*
X131183006Y-72374439D01*
X131068984Y-72186538D01*
X131062720Y-72177948D01*
X130918673Y-72011948D01*
X130911042Y-72004528D01*
X130741089Y-71865174D01*
X130732326Y-71859152D01*
X130705289Y-71843762D01*
X130655982Y-71792680D01*
X130642120Y-71723049D01*
X130668103Y-71656978D01*
X130697253Y-71629739D01*
X130750532Y-71593869D01*
X130819319Y-71547559D01*
X130986135Y-71388424D01*
X131123754Y-71203458D01*
X131141910Y-71167749D01*
X131216040Y-71021944D01*
X131228240Y-70997949D01*
X131233771Y-70980139D01*
X131295024Y-70782871D01*
X131296607Y-70777773D01*
X131305170Y-70713162D01*
X131326198Y-70554511D01*
X131326198Y-70554506D01*
X131326898Y-70549226D01*
X131326277Y-70532668D01*
X131320815Y-70387203D01*
X131318249Y-70318842D01*
X131270907Y-70093209D01*
X131236967Y-70007268D01*
X131188185Y-69883744D01*
X131188184Y-69883742D01*
X131186224Y-69878779D01*
X131176631Y-69862969D01*
X131076381Y-69697763D01*
X131066623Y-69681683D01*
X130979755Y-69581576D01*
X130919023Y-69511588D01*
X130919021Y-69511586D01*
X130915523Y-69507555D01*
X130879880Y-69478330D01*
X130839886Y-69419671D01*
X130837954Y-69348701D01*
X130874698Y-69287952D01*
X130893468Y-69273752D01*
X131033120Y-69187332D01*
X131039348Y-69183478D01*
X131164305Y-69058303D01*
X131180530Y-69031982D01*
X131253275Y-68913968D01*
X131253276Y-68913966D01*
X131257115Y-68907738D01*
X131283564Y-68827995D01*
X131310632Y-68746389D01*
X131310632Y-68746387D01*
X131312797Y-68739861D01*
X131323500Y-68635400D01*
X131323500Y-67334600D01*
X131312526Y-67228834D01*
X131256550Y-67061054D01*
X131163478Y-66910652D01*
X131038303Y-66785695D01*
X131032072Y-66781854D01*
X130893968Y-66696725D01*
X130893966Y-66696724D01*
X130887738Y-66692885D01*
X130727254Y-66639655D01*
X130726389Y-66639368D01*
X130726387Y-66639368D01*
X130719861Y-66637203D01*
X130713025Y-66636503D01*
X130713022Y-66636502D01*
X130669969Y-66632091D01*
X130615400Y-66626500D01*
X129064600Y-66626500D01*
X129061354Y-66626837D01*
X129061350Y-66626837D01*
X128965692Y-66636762D01*
X128965688Y-66636763D01*
X128958834Y-66637474D01*
X128952298Y-66639655D01*
X128952296Y-66639655D01*
X128820194Y-66683728D01*
X128791054Y-66693450D01*
X128640652Y-66786522D01*
X128515695Y-66911697D01*
X128422885Y-67062262D01*
X128367203Y-67230139D01*
X128356500Y-67334600D01*
X128356500Y-68635400D01*
X128356837Y-68638646D01*
X128356837Y-68638650D01*
X128366020Y-68727148D01*
X128367474Y-68741166D01*
X128369655Y-68747702D01*
X128369655Y-68747704D01*
X128403323Y-68848617D01*
X128423450Y-68908946D01*
X128516522Y-69059348D01*
X128641697Y-69184305D01*
X128787340Y-69274081D01*
X128834832Y-69326852D01*
X128846256Y-69396924D01*
X128817982Y-69462048D01*
X128808195Y-69472510D01*
X128693865Y-69581576D01*
X128556246Y-69766542D01*
X128553830Y-69771293D01*
X128553828Y-69771297D01*
X128519820Y-69838187D01*
X128451760Y-69972051D01*
X128450178Y-69977145D01*
X128450177Y-69977148D01*
X128411897Y-70100429D01*
X128383393Y-70192227D01*
X128382692Y-70197516D01*
X128366051Y-70323076D01*
X128353102Y-70420774D01*
X127023500Y-70420774D01*
X127023500Y-63245398D01*
X127024059Y-63233542D01*
X127024059Y-63233539D01*
X127025788Y-63225805D01*
X127023562Y-63154973D01*
X127023500Y-63151015D01*
X127023500Y-63121910D01*
X127022944Y-63117510D01*
X127022012Y-63105672D01*
X127020811Y-63067436D01*
X127020562Y-63059511D01*
X127014580Y-63038921D01*
X127010570Y-63019558D01*
X127008875Y-63006138D01*
X127008875Y-63006137D01*
X127007882Y-62998278D01*
X127004966Y-62990913D01*
X127004965Y-62990909D01*
X126990874Y-62955321D01*
X126987035Y-62944111D01*
X126974145Y-62899742D01*
X126963229Y-62881285D01*
X126954534Y-62863535D01*
X126946635Y-62843586D01*
X126919477Y-62806206D01*
X126912960Y-62796285D01*
X126889452Y-62756535D01*
X126874291Y-62741374D01*
X126861449Y-62726339D01*
X126848841Y-62708985D01*
X126813242Y-62679535D01*
X126804463Y-62671546D01*
X125790405Y-61657487D01*
X125756379Y-61595175D01*
X125753500Y-61568392D01*
X125753500Y-59980774D01*
X128353102Y-59980774D01*
X128361751Y-60211158D01*
X128409093Y-60436791D01*
X128493776Y-60651221D01*
X128613377Y-60848317D01*
X128616874Y-60852347D01*
X128703438Y-60952103D01*
X128764477Y-61022445D01*
X128768608Y-61025832D01*
X128938627Y-61165240D01*
X128938633Y-61165244D01*
X128942755Y-61168624D01*
X128947391Y-61171263D01*
X128947394Y-61171265D01*
X129089407Y-61252103D01*
X129143114Y-61282675D01*
X129359825Y-61361337D01*
X129365074Y-61362286D01*
X129365077Y-61362287D01*
X129582608Y-61401623D01*
X129582615Y-61401624D01*
X129586692Y-61402361D01*
X129604414Y-61403197D01*
X129609356Y-61403430D01*
X129609363Y-61403430D01*
X129610844Y-61403500D01*
X130022890Y-61403500D01*
X130089809Y-61397822D01*
X130189409Y-61389371D01*
X130189413Y-61389370D01*
X130194720Y-61388920D01*
X130199875Y-61387582D01*
X130199881Y-61387581D01*
X130412703Y-61332343D01*
X130412707Y-61332342D01*
X130417872Y-61331001D01*
X130422738Y-61328809D01*
X130422741Y-61328808D01*
X130623202Y-61238507D01*
X130628075Y-61236312D01*
X130819319Y-61107559D01*
X130986135Y-60948424D01*
X131123754Y-60763458D01*
X131137313Y-60736791D01*
X131187655Y-60637773D01*
X131228240Y-60557949D01*
X131244425Y-60505827D01*
X131295024Y-60342871D01*
X131296607Y-60337773D01*
X131303455Y-60286105D01*
X131326198Y-60114511D01*
X131326198Y-60114506D01*
X131326898Y-60109226D01*
X131318249Y-59878842D01*
X131270907Y-59653209D01*
X131268948Y-59648248D01*
X131188185Y-59443744D01*
X131188184Y-59443742D01*
X131186224Y-59438779D01*
X131169831Y-59411763D01*
X131069390Y-59246243D01*
X131066623Y-59241683D01*
X131022666Y-59191027D01*
X130919023Y-59071588D01*
X130919021Y-59071586D01*
X130915523Y-59067555D01*
X130833901Y-59000629D01*
X130741373Y-58924760D01*
X130741367Y-58924756D01*
X130737245Y-58921376D01*
X130705750Y-58903448D01*
X130656445Y-58852368D01*
X130642583Y-58782738D01*
X130668566Y-58716667D01*
X130697716Y-58689427D01*
X130794118Y-58624525D01*
X130819319Y-58607559D01*
X130986135Y-58448424D01*
X131123754Y-58263458D01*
X131129230Y-58252689D01*
X131216512Y-58081016D01*
X131228240Y-58057949D01*
X131259495Y-57957294D01*
X131295024Y-57842871D01*
X131296607Y-57837773D01*
X131299032Y-57819479D01*
X131326198Y-57614511D01*
X131326198Y-57614506D01*
X131326898Y-57609226D01*
X131326560Y-57600206D01*
X131321517Y-57465900D01*
X131318249Y-57378842D01*
X131270907Y-57153209D01*
X131228657Y-57046226D01*
X131188185Y-56943744D01*
X131188184Y-56943742D01*
X131186224Y-56938779D01*
X131179109Y-56927053D01*
X131069390Y-56746243D01*
X131066623Y-56741683D01*
X130979755Y-56641576D01*
X130919023Y-56571588D01*
X130919021Y-56571586D01*
X130915523Y-56567555D01*
X130843421Y-56508435D01*
X130741373Y-56424760D01*
X130741367Y-56424756D01*
X130737245Y-56421376D01*
X130732602Y-56418733D01*
X130705265Y-56403171D01*
X130655959Y-56352088D01*
X130642098Y-56282458D01*
X130668082Y-56216387D01*
X130697232Y-56189149D01*
X130814578Y-56110148D01*
X130822870Y-56103481D01*
X130981900Y-55951772D01*
X130988941Y-55943814D01*
X131120141Y-55767475D01*
X131125745Y-55758438D01*
X131225357Y-55562516D01*
X131229357Y-55552665D01*
X131294534Y-55342760D01*
X131296817Y-55332376D01*
X131298861Y-55316957D01*
X131296665Y-55302793D01*
X131283478Y-55299000D01*
X128398808Y-55299000D01*
X128385277Y-55302973D01*
X128383752Y-55313580D01*
X128408477Y-55431421D01*
X128411537Y-55441617D01*
X128492263Y-55646029D01*
X128496994Y-55655561D01*
X128611016Y-55843462D01*
X128617280Y-55852052D01*
X128761327Y-56018052D01*
X128768958Y-56025472D01*
X128938911Y-56164826D01*
X128947674Y-56170848D01*
X128974711Y-56186238D01*
X129024018Y-56237320D01*
X129037880Y-56306951D01*
X129011897Y-56373022D01*
X128982747Y-56400261D01*
X128946358Y-56424760D01*
X128860681Y-56482441D01*
X128856824Y-56486120D01*
X128856822Y-56486122D01*
X128816426Y-56524658D01*
X128693865Y-56641576D01*
X128556246Y-56826542D01*
X128553830Y-56831293D01*
X128553828Y-56831297D01*
X128516226Y-56905256D01*
X128451760Y-57032051D01*
X128450178Y-57037145D01*
X128450177Y-57037148D01*
X128393203Y-57220635D01*
X128383393Y-57252227D01*
X128382692Y-57257516D01*
X128354204Y-57472463D01*
X128353102Y-57480774D01*
X128361751Y-57711158D01*
X128409093Y-57936791D01*
X128411051Y-57941750D01*
X128411052Y-57941752D01*
X128468309Y-58086734D01*
X128493776Y-58151221D01*
X128496543Y-58155780D01*
X128496544Y-58155783D01*
X128555348Y-58252689D01*
X128613377Y-58348317D01*
X128616874Y-58352347D01*
X128703438Y-58452103D01*
X128764477Y-58522445D01*
X128768608Y-58525832D01*
X128938627Y-58665240D01*
X128938633Y-58665244D01*
X128942755Y-58668624D01*
X128974250Y-58686552D01*
X129023555Y-58737632D01*
X129037417Y-58807262D01*
X129011434Y-58873333D01*
X128982284Y-58900573D01*
X128860681Y-58982441D01*
X128856824Y-58986120D01*
X128856822Y-58986122D01*
X128838421Y-59003676D01*
X128693865Y-59141576D01*
X128690682Y-59145854D01*
X128684853Y-59153688D01*
X128556246Y-59326542D01*
X128451760Y-59532051D01*
X128450178Y-59537145D01*
X128450177Y-59537148D01*
X128388985Y-59734217D01*
X128383393Y-59752227D01*
X128382692Y-59757516D01*
X128356064Y-59958428D01*
X128353102Y-59980774D01*
X125753500Y-59980774D01*
X125753500Y-53422056D01*
X125754059Y-53410200D01*
X125754059Y-53410197D01*
X125755788Y-53402463D01*
X125753562Y-53331631D01*
X125753500Y-53327673D01*
X125753500Y-53298568D01*
X125752944Y-53294168D01*
X125752012Y-53282330D01*
X125750811Y-53244094D01*
X125750562Y-53236169D01*
X125744580Y-53215579D01*
X125740570Y-53196216D01*
X125738875Y-53182796D01*
X125738875Y-53182795D01*
X125737882Y-53174936D01*
X125734966Y-53167571D01*
X125734965Y-53167567D01*
X125720874Y-53131979D01*
X125717035Y-53120769D01*
X125704145Y-53076400D01*
X125693229Y-53057943D01*
X125684534Y-53040193D01*
X125676635Y-53020244D01*
X125671976Y-53013831D01*
X125649477Y-52982864D01*
X125642960Y-52972943D01*
X125619452Y-52933193D01*
X125604291Y-52918032D01*
X125591449Y-52902997D01*
X125578841Y-52885643D01*
X125543248Y-52856198D01*
X125534467Y-52848208D01*
X124767969Y-52081709D01*
X124733944Y-52019397D01*
X124731755Y-52005785D01*
X124719232Y-51886636D01*
X124719232Y-51886635D01*
X124718542Y-51880072D01*
X124702095Y-51829452D01*
X124661569Y-51704729D01*
X124659527Y-51698444D01*
X124564040Y-51533056D01*
X124503194Y-51465479D01*
X124440675Y-51396045D01*
X124440674Y-51396044D01*
X124436253Y-51391134D01*
X124330326Y-51314173D01*
X124287094Y-51282763D01*
X124287093Y-51282762D01*
X124281752Y-51278882D01*
X124275724Y-51276198D01*
X124275722Y-51276197D01*
X124113319Y-51203891D01*
X124113318Y-51203891D01*
X124107288Y-51201206D01*
X124013888Y-51181353D01*
X123926944Y-51162872D01*
X123926939Y-51162872D01*
X123920487Y-51161500D01*
X123729513Y-51161500D01*
X123723061Y-51162872D01*
X123723056Y-51162872D01*
X123636112Y-51181353D01*
X123542712Y-51201206D01*
X123536682Y-51203891D01*
X123536681Y-51203891D01*
X123374278Y-51276197D01*
X123374276Y-51276198D01*
X123368248Y-51278882D01*
X123362907Y-51282762D01*
X123362906Y-51282763D01*
X123319674Y-51314173D01*
X123213747Y-51391134D01*
X123209326Y-51396044D01*
X123209325Y-51396045D01*
X123146807Y-51465479D01*
X123085960Y-51533056D01*
X122990473Y-51698444D01*
X122931458Y-51880072D01*
X122930768Y-51886633D01*
X122930768Y-51886635D01*
X122916471Y-52022661D01*
X122911496Y-52070000D01*
X122912186Y-52076565D01*
X122925350Y-52201809D01*
X122931458Y-52259928D01*
X122990473Y-52441556D01*
X123085960Y-52606944D01*
X123090378Y-52611851D01*
X123090379Y-52611852D01*
X123171654Y-52702117D01*
X123213747Y-52748866D01*
X123302255Y-52813171D01*
X123356263Y-52852410D01*
X123368248Y-52861118D01*
X123374276Y-52863802D01*
X123374278Y-52863803D01*
X123530132Y-52933193D01*
X123542712Y-52938794D01*
X123636113Y-52958647D01*
X123723056Y-52977128D01*
X123723061Y-52977128D01*
X123729513Y-52978500D01*
X123750050Y-52978500D01*
X123818171Y-52998502D01*
X123839145Y-53015405D01*
X124399595Y-53575855D01*
X124433621Y-53638167D01*
X124436500Y-53664950D01*
X124436500Y-61811286D01*
X124435941Y-61823142D01*
X124434212Y-61830879D01*
X124434461Y-61838801D01*
X124436438Y-61901711D01*
X124436500Y-61905669D01*
X124436500Y-61934774D01*
X124437056Y-61939174D01*
X124437988Y-61951006D01*
X124439438Y-61997173D01*
X124441650Y-62004786D01*
X124441650Y-62004787D01*
X124445419Y-62017758D01*
X124449430Y-62037124D01*
X124452118Y-62058406D01*
X124455034Y-62065771D01*
X124455035Y-62065775D01*
X124469126Y-62101363D01*
X124472965Y-62112573D01*
X124485855Y-62156942D01*
X124496775Y-62175407D01*
X124505466Y-62193147D01*
X124513365Y-62213098D01*
X124528218Y-62233541D01*
X124540516Y-62250468D01*
X124547033Y-62260390D01*
X124566507Y-62293319D01*
X124566510Y-62293323D01*
X124570547Y-62300149D01*
X124585711Y-62315313D01*
X124598551Y-62330346D01*
X124611159Y-62347699D01*
X124646752Y-62377144D01*
X124655532Y-62385134D01*
X125669595Y-63399197D01*
X125703621Y-63461509D01*
X125706500Y-63488292D01*
X125706500Y-74847944D01*
X125705941Y-74859800D01*
X125704212Y-74867537D01*
X125704461Y-74875459D01*
X125706438Y-74938369D01*
X125706500Y-74942327D01*
X125706500Y-74971432D01*
X125707056Y-74975832D01*
X125707988Y-74987664D01*
X125709438Y-75033831D01*
X125711650Y-75041444D01*
X125711650Y-75041445D01*
X125715419Y-75054416D01*
X125719430Y-75073782D01*
X125722118Y-75095064D01*
X125725034Y-75102429D01*
X125725035Y-75102433D01*
X125739126Y-75138021D01*
X125742965Y-75149231D01*
X125755855Y-75193600D01*
X125766775Y-75212065D01*
X125775466Y-75229805D01*
X125783365Y-75249756D01*
X125810516Y-75287126D01*
X125817033Y-75297048D01*
X125836507Y-75329977D01*
X125836510Y-75329981D01*
X125840547Y-75336807D01*
X125855711Y-75351971D01*
X125868551Y-75367004D01*
X125881159Y-75384357D01*
X125916752Y-75413802D01*
X125925532Y-75421792D01*
X126396345Y-75892605D01*
X126404335Y-75901385D01*
X126408584Y-75908080D01*
X126414362Y-75913506D01*
X126414363Y-75913507D01*
X126460257Y-75956604D01*
X126463099Y-75959359D01*
X126483667Y-75979927D01*
X126487170Y-75982644D01*
X126496195Y-75990352D01*
X126529867Y-76021972D01*
X126536818Y-76025793D01*
X126536819Y-76025794D01*
X126548658Y-76032303D01*
X126565182Y-76043157D01*
X126575271Y-76050982D01*
X126582132Y-76056304D01*
X126589404Y-76059451D01*
X126589406Y-76059452D01*
X126624535Y-76074654D01*
X126635196Y-76079876D01*
X126675663Y-76102124D01*
X126696441Y-76107459D01*
X126715131Y-76113858D01*
X126734824Y-76122380D01*
X126742647Y-76123619D01*
X126742650Y-76123620D01*
X126780457Y-76129608D01*
X126792079Y-76132015D01*
X126829133Y-76141529D01*
X126829137Y-76141530D01*
X126836812Y-76143500D01*
X126858253Y-76143500D01*
X126877962Y-76145051D01*
X126899152Y-76148407D01*
X126907044Y-76147661D01*
X126945148Y-76144059D01*
X126957006Y-76143500D01*
X128454575Y-76143500D01*
X128522696Y-76163502D01*
X128562293Y-76204133D01*
X128613377Y-76288317D01*
X128616874Y-76292347D01*
X128734914Y-76428376D01*
X128764477Y-76462445D01*
X128768608Y-76465832D01*
X128938627Y-76605240D01*
X128938633Y-76605244D01*
X128942755Y-76608624D01*
X128974250Y-76626552D01*
X129023555Y-76677632D01*
X129037417Y-76747262D01*
X129011434Y-76813333D01*
X128982284Y-76840573D01*
X128860681Y-76922441D01*
X128693865Y-77081576D01*
X128556246Y-77266542D01*
X128553830Y-77271293D01*
X128553828Y-77271297D01*
X128504003Y-77369297D01*
X128451760Y-77472051D01*
X128450178Y-77477145D01*
X128450177Y-77477148D01*
X128407750Y-77613784D01*
X128383393Y-77692227D01*
X128382692Y-77697516D01*
X128354927Y-77907005D01*
X128353102Y-77920774D01*
X128361751Y-78151158D01*
X128409093Y-78376791D01*
X128411051Y-78381750D01*
X128411052Y-78381752D01*
X128425278Y-78417773D01*
X128493776Y-78591221D01*
X128613377Y-78788317D01*
X128616874Y-78792347D01*
X128703438Y-78892103D01*
X128764477Y-78962445D01*
X128768608Y-78965832D01*
X128938627Y-79105240D01*
X128938633Y-79105244D01*
X128942755Y-79108624D01*
X128974250Y-79126552D01*
X129023555Y-79177632D01*
X129037417Y-79247262D01*
X129011434Y-79313333D01*
X128982284Y-79340573D01*
X128860681Y-79422441D01*
X128693865Y-79581576D01*
X128556246Y-79766542D01*
X128555656Y-79767702D01*
X128503664Y-79814250D01*
X128449471Y-79826500D01*
X125894950Y-79826500D01*
X125826829Y-79806498D01*
X125805855Y-79789595D01*
X123250405Y-77234145D01*
X123216379Y-77171833D01*
X123213500Y-77145050D01*
X123213500Y-74334759D01*
X123233502Y-74266638D01*
X123245864Y-74250449D01*
X123289621Y-74201852D01*
X123289622Y-74201851D01*
X123294040Y-74196944D01*
X123389527Y-74031556D01*
X123448542Y-73849928D01*
X123451200Y-73824644D01*
X123467814Y-73666565D01*
X123468504Y-73660000D01*
X123463498Y-73612367D01*
X123449232Y-73476635D01*
X123449232Y-73476633D01*
X123448542Y-73470072D01*
X123389527Y-73288444D01*
X123294040Y-73123056D01*
X123275351Y-73102299D01*
X123170675Y-72986045D01*
X123170674Y-72986044D01*
X123166253Y-72981134D01*
X123048090Y-72895283D01*
X123017094Y-72872763D01*
X123017093Y-72872762D01*
X123011752Y-72868882D01*
X123005724Y-72866198D01*
X123005722Y-72866197D01*
X122843319Y-72793891D01*
X122843318Y-72793891D01*
X122837288Y-72791206D01*
X122743887Y-72771353D01*
X122656944Y-72752872D01*
X122656939Y-72752872D01*
X122650487Y-72751500D01*
X122459513Y-72751500D01*
X122453061Y-72752872D01*
X122453056Y-72752872D01*
X122366113Y-72771353D01*
X122272712Y-72791206D01*
X122266682Y-72793891D01*
X122266681Y-72793891D01*
X122104278Y-72866197D01*
X122104276Y-72866198D01*
X122098248Y-72868882D01*
X122092907Y-72872762D01*
X122092906Y-72872763D01*
X122061910Y-72895283D01*
X121943747Y-72981134D01*
X121939326Y-72986044D01*
X121939325Y-72986045D01*
X121834650Y-73102299D01*
X121815960Y-73123056D01*
X121720473Y-73288444D01*
X121661458Y-73470072D01*
X121660768Y-73476633D01*
X121660768Y-73476635D01*
X121646502Y-73612367D01*
X121641496Y-73660000D01*
X119041260Y-73660000D01*
X121520854Y-71180405D01*
X121583166Y-71146379D01*
X121609949Y-71143500D01*
X123144776Y-71143500D01*
X123212897Y-71163502D01*
X123218834Y-71167562D01*
X123368248Y-71276118D01*
X123374276Y-71278802D01*
X123374278Y-71278803D01*
X123536681Y-71351109D01*
X123542712Y-71353794D01*
X123624469Y-71371172D01*
X123723056Y-71392128D01*
X123723061Y-71392128D01*
X123729513Y-71393500D01*
X123920487Y-71393500D01*
X123926939Y-71392128D01*
X123926944Y-71392128D01*
X124025531Y-71371172D01*
X124107288Y-71353794D01*
X124113319Y-71351109D01*
X124275722Y-71278803D01*
X124275724Y-71278802D01*
X124281752Y-71276118D01*
X124436253Y-71163866D01*
X124506133Y-71086256D01*
X124559621Y-71026852D01*
X124559622Y-71026851D01*
X124564040Y-71021944D01*
X124649747Y-70873495D01*
X124656223Y-70862279D01*
X124656224Y-70862278D01*
X124659527Y-70856556D01*
X124718542Y-70674928D01*
X124720043Y-70660652D01*
X124737814Y-70491565D01*
X124738504Y-70485000D01*
X124731198Y-70415489D01*
X124719232Y-70301635D01*
X124719232Y-70301633D01*
X124718542Y-70295072D01*
X124659527Y-70113444D01*
X124650858Y-70098428D01*
X124580005Y-69975709D01*
X124564040Y-69948056D01*
X124487428Y-69862969D01*
X124440675Y-69811045D01*
X124440674Y-69811044D01*
X124436253Y-69806134D01*
X124281752Y-69693882D01*
X124275724Y-69691198D01*
X124275722Y-69691197D01*
X124113319Y-69618891D01*
X124113318Y-69618891D01*
X124107288Y-69616206D01*
X124013888Y-69596353D01*
X123926944Y-69577872D01*
X123926939Y-69577872D01*
X123920487Y-69576500D01*
X123729513Y-69576500D01*
X123723061Y-69577872D01*
X123723056Y-69577872D01*
X123636112Y-69596353D01*
X123542712Y-69616206D01*
X123536682Y-69618891D01*
X123536681Y-69618891D01*
X123374278Y-69691197D01*
X123374276Y-69691198D01*
X123368248Y-69693882D01*
X123219092Y-69802251D01*
X123218837Y-69802436D01*
X123151969Y-69826294D01*
X123144776Y-69826500D01*
X121367056Y-69826500D01*
X121355200Y-69825941D01*
X121355197Y-69825941D01*
X121347463Y-69824212D01*
X121292446Y-69825941D01*
X121276631Y-69826438D01*
X121272673Y-69826500D01*
X121243568Y-69826500D01*
X121239168Y-69827056D01*
X121227336Y-69827988D01*
X121181169Y-69829438D01*
X121160579Y-69835420D01*
X121141218Y-69839430D01*
X121134230Y-69840312D01*
X121127796Y-69841125D01*
X121127795Y-69841125D01*
X121119936Y-69842118D01*
X121112571Y-69845034D01*
X121112567Y-69845035D01*
X121076982Y-69859124D01*
X121065752Y-69862969D01*
X121021399Y-69875855D01*
X121014575Y-69879891D01*
X121002943Y-69886770D01*
X120985187Y-69895469D01*
X120965244Y-69903365D01*
X120939224Y-69922270D01*
X120927868Y-69930520D01*
X120917949Y-69937035D01*
X120885023Y-69956508D01*
X120885019Y-69956511D01*
X120878193Y-69960548D01*
X120863032Y-69975709D01*
X120848000Y-69988548D01*
X120830643Y-70001159D01*
X120803676Y-70033757D01*
X120801193Y-70036758D01*
X120793203Y-70045538D01*
X117454563Y-73384177D01*
X117445783Y-73392167D01*
X117445781Y-73392169D01*
X117439088Y-73396416D01*
X117433662Y-73402194D01*
X117433661Y-73402195D01*
X117390564Y-73448089D01*
X117387809Y-73450931D01*
X117367241Y-73471499D01*
X117364524Y-73475002D01*
X117356816Y-73484027D01*
X117325196Y-73517699D01*
X117321375Y-73524650D01*
X117321374Y-73524651D01*
X117314865Y-73536490D01*
X117304011Y-73553014D01*
X117300144Y-73558000D01*
X117290864Y-73569964D01*
X117287717Y-73577236D01*
X117287716Y-73577238D01*
X117272514Y-73612367D01*
X117267295Y-73623020D01*
X117264418Y-73628254D01*
X117214076Y-73678316D01*
X117144660Y-73693213D01*
X117078209Y-73668217D01*
X117035822Y-73611262D01*
X117028000Y-73567560D01*
X117028000Y-56554758D01*
X117039674Y-56515000D01*
X119101496Y-56515000D01*
X119102186Y-56521565D01*
X119118043Y-56672432D01*
X119121458Y-56704928D01*
X119180473Y-56886556D01*
X119275960Y-57051944D01*
X119280378Y-57056851D01*
X119280379Y-57056852D01*
X119381141Y-57168760D01*
X119403747Y-57193866D01*
X119558248Y-57306118D01*
X119564276Y-57308802D01*
X119564278Y-57308803D01*
X119726681Y-57381109D01*
X119732712Y-57383794D01*
X119796888Y-57397435D01*
X119913056Y-57422128D01*
X119913061Y-57422128D01*
X119919513Y-57423500D01*
X120110487Y-57423500D01*
X120116939Y-57422128D01*
X120116944Y-57422128D01*
X120233112Y-57397435D01*
X120297288Y-57383794D01*
X120303319Y-57381109D01*
X120465722Y-57308803D01*
X120465724Y-57308802D01*
X120471752Y-57306118D01*
X120626253Y-57193866D01*
X120648859Y-57168760D01*
X120749621Y-57056852D01*
X120749622Y-57056851D01*
X120754040Y-57051944D01*
X120849527Y-56886556D01*
X120908542Y-56704928D01*
X120911958Y-56672432D01*
X120927814Y-56521565D01*
X120928504Y-56515000D01*
X120917079Y-56406296D01*
X120909232Y-56331635D01*
X120909232Y-56331633D01*
X120908542Y-56325072D01*
X120849527Y-56143444D01*
X120830304Y-56110148D01*
X120807082Y-56069927D01*
X120790381Y-56041000D01*
X120773500Y-55978001D01*
X120773500Y-51801371D01*
X120793502Y-51733250D01*
X120810405Y-51712276D01*
X122197275Y-50325405D01*
X122259587Y-50291380D01*
X122286370Y-50288500D01*
X125998629Y-50288500D01*
X126066750Y-50308502D01*
X126087724Y-50325405D01*
X128319595Y-52557276D01*
X128353621Y-52619588D01*
X128356500Y-52646371D01*
X128356500Y-53195400D01*
X128356837Y-53198646D01*
X128356837Y-53198650D01*
X128365520Y-53282330D01*
X128367474Y-53301166D01*
X128369655Y-53307702D01*
X128369655Y-53307704D01*
X128377638Y-53331631D01*
X128423450Y-53468946D01*
X128516522Y-53619348D01*
X128641697Y-53744305D01*
X128787258Y-53834030D01*
X128787780Y-53834352D01*
X128835273Y-53887124D01*
X128846697Y-53957196D01*
X128818423Y-54022320D01*
X128808636Y-54032782D01*
X128698094Y-54138234D01*
X128691059Y-54146186D01*
X128559859Y-54322525D01*
X128554255Y-54331562D01*
X128454643Y-54527484D01*
X128450643Y-54537335D01*
X128385466Y-54747240D01*
X128383183Y-54757624D01*
X128381139Y-54773043D01*
X128383335Y-54787207D01*
X128396522Y-54791000D01*
X131281192Y-54791000D01*
X131294723Y-54787027D01*
X131296248Y-54776420D01*
X131271523Y-54658579D01*
X131268463Y-54648383D01*
X131187737Y-54443971D01*
X131183006Y-54434439D01*
X131068984Y-54246538D01*
X131062720Y-54237948D01*
X130918673Y-54071948D01*
X130911044Y-54064530D01*
X130879431Y-54038609D01*
X130839436Y-53979949D01*
X130837504Y-53908979D01*
X130874248Y-53848230D01*
X130893018Y-53834030D01*
X131033120Y-53747332D01*
X131039348Y-53743478D01*
X131164305Y-53618303D01*
X131168146Y-53612072D01*
X131253275Y-53473968D01*
X131253276Y-53473966D01*
X131257115Y-53467738D01*
X131283564Y-53387995D01*
X131310632Y-53306389D01*
X131310632Y-53306387D01*
X131312797Y-53299861D01*
X131313985Y-53288273D01*
X131320103Y-53228555D01*
X131323500Y-53195400D01*
X131323500Y-51894600D01*
X131321341Y-51873793D01*
X131313238Y-51795692D01*
X131313237Y-51795688D01*
X131312526Y-51788834D01*
X131305500Y-51767773D01*
X131258868Y-51628002D01*
X131256550Y-51621054D01*
X131163478Y-51470652D01*
X131038303Y-51345695D01*
X131012773Y-51329958D01*
X130893968Y-51256725D01*
X130893966Y-51256724D01*
X130887738Y-51252885D01*
X130807995Y-51226436D01*
X130726389Y-51199368D01*
X130726387Y-51199368D01*
X130719861Y-51197203D01*
X130713025Y-51196503D01*
X130713022Y-51196502D01*
X130669969Y-51192091D01*
X130615400Y-51186500D01*
X129146371Y-51186500D01*
X129078250Y-51166498D01*
X129057276Y-51149595D01*
X126948770Y-49041089D01*
X126936384Y-49026677D01*
X126927851Y-49015082D01*
X126927846Y-49015077D01*
X126923508Y-49009182D01*
X126917930Y-49004443D01*
X126917927Y-49004440D01*
X126883232Y-48974965D01*
X126875716Y-48968035D01*
X126870021Y-48962340D01*
X126853736Y-48949456D01*
X126847749Y-48944719D01*
X126844345Y-48941928D01*
X126794297Y-48899409D01*
X126794295Y-48899408D01*
X126788715Y-48894667D01*
X126782199Y-48891339D01*
X126777150Y-48887972D01*
X126772021Y-48884805D01*
X126766284Y-48880266D01*
X126700125Y-48849345D01*
X126696225Y-48847439D01*
X126631192Y-48814231D01*
X126624084Y-48812492D01*
X126618441Y-48810393D01*
X126612678Y-48808476D01*
X126606050Y-48805378D01*
X126534583Y-48790513D01*
X126530299Y-48789543D01*
X126459390Y-48772192D01*
X126453788Y-48771844D01*
X126453785Y-48771844D01*
X126448236Y-48771500D01*
X126448238Y-48771464D01*
X126444245Y-48771225D01*
X126440053Y-48770851D01*
X126432885Y-48769360D01*
X126376439Y-48770887D01*
X126355479Y-48771454D01*
X126352072Y-48771500D01*
X121987070Y-48771500D01*
X121968120Y-48770067D01*
X121953885Y-48767901D01*
X121953881Y-48767901D01*
X121946651Y-48766801D01*
X121939359Y-48767394D01*
X121939356Y-48767394D01*
X121893982Y-48771085D01*
X121883767Y-48771500D01*
X121875707Y-48771500D01*
X121872073Y-48771924D01*
X121872067Y-48771924D01*
X121859042Y-48773443D01*
X121847480Y-48774791D01*
X121843132Y-48775221D01*
X121770364Y-48781140D01*
X121763403Y-48783395D01*
X121757463Y-48784582D01*
X121751588Y-48785971D01*
X121744319Y-48786818D01*
X121675670Y-48811736D01*
X121671542Y-48813153D01*
X121609064Y-48833393D01*
X121609062Y-48833394D01*
X121602101Y-48835649D01*
X121595846Y-48839445D01*
X121590372Y-48841951D01*
X121584942Y-48844670D01*
X121578063Y-48847167D01*
X121571943Y-48851180D01*
X121571942Y-48851180D01*
X121517024Y-48887186D01*
X121513320Y-48889523D01*
X121450893Y-48927405D01*
X121442516Y-48934803D01*
X121442492Y-48934776D01*
X121439500Y-48937429D01*
X121436267Y-48940132D01*
X121430148Y-48944144D01*
X121400951Y-48974965D01*
X121376872Y-49000383D01*
X121374494Y-49002825D01*
X119526089Y-50851230D01*
X119511677Y-50863616D01*
X119500082Y-50872149D01*
X119500077Y-50872154D01*
X119494182Y-50876492D01*
X119489443Y-50882070D01*
X119489440Y-50882073D01*
X119459965Y-50916768D01*
X119453035Y-50924284D01*
X119447340Y-50929979D01*
X119445060Y-50932861D01*
X119429719Y-50952251D01*
X119426928Y-50955655D01*
X119384409Y-51005703D01*
X119379667Y-51011285D01*
X119376339Y-51017801D01*
X119372972Y-51022850D01*
X119369805Y-51027979D01*
X119365266Y-51033716D01*
X119334345Y-51099875D01*
X119332442Y-51103769D01*
X119299231Y-51168808D01*
X119297492Y-51175916D01*
X119295393Y-51181559D01*
X119293476Y-51187322D01*
X119290378Y-51193950D01*
X119288888Y-51201112D01*
X119288888Y-51201113D01*
X119275514Y-51265412D01*
X119274544Y-51269696D01*
X119257192Y-51340610D01*
X119256500Y-51351764D01*
X119256464Y-51351762D01*
X119256225Y-51355755D01*
X119255851Y-51359947D01*
X119254360Y-51367115D01*
X119254558Y-51374432D01*
X119256454Y-51444521D01*
X119256500Y-51447928D01*
X119256500Y-55978001D01*
X119239619Y-56041000D01*
X119222918Y-56069927D01*
X119199697Y-56110148D01*
X119180473Y-56143444D01*
X119121458Y-56325072D01*
X119120768Y-56331633D01*
X119120768Y-56331635D01*
X119112921Y-56406296D01*
X119101496Y-56515000D01*
X117039674Y-56515000D01*
X117048002Y-56486637D01*
X117060364Y-56470448D01*
X117104121Y-56421851D01*
X117104122Y-56421850D01*
X117108540Y-56416943D01*
X117204027Y-56251555D01*
X117263042Y-56069927D01*
X117267715Y-56025472D01*
X117282314Y-55886564D01*
X117283004Y-55879999D01*
X117271726Y-55772694D01*
X117263732Y-55696634D01*
X117263732Y-55696632D01*
X117263042Y-55690071D01*
X117204027Y-55508443D01*
X117186662Y-55478365D01*
X117111841Y-55348773D01*
X117108540Y-55343055D01*
X117040164Y-55267115D01*
X116985175Y-55206044D01*
X116985174Y-55206043D01*
X116980753Y-55201133D01*
X116826252Y-55088881D01*
X116820224Y-55086197D01*
X116820222Y-55086196D01*
X116657819Y-55013890D01*
X116657818Y-55013890D01*
X116651788Y-55011205D01*
X116558388Y-54991352D01*
X116471444Y-54972871D01*
X116471439Y-54972871D01*
X116464987Y-54971499D01*
X116354500Y-54971499D01*
X116286379Y-54951497D01*
X116239886Y-54897841D01*
X116228500Y-54845499D01*
X116228500Y-52395313D01*
X116229059Y-52383457D01*
X116230789Y-52375717D01*
X116228562Y-52304865D01*
X116228500Y-52300907D01*
X116228500Y-52271822D01*
X116227946Y-52267433D01*
X116227013Y-52255591D01*
X116225811Y-52217348D01*
X116225562Y-52209423D01*
X116219580Y-52188833D01*
X116215570Y-52169470D01*
X116213875Y-52156050D01*
X116213875Y-52156049D01*
X116212882Y-52148190D01*
X116209966Y-52140825D01*
X116209965Y-52140821D01*
X116195874Y-52105233D01*
X116192035Y-52094023D01*
X116179145Y-52049654D01*
X116168225Y-52031189D01*
X116159534Y-52013449D01*
X116151635Y-51993498D01*
X116124482Y-51956125D01*
X116117967Y-51946206D01*
X116098493Y-51913277D01*
X116098490Y-51913273D01*
X116094453Y-51906447D01*
X116079289Y-51891283D01*
X116066448Y-51876249D01*
X116058501Y-51865311D01*
X116053841Y-51858897D01*
X116018247Y-51829451D01*
X116009468Y-51821462D01*
X112668613Y-48480607D01*
X112634587Y-48418295D01*
X112632398Y-48404683D01*
X112619875Y-48285533D01*
X112619875Y-48285532D01*
X112619185Y-48278969D01*
X112560170Y-48097341D01*
X112464683Y-47931953D01*
X112369944Y-47826734D01*
X112341318Y-47794942D01*
X112341317Y-47794941D01*
X112336896Y-47790031D01*
X112237800Y-47718033D01*
X112187737Y-47681660D01*
X112187736Y-47681659D01*
X112182395Y-47677779D01*
X112176367Y-47675095D01*
X112176365Y-47675094D01*
X112013962Y-47602788D01*
X112013961Y-47602788D01*
X112007931Y-47600103D01*
X111896611Y-47576441D01*
X111827587Y-47561769D01*
X111827582Y-47561769D01*
X111821130Y-47560397D01*
X111630156Y-47560397D01*
X111623704Y-47561769D01*
X111623699Y-47561769D01*
X111554675Y-47576441D01*
X111443355Y-47600103D01*
X111437325Y-47602788D01*
X111437324Y-47602788D01*
X111274921Y-47675094D01*
X111274919Y-47675095D01*
X111268891Y-47677779D01*
X111263550Y-47681659D01*
X111263549Y-47681660D01*
X111213486Y-47718033D01*
X111114390Y-47790031D01*
X111109969Y-47794941D01*
X111109968Y-47794942D01*
X111081343Y-47826734D01*
X110986603Y-47931953D01*
X110891116Y-48097341D01*
X110832101Y-48278969D01*
X110831411Y-48285530D01*
X110831411Y-48285532D01*
X110823789Y-48358056D01*
X110812139Y-48468897D01*
X110812829Y-48475462D01*
X110823873Y-48580536D01*
X110832101Y-48658825D01*
X110891116Y-48840453D01*
X110894419Y-48846175D01*
X110894420Y-48846176D01*
X110922609Y-48895000D01*
X110986603Y-49005841D01*
X110991021Y-49010748D01*
X110991022Y-49010749D01*
X111005364Y-49026677D01*
X111114390Y-49147763D01*
X111268891Y-49260015D01*
X111274919Y-49262699D01*
X111274921Y-49262700D01*
X111437324Y-49335006D01*
X111443355Y-49337691D01*
X111536755Y-49357544D01*
X111623699Y-49376025D01*
X111623704Y-49376025D01*
X111630156Y-49377397D01*
X111650693Y-49377397D01*
X111718814Y-49397399D01*
X111739788Y-49414302D01*
X114874595Y-52549109D01*
X114908621Y-52611421D01*
X114911500Y-52638204D01*
X114911500Y-91997461D01*
X114891498Y-92065582D01*
X114837842Y-92112075D01*
X114767568Y-92122179D01*
X114702988Y-92092685D01*
X114696405Y-92086556D01*
X112510764Y-89900915D01*
X112476738Y-89838603D01*
X112473859Y-89811820D01*
X112473859Y-57957294D01*
X112493861Y-57889173D01*
X112506223Y-57872984D01*
X112549980Y-57824387D01*
X112549981Y-57824386D01*
X112554399Y-57819479D01*
X112649886Y-57654091D01*
X112708901Y-57472463D01*
X112714192Y-57422128D01*
X112728173Y-57289100D01*
X112728863Y-57282535D01*
X112721008Y-57207796D01*
X112709591Y-57099170D01*
X112709591Y-57099168D01*
X112708901Y-57092607D01*
X112649886Y-56910979D01*
X112640586Y-56894870D01*
X112567378Y-56768071D01*
X112554399Y-56745591D01*
X112516544Y-56703548D01*
X112431034Y-56608580D01*
X112431033Y-56608579D01*
X112426612Y-56603669D01*
X112272111Y-56491417D01*
X112266083Y-56488733D01*
X112266081Y-56488732D01*
X112103678Y-56416426D01*
X112103677Y-56416426D01*
X112097647Y-56413741D01*
X111987663Y-56390363D01*
X111917303Y-56375407D01*
X111917298Y-56375407D01*
X111910846Y-56374035D01*
X111719872Y-56374035D01*
X111713420Y-56375407D01*
X111713415Y-56375407D01*
X111643055Y-56390363D01*
X111533071Y-56413741D01*
X111527041Y-56416426D01*
X111527040Y-56416426D01*
X111364637Y-56488732D01*
X111364635Y-56488733D01*
X111358607Y-56491417D01*
X111204106Y-56603669D01*
X111199685Y-56608579D01*
X111199684Y-56608580D01*
X111114175Y-56703548D01*
X111076319Y-56745591D01*
X111063340Y-56768071D01*
X110990133Y-56894870D01*
X110980832Y-56910979D01*
X110921817Y-57092607D01*
X110921127Y-57099168D01*
X110921127Y-57099170D01*
X110909710Y-57207796D01*
X110901855Y-57282535D01*
X110902545Y-57289100D01*
X110916527Y-57422128D01*
X110921817Y-57472463D01*
X110980832Y-57654091D01*
X111076319Y-57819479D01*
X111080737Y-57824386D01*
X111080738Y-57824387D01*
X111124495Y-57872984D01*
X111155213Y-57936991D01*
X111156859Y-57957294D01*
X111156859Y-85474245D01*
X111136857Y-85542366D01*
X111083201Y-85588859D01*
X111012927Y-85598963D01*
X110956797Y-85576180D01*
X110952095Y-85572764D01*
X110946752Y-85568882D01*
X110940724Y-85566198D01*
X110940722Y-85566197D01*
X110778319Y-85493891D01*
X110778318Y-85493891D01*
X110772288Y-85491206D01*
X110678887Y-85471353D01*
X110591944Y-85452872D01*
X110591939Y-85452872D01*
X110585487Y-85451500D01*
X110564950Y-85451500D01*
X110496829Y-85431498D01*
X110475854Y-85414595D01*
X109915404Y-84854144D01*
X109881379Y-84791832D01*
X109878500Y-84765049D01*
X109878500Y-69666924D01*
X109898502Y-69598803D01*
X109930439Y-69564988D01*
X109974644Y-69532871D01*
X109982060Y-69527483D01*
X110091104Y-69406377D01*
X110105428Y-69390469D01*
X110105429Y-69390468D01*
X110109847Y-69385561D01*
X110180114Y-69263855D01*
X110202030Y-69225896D01*
X110202031Y-69225894D01*
X110205334Y-69220173D01*
X110264349Y-69038545D01*
X110273917Y-68947516D01*
X110283621Y-68855182D01*
X110284311Y-68848617D01*
X110273018Y-68741166D01*
X110265039Y-68665252D01*
X110265039Y-68665250D01*
X110264349Y-68658689D01*
X110205334Y-68477061D01*
X110109847Y-68311673D01*
X110056957Y-68252932D01*
X109986482Y-68174662D01*
X109986481Y-68174661D01*
X109982060Y-68169751D01*
X109827559Y-68057499D01*
X109821531Y-68054815D01*
X109821529Y-68054814D01*
X109659126Y-67982508D01*
X109659125Y-67982508D01*
X109653095Y-67979823D01*
X109559694Y-67959970D01*
X109472751Y-67941489D01*
X109472746Y-67941489D01*
X109466294Y-67940117D01*
X109275320Y-67940117D01*
X109268868Y-67941489D01*
X109268863Y-67941489D01*
X109181920Y-67959970D01*
X109088519Y-67979823D01*
X109082489Y-67982508D01*
X109082488Y-67982508D01*
X108920085Y-68054814D01*
X108920083Y-68054815D01*
X108914055Y-68057499D01*
X108759554Y-68169751D01*
X108755133Y-68174661D01*
X108755132Y-68174662D01*
X108684658Y-68252932D01*
X108631767Y-68311673D01*
X108536280Y-68477061D01*
X108477265Y-68658689D01*
X108476575Y-68665250D01*
X108476575Y-68665252D01*
X108468596Y-68741166D01*
X108457303Y-68848617D01*
X99818500Y-68848617D01*
X99818500Y-49431999D01*
X99835381Y-49368999D01*
X99891223Y-49272279D01*
X99891224Y-49272278D01*
X99894527Y-49266556D01*
X99953542Y-49084928D01*
X99958859Y-49034345D01*
X99972814Y-48901565D01*
X99973504Y-48895000D01*
X99968477Y-48847167D01*
X99954232Y-48711635D01*
X99954232Y-48711633D01*
X99953542Y-48705072D01*
X99894527Y-48523444D01*
X99799040Y-48358056D01*
X99671253Y-48216134D01*
X99516752Y-48103882D01*
X99510724Y-48101198D01*
X99510722Y-48101197D01*
X99348319Y-48028891D01*
X99348318Y-48028891D01*
X99342288Y-48026206D01*
X99248887Y-48006353D01*
X99161944Y-47987872D01*
X99161939Y-47987872D01*
X99155487Y-47986500D01*
X98964513Y-47986500D01*
X98958061Y-47987872D01*
X98958056Y-47987872D01*
X98871112Y-48006353D01*
X98777712Y-48026206D01*
X98771682Y-48028891D01*
X98771681Y-48028891D01*
X98609278Y-48101197D01*
X98609276Y-48101198D01*
X98603248Y-48103882D01*
X98448747Y-48216134D01*
X98320960Y-48358056D01*
X98225473Y-48523444D01*
X98166458Y-48705072D01*
X98165768Y-48711633D01*
X98165768Y-48711635D01*
X98151523Y-48847167D01*
X98146496Y-48895000D01*
X98147186Y-48901565D01*
X98161142Y-49034345D01*
X98166458Y-49084928D01*
X98225473Y-49266556D01*
X98228776Y-49272278D01*
X98228777Y-49272279D01*
X98284619Y-49368999D01*
X98301500Y-49431999D01*
X98301500Y-70399730D01*
X98300067Y-70418680D01*
X98296801Y-70440149D01*
X98297394Y-70447441D01*
X98297394Y-70447444D01*
X98301085Y-70492818D01*
X98301500Y-70503033D01*
X98301500Y-70511093D01*
X98301925Y-70514737D01*
X98304789Y-70539307D01*
X98305222Y-70543682D01*
X98311140Y-70616437D01*
X98313396Y-70623401D01*
X98314587Y-70629360D01*
X98315971Y-70635215D01*
X98316818Y-70642481D01*
X98341735Y-70711127D01*
X98343152Y-70715255D01*
X98365649Y-70784699D01*
X98369445Y-70790954D01*
X98371951Y-70796428D01*
X98374670Y-70801858D01*
X98377167Y-70808737D01*
X98381180Y-70814857D01*
X98381180Y-70814858D01*
X98417186Y-70869776D01*
X98419523Y-70873480D01*
X98457405Y-70935907D01*
X98461121Y-70940115D01*
X98461122Y-70940116D01*
X98464803Y-70944284D01*
X98464776Y-70944308D01*
X98467428Y-70947299D01*
X98470132Y-70950533D01*
X98474144Y-70956652D01*
X98479457Y-70961685D01*
X98530365Y-71009911D01*
X98532807Y-71012288D01*
X99364282Y-71843762D01*
X100169595Y-72649075D01*
X100203620Y-72711387D01*
X100206500Y-72738170D01*
X100206500Y-87728001D01*
X100189619Y-87791000D01*
X100130473Y-87893444D01*
X100071458Y-88075072D01*
X100051496Y-88265000D01*
X100052186Y-88271565D01*
X100069958Y-88440652D01*
X100071458Y-88454928D01*
X100130473Y-88636556D01*
X100133776Y-88642278D01*
X100133777Y-88642279D01*
X100189619Y-88738999D01*
X100206500Y-88801999D01*
X100206500Y-88998001D01*
X100189619Y-89061000D01*
X100130473Y-89163444D01*
X100083496Y-89308025D01*
X100075613Y-89332285D01*
X100044875Y-89382444D01*
X98312987Y-91114332D01*
X98250675Y-91148358D01*
X98223892Y-91151237D01*
X85938608Y-91151237D01*
X85870487Y-91131235D01*
X85849513Y-91114332D01*
X84722905Y-89987724D01*
X84688879Y-89925412D01*
X84686000Y-89898629D01*
X84686000Y-88864600D01*
X84675026Y-88758834D01*
X84619050Y-88591054D01*
X84525978Y-88440652D01*
X84400803Y-88315695D01*
X84255160Y-88225919D01*
X84207668Y-88173148D01*
X84196244Y-88103076D01*
X84224518Y-88037952D01*
X84234305Y-88027490D01*
X84344778Y-87922103D01*
X84348635Y-87918424D01*
X84486254Y-87733458D01*
X84489029Y-87728001D01*
X84588322Y-87532704D01*
X84590740Y-87527949D01*
X84626821Y-87411752D01*
X84657524Y-87312871D01*
X84659107Y-87307773D01*
X84675120Y-87186954D01*
X84688698Y-87084511D01*
X84688698Y-87084506D01*
X84689398Y-87079226D01*
X84687699Y-87033955D01*
X84680949Y-86854173D01*
X84680749Y-86848842D01*
X84633407Y-86623209D01*
X84607540Y-86557709D01*
X84550685Y-86413744D01*
X84550684Y-86413742D01*
X84548724Y-86408779D01*
X84429123Y-86211683D01*
X84342255Y-86111576D01*
X84281523Y-86041588D01*
X84281521Y-86041586D01*
X84278023Y-86037555D01*
X84236470Y-86003484D01*
X84103873Y-85894760D01*
X84103867Y-85894756D01*
X84099745Y-85891376D01*
X84095109Y-85888737D01*
X84095106Y-85888735D01*
X83904029Y-85779968D01*
X83899386Y-85777325D01*
X83682675Y-85698663D01*
X83677426Y-85697714D01*
X83677423Y-85697713D01*
X83459892Y-85658377D01*
X83459885Y-85658376D01*
X83455808Y-85657639D01*
X83438086Y-85656803D01*
X83433144Y-85656570D01*
X83433137Y-85656570D01*
X83431656Y-85656500D01*
X82969610Y-85656500D01*
X82902691Y-85662178D01*
X82803091Y-85670629D01*
X82803087Y-85670630D01*
X82797780Y-85671080D01*
X82792625Y-85672418D01*
X82792619Y-85672419D01*
X82579797Y-85727657D01*
X82579793Y-85727658D01*
X82574628Y-85728999D01*
X82569762Y-85731191D01*
X82569759Y-85731192D01*
X82461480Y-85779968D01*
X82364425Y-85823688D01*
X82173181Y-85952441D01*
X82006365Y-86111576D01*
X81868746Y-86296542D01*
X81764260Y-86502051D01*
X81762678Y-86507145D01*
X81762677Y-86507148D01*
X81708811Y-86680626D01*
X81695893Y-86722227D01*
X81695192Y-86727516D01*
X81679804Y-86843623D01*
X81665602Y-86950774D01*
X76073500Y-86950774D01*
X76073500Y-78060774D01*
X81665602Y-78060774D01*
X81674251Y-78291158D01*
X81721593Y-78516791D01*
X81723551Y-78521750D01*
X81723552Y-78521752D01*
X81752789Y-78595783D01*
X81806276Y-78731221D01*
X81809043Y-78735780D01*
X81809044Y-78735783D01*
X81840923Y-78788317D01*
X81925877Y-78928317D01*
X81929374Y-78932347D01*
X82029350Y-79047559D01*
X82076977Y-79102445D01*
X82112620Y-79131670D01*
X82152614Y-79190329D01*
X82154546Y-79261299D01*
X82117802Y-79322048D01*
X82099032Y-79336248D01*
X82092043Y-79340573D01*
X81953152Y-79426522D01*
X81828195Y-79551697D01*
X81735385Y-79702262D01*
X81679703Y-79870139D01*
X81679003Y-79876975D01*
X81679002Y-79876978D01*
X81678309Y-79883744D01*
X81669000Y-79974600D01*
X81669000Y-81275400D01*
X81679974Y-81381166D01*
X81735950Y-81548946D01*
X81829022Y-81699348D01*
X81954197Y-81824305D01*
X81960427Y-81828145D01*
X81960428Y-81828146D01*
X82097590Y-81912694D01*
X82104762Y-81917115D01*
X82184505Y-81943564D01*
X82266111Y-81970632D01*
X82266113Y-81970632D01*
X82272639Y-81972797D01*
X82279475Y-81973497D01*
X82279478Y-81973498D01*
X82322531Y-81977909D01*
X82377100Y-81983500D01*
X83977900Y-81983500D01*
X83981146Y-81983163D01*
X83981150Y-81983163D01*
X84076808Y-81973238D01*
X84076812Y-81973237D01*
X84083666Y-81972526D01*
X84090202Y-81970345D01*
X84090204Y-81970345D01*
X84222306Y-81926272D01*
X84251446Y-81916550D01*
X84401848Y-81823478D01*
X84526805Y-81698303D01*
X84530646Y-81692072D01*
X84615775Y-81553968D01*
X84615776Y-81553966D01*
X84619615Y-81547738D01*
X84675297Y-81379861D01*
X84686000Y-81275400D01*
X84686000Y-79974600D01*
X84675026Y-79868834D01*
X84619050Y-79701054D01*
X84525978Y-79550652D01*
X84400803Y-79425695D01*
X84255160Y-79335919D01*
X84207668Y-79283148D01*
X84196244Y-79213076D01*
X84224518Y-79147952D01*
X84234305Y-79137490D01*
X84280885Y-79093054D01*
X84348635Y-79028424D01*
X84486254Y-78843458D01*
X84590740Y-78637949D01*
X84626821Y-78521752D01*
X84657524Y-78422871D01*
X84659107Y-78417773D01*
X84665230Y-78371572D01*
X84688698Y-78194511D01*
X84688698Y-78194506D01*
X84689398Y-78189226D01*
X84680749Y-77958842D01*
X84633407Y-77733209D01*
X84619311Y-77697516D01*
X84550685Y-77523744D01*
X84550684Y-77523742D01*
X84548724Y-77518779D01*
X84526605Y-77482327D01*
X84431890Y-77326243D01*
X84429123Y-77321683D01*
X84392118Y-77279038D01*
X84281523Y-77151588D01*
X84281521Y-77151586D01*
X84278023Y-77147555D01*
X84191081Y-77076267D01*
X84103873Y-77004760D01*
X84103867Y-77004756D01*
X84099745Y-77001376D01*
X84095109Y-76998737D01*
X84095106Y-76998735D01*
X83904029Y-76889968D01*
X83899386Y-76887325D01*
X83682675Y-76808663D01*
X83677426Y-76807714D01*
X83677423Y-76807713D01*
X83459892Y-76768377D01*
X83459885Y-76768376D01*
X83455808Y-76767639D01*
X83438086Y-76766803D01*
X83433144Y-76766570D01*
X83433137Y-76766570D01*
X83431656Y-76766500D01*
X82969610Y-76766500D01*
X82902691Y-76772178D01*
X82803091Y-76780629D01*
X82803087Y-76780630D01*
X82797780Y-76781080D01*
X82792625Y-76782418D01*
X82792619Y-76782419D01*
X82579797Y-76837657D01*
X82579793Y-76837658D01*
X82574628Y-76838999D01*
X82569762Y-76841191D01*
X82569759Y-76841192D01*
X82440393Y-76899467D01*
X82364425Y-76933688D01*
X82173181Y-77062441D01*
X82169324Y-77066120D01*
X82169322Y-77066122D01*
X82156979Y-77077897D01*
X82006365Y-77221576D01*
X81868746Y-77406542D01*
X81866330Y-77411293D01*
X81866328Y-77411297D01*
X81832848Y-77477148D01*
X81764260Y-77612051D01*
X81762678Y-77617145D01*
X81762677Y-77617148D01*
X81726639Y-77733209D01*
X81695893Y-77832227D01*
X81695192Y-77837516D01*
X81667133Y-78049226D01*
X81665602Y-78060774D01*
X76073500Y-78060774D01*
X76073500Y-69170774D01*
X81665602Y-69170774D01*
X81665802Y-69176103D01*
X81665802Y-69176105D01*
X81667671Y-69225894D01*
X81674251Y-69401158D01*
X81721593Y-69626791D01*
X81723551Y-69631750D01*
X81723552Y-69631752D01*
X81803985Y-69835419D01*
X81806276Y-69841221D01*
X81809043Y-69845780D01*
X81809044Y-69845783D01*
X81882090Y-69966159D01*
X81925877Y-70038317D01*
X81929374Y-70042347D01*
X82059433Y-70192227D01*
X82076977Y-70212445D01*
X82112620Y-70241670D01*
X82152614Y-70300329D01*
X82154546Y-70371299D01*
X82117802Y-70432048D01*
X82099032Y-70446248D01*
X82015532Y-70497920D01*
X81953152Y-70536522D01*
X81828195Y-70661697D01*
X81824355Y-70667927D01*
X81824354Y-70667928D01*
X81759905Y-70772484D01*
X81735385Y-70812262D01*
X81718795Y-70862279D01*
X81691588Y-70944308D01*
X81679703Y-70980139D01*
X81679003Y-70986975D01*
X81679002Y-70986978D01*
X81675420Y-71021944D01*
X81669000Y-71084600D01*
X81669000Y-72385400D01*
X81669337Y-72388646D01*
X81669337Y-72388650D01*
X81677517Y-72467484D01*
X81679974Y-72491166D01*
X81735950Y-72658946D01*
X81829022Y-72809348D01*
X81954197Y-72934305D01*
X81960427Y-72938145D01*
X81960428Y-72938146D01*
X82097590Y-73022694D01*
X82104762Y-73027115D01*
X82125921Y-73034133D01*
X82266111Y-73080632D01*
X82266113Y-73080632D01*
X82272639Y-73082797D01*
X82279475Y-73083497D01*
X82279478Y-73083498D01*
X82322531Y-73087909D01*
X82377100Y-73093500D01*
X83977900Y-73093500D01*
X83981146Y-73093163D01*
X83981150Y-73093163D01*
X84076808Y-73083238D01*
X84076812Y-73083237D01*
X84083666Y-73082526D01*
X84090202Y-73080345D01*
X84090204Y-73080345D01*
X84228717Y-73034133D01*
X84251446Y-73026550D01*
X84401848Y-72933478D01*
X84526805Y-72808303D01*
X84572073Y-72734865D01*
X84615775Y-72663968D01*
X84615776Y-72663966D01*
X84619615Y-72657738D01*
X84675297Y-72489861D01*
X84676581Y-72477335D01*
X84680409Y-72439969D01*
X84686000Y-72385400D01*
X84686000Y-71084600D01*
X84685051Y-71075449D01*
X84675738Y-70985692D01*
X84675737Y-70985688D01*
X84675026Y-70978834D01*
X84667626Y-70956652D01*
X84621368Y-70818002D01*
X84619050Y-70811054D01*
X84525978Y-70660652D01*
X84400803Y-70535695D01*
X84255160Y-70445919D01*
X84207668Y-70393148D01*
X84196244Y-70323076D01*
X84224518Y-70257952D01*
X84234305Y-70247490D01*
X84292235Y-70192227D01*
X84348635Y-70138424D01*
X84486254Y-69953458D01*
X84497917Y-69930520D01*
X84549309Y-69829438D01*
X84590740Y-69747949D01*
X84606324Y-69697763D01*
X84657524Y-69532871D01*
X84659107Y-69527773D01*
X84665660Y-69478331D01*
X84688698Y-69304511D01*
X84688698Y-69304506D01*
X84689398Y-69299226D01*
X84680749Y-69068842D01*
X84633407Y-68843209D01*
X84616876Y-68801349D01*
X84550685Y-68633744D01*
X84550684Y-68633742D01*
X84548724Y-68628779D01*
X84429123Y-68431683D01*
X84342255Y-68331576D01*
X84281523Y-68261588D01*
X84281521Y-68261586D01*
X84278023Y-68257555D01*
X84236470Y-68223484D01*
X84103873Y-68114760D01*
X84103867Y-68114756D01*
X84099745Y-68111376D01*
X84095109Y-68108737D01*
X84095106Y-68108735D01*
X83904029Y-67999968D01*
X83899386Y-67997325D01*
X83682675Y-67918663D01*
X83677426Y-67917714D01*
X83677423Y-67917713D01*
X83459892Y-67878377D01*
X83459885Y-67878376D01*
X83455808Y-67877639D01*
X83438086Y-67876803D01*
X83433144Y-67876570D01*
X83433137Y-67876570D01*
X83431656Y-67876500D01*
X82969610Y-67876500D01*
X82902691Y-67882178D01*
X82803091Y-67890629D01*
X82803087Y-67890630D01*
X82797780Y-67891080D01*
X82792625Y-67892418D01*
X82792619Y-67892419D01*
X82579797Y-67947657D01*
X82579793Y-67947658D01*
X82574628Y-67948999D01*
X82569762Y-67951191D01*
X82569759Y-67951192D01*
X82461480Y-67999968D01*
X82364425Y-68043688D01*
X82173181Y-68172441D01*
X82006365Y-68331576D01*
X81868746Y-68516542D01*
X81764260Y-68722051D01*
X81762678Y-68727145D01*
X81762677Y-68727148D01*
X81706602Y-68907738D01*
X81695893Y-68942227D01*
X81695192Y-68947516D01*
X81671051Y-69129663D01*
X81665602Y-69170774D01*
X76073500Y-69170774D01*
X76073500Y-60280774D01*
X81665602Y-60280774D01*
X81674251Y-60511158D01*
X81721593Y-60736791D01*
X81723551Y-60741750D01*
X81723552Y-60741752D01*
X81767229Y-60852347D01*
X81806276Y-60951221D01*
X81809043Y-60955780D01*
X81809044Y-60955783D01*
X81849496Y-61022445D01*
X81925877Y-61148317D01*
X81929374Y-61152347D01*
X82044048Y-61284497D01*
X82076977Y-61322445D01*
X82112620Y-61351670D01*
X82152614Y-61410329D01*
X82154546Y-61481299D01*
X82117802Y-61542048D01*
X82099032Y-61556248D01*
X82079408Y-61568392D01*
X81953152Y-61646522D01*
X81828195Y-61771697D01*
X81824355Y-61777927D01*
X81824354Y-61777928D01*
X81746837Y-61903684D01*
X81735385Y-61922262D01*
X81733081Y-61929209D01*
X81689635Y-62060196D01*
X81679703Y-62090139D01*
X81679003Y-62096975D01*
X81679002Y-62096978D01*
X81678553Y-62101363D01*
X81669000Y-62194600D01*
X81669000Y-63495400D01*
X81679974Y-63601166D01*
X81735950Y-63768946D01*
X81829022Y-63919348D01*
X81954197Y-64044305D01*
X81960427Y-64048145D01*
X81960428Y-64048146D01*
X82097590Y-64132694D01*
X82104762Y-64137115D01*
X82184505Y-64163564D01*
X82266111Y-64190632D01*
X82266113Y-64190632D01*
X82272639Y-64192797D01*
X82279475Y-64193497D01*
X82279478Y-64193498D01*
X82322531Y-64197909D01*
X82377100Y-64203500D01*
X83977900Y-64203500D01*
X83981146Y-64203163D01*
X83981150Y-64203163D01*
X84076808Y-64193238D01*
X84076812Y-64193237D01*
X84083666Y-64192526D01*
X84090202Y-64190345D01*
X84090204Y-64190345D01*
X84222306Y-64146272D01*
X84251446Y-64136550D01*
X84401848Y-64043478D01*
X84526805Y-63918303D01*
X84619615Y-63767738D01*
X84675297Y-63599861D01*
X84686000Y-63495400D01*
X84686000Y-62194600D01*
X84684913Y-62184125D01*
X84675738Y-62095692D01*
X84675737Y-62095688D01*
X84675026Y-62088834D01*
X84664875Y-62058406D01*
X84621368Y-61928002D01*
X84619050Y-61921054D01*
X84525978Y-61770652D01*
X84400803Y-61645695D01*
X84255160Y-61555919D01*
X84207668Y-61503148D01*
X84196244Y-61433076D01*
X84224518Y-61367952D01*
X84234305Y-61357490D01*
X84344778Y-61252103D01*
X84348635Y-61248424D01*
X84356014Y-61238507D01*
X84483068Y-61067740D01*
X84486254Y-61063458D01*
X84590740Y-60857949D01*
X84592480Y-60852347D01*
X84657524Y-60642871D01*
X84659107Y-60637773D01*
X84659808Y-60632484D01*
X84688698Y-60414511D01*
X84688698Y-60414506D01*
X84689398Y-60409226D01*
X84680749Y-60178842D01*
X84633407Y-59953209D01*
X84621401Y-59922807D01*
X84550685Y-59743744D01*
X84550684Y-59743742D01*
X84548724Y-59738779D01*
X84429123Y-59541683D01*
X84420765Y-59532051D01*
X84289651Y-59380955D01*
X85955755Y-59380955D01*
X85956445Y-59387520D01*
X85971636Y-59532051D01*
X85975717Y-59570883D01*
X86034732Y-59752511D01*
X86130219Y-59917899D01*
X86258006Y-60059821D01*
X86412507Y-60172073D01*
X86418535Y-60174757D01*
X86418537Y-60174758D01*
X86580940Y-60247064D01*
X86586971Y-60249749D01*
X86680371Y-60269602D01*
X86767315Y-60288083D01*
X86767320Y-60288083D01*
X86773772Y-60289455D01*
X86964746Y-60289455D01*
X86971198Y-60288083D01*
X86971203Y-60288083D01*
X87058147Y-60269602D01*
X87151547Y-60249749D01*
X87157578Y-60247064D01*
X87319981Y-60174758D01*
X87319983Y-60174757D01*
X87326011Y-60172073D01*
X87480512Y-60059821D01*
X87608299Y-59917899D01*
X87703786Y-59752511D01*
X87762801Y-59570883D01*
X87766883Y-59532051D01*
X87782073Y-59387520D01*
X87782763Y-59380955D01*
X87772096Y-59279461D01*
X87763491Y-59197590D01*
X87763491Y-59197588D01*
X87762801Y-59191027D01*
X87703786Y-59009399D01*
X87608299Y-58844011D01*
X87558863Y-58789107D01*
X87528147Y-58725101D01*
X87526500Y-58704798D01*
X87526500Y-57220950D01*
X87546502Y-57152829D01*
X87563405Y-57131855D01*
X88977504Y-55717755D01*
X89039816Y-55683730D01*
X89066599Y-55680850D01*
X92435700Y-55680850D01*
X92503821Y-55700852D01*
X92550314Y-55754508D01*
X92560418Y-55824782D01*
X92530924Y-55889362D01*
X92524795Y-55895945D01*
X86582925Y-61837815D01*
X86574145Y-61845805D01*
X86574143Y-61845807D01*
X86567450Y-61850054D01*
X86562024Y-61855832D01*
X86562023Y-61855833D01*
X86518926Y-61901727D01*
X86516171Y-61904569D01*
X86495603Y-61925137D01*
X86492886Y-61928640D01*
X86485178Y-61937665D01*
X86453558Y-61971337D01*
X86449737Y-61978288D01*
X86449736Y-61978289D01*
X86443227Y-61990128D01*
X86432373Y-62006652D01*
X86424548Y-62016741D01*
X86419226Y-62023602D01*
X86416079Y-62030874D01*
X86416078Y-62030876D01*
X86400876Y-62066005D01*
X86395654Y-62076665D01*
X86379041Y-62106884D01*
X86373406Y-62117133D01*
X86368071Y-62137911D01*
X86361672Y-62156601D01*
X86353150Y-62176294D01*
X86349523Y-62199195D01*
X86345924Y-62221918D01*
X86343517Y-62233541D01*
X86339974Y-62247340D01*
X86332030Y-62278282D01*
X86332030Y-62299729D01*
X86330479Y-62319439D01*
X86327124Y-62340622D01*
X86327870Y-62348513D01*
X86331471Y-62386608D01*
X86332030Y-62398466D01*
X86332030Y-67584738D01*
X86312028Y-67652859D01*
X86299666Y-67669048D01*
X86251490Y-67722553D01*
X86248189Y-67728271D01*
X86162479Y-67876725D01*
X86156003Y-67887941D01*
X86096988Y-68069569D01*
X86096298Y-68076130D01*
X86096298Y-68076132D01*
X86086176Y-68172441D01*
X86077026Y-68259497D01*
X86077716Y-68266062D01*
X86095603Y-68436243D01*
X86096988Y-68449425D01*
X86156003Y-68631053D01*
X86251490Y-68796441D01*
X86255908Y-68801348D01*
X86255909Y-68801349D01*
X86345447Y-68900791D01*
X86379277Y-68938363D01*
X86533778Y-69050615D01*
X86539806Y-69053299D01*
X86539808Y-69053300D01*
X86586690Y-69074173D01*
X86708242Y-69128291D01*
X86801642Y-69148144D01*
X86888586Y-69166625D01*
X86888591Y-69166625D01*
X86895043Y-69167997D01*
X87086017Y-69167997D01*
X87092469Y-69166625D01*
X87092474Y-69166625D01*
X87179418Y-69148144D01*
X87272818Y-69128291D01*
X87394370Y-69074173D01*
X87441252Y-69053300D01*
X87441254Y-69053299D01*
X87447282Y-69050615D01*
X87601783Y-68938363D01*
X87635613Y-68900791D01*
X87725151Y-68801349D01*
X87725152Y-68801348D01*
X87729570Y-68796441D01*
X87825057Y-68631053D01*
X87884072Y-68449425D01*
X87885458Y-68436243D01*
X87903344Y-68266062D01*
X87904034Y-68259497D01*
X87894884Y-68172441D01*
X87884762Y-68076132D01*
X87884762Y-68076130D01*
X87884072Y-68069569D01*
X87825057Y-67887941D01*
X87818582Y-67876725D01*
X87732871Y-67728271D01*
X87729570Y-67722553D01*
X87681394Y-67669048D01*
X87650676Y-67605041D01*
X87649030Y-67584738D01*
X87649030Y-62686420D01*
X87669032Y-62618299D01*
X87685935Y-62597325D01*
X93371487Y-56911773D01*
X93433799Y-56877747D01*
X93460582Y-56874868D01*
X93531249Y-56874868D01*
X93599370Y-56894870D01*
X93645863Y-56948526D01*
X93655967Y-57018800D01*
X93651084Y-57039797D01*
X93594458Y-57214072D01*
X93585192Y-57302237D01*
X93581245Y-57339786D01*
X93554232Y-57405442D01*
X93545030Y-57415710D01*
X89000395Y-61960345D01*
X88991615Y-61968335D01*
X88991613Y-61968337D01*
X88984920Y-61972584D01*
X88979494Y-61978362D01*
X88979493Y-61978363D01*
X88936396Y-62024257D01*
X88933641Y-62027099D01*
X88913073Y-62047667D01*
X88910356Y-62051170D01*
X88902648Y-62060195D01*
X88871028Y-62093867D01*
X88867207Y-62100818D01*
X88867206Y-62100819D01*
X88860697Y-62112658D01*
X88849843Y-62129182D01*
X88843080Y-62137902D01*
X88836696Y-62146132D01*
X88833549Y-62153404D01*
X88833548Y-62153406D01*
X88818346Y-62188535D01*
X88813124Y-62199195D01*
X88800632Y-62221918D01*
X88790876Y-62239663D01*
X88785541Y-62260441D01*
X88779142Y-62279131D01*
X88770620Y-62298824D01*
X88767355Y-62319439D01*
X88763394Y-62344448D01*
X88760987Y-62356071D01*
X88749500Y-62400812D01*
X88749500Y-62422259D01*
X88747949Y-62441969D01*
X88744594Y-62463152D01*
X88745340Y-62471043D01*
X88748941Y-62509138D01*
X88749500Y-62520996D01*
X88749500Y-71303051D01*
X88729498Y-71371172D01*
X88712595Y-71392146D01*
X86460395Y-73644345D01*
X86451615Y-73652335D01*
X86451613Y-73652337D01*
X86444920Y-73656584D01*
X86439494Y-73662362D01*
X86439493Y-73662363D01*
X86396396Y-73708257D01*
X86393641Y-73711099D01*
X86373073Y-73731667D01*
X86370356Y-73735170D01*
X86362648Y-73744195D01*
X86331028Y-73777867D01*
X86327207Y-73784818D01*
X86327206Y-73784819D01*
X86320697Y-73796658D01*
X86309843Y-73813182D01*
X86302018Y-73823271D01*
X86296696Y-73830132D01*
X86293549Y-73837404D01*
X86293548Y-73837406D01*
X86278346Y-73872535D01*
X86273124Y-73883195D01*
X86250876Y-73923663D01*
X86245541Y-73944441D01*
X86239142Y-73963131D01*
X86230620Y-73982824D01*
X86229380Y-73990655D01*
X86223394Y-74028448D01*
X86220987Y-74040071D01*
X86209500Y-74084812D01*
X86209500Y-74106259D01*
X86207949Y-74125969D01*
X86204594Y-74147152D01*
X86205340Y-74155043D01*
X86208941Y-74193138D01*
X86209500Y-74204996D01*
X86209500Y-75876049D01*
X86189618Y-75943761D01*
X86187430Y-75946191D01*
X86091943Y-76111579D01*
X86032928Y-76293207D01*
X86012966Y-76483135D01*
X86013656Y-76489700D01*
X86026433Y-76611262D01*
X86032928Y-76673063D01*
X86091943Y-76854691D01*
X86095246Y-76860413D01*
X86095247Y-76860414D01*
X86097756Y-76864760D01*
X86187430Y-77020079D01*
X86191848Y-77024986D01*
X86191849Y-77024987D01*
X86242802Y-77081576D01*
X86315217Y-77162001D01*
X86469718Y-77274253D01*
X86475746Y-77276937D01*
X86475748Y-77276938D01*
X86480465Y-77279038D01*
X86644182Y-77351929D01*
X86737582Y-77371782D01*
X86824526Y-77390263D01*
X86824531Y-77390263D01*
X86830983Y-77391635D01*
X87021957Y-77391635D01*
X87028409Y-77390263D01*
X87028414Y-77390263D01*
X87115358Y-77371782D01*
X87208758Y-77351929D01*
X87372475Y-77279038D01*
X87377192Y-77276938D01*
X87377194Y-77276937D01*
X87383222Y-77274253D01*
X87537723Y-77162001D01*
X87610138Y-77081576D01*
X87661091Y-77024987D01*
X87661092Y-77024986D01*
X87665510Y-77020079D01*
X87755184Y-76864760D01*
X87757693Y-76860414D01*
X87757694Y-76860413D01*
X87760997Y-76854691D01*
X87820012Y-76673063D01*
X87826508Y-76611262D01*
X87839284Y-76489700D01*
X87839974Y-76483135D01*
X87820012Y-76293207D01*
X87760997Y-76111579D01*
X87665510Y-75946191D01*
X87558864Y-75827748D01*
X87528146Y-75763741D01*
X87526500Y-75743438D01*
X87526500Y-74492950D01*
X87546502Y-74424829D01*
X87563405Y-74403855D01*
X89815600Y-72151659D01*
X89824381Y-72143669D01*
X89824390Y-72143661D01*
X89831080Y-72139416D01*
X89879621Y-72087725D01*
X89882375Y-72084884D01*
X89902926Y-72064333D01*
X89905638Y-72060837D01*
X89913349Y-72051808D01*
X89939544Y-72023913D01*
X89944972Y-72018133D01*
X89948794Y-72011181D01*
X89955301Y-71999345D01*
X89966158Y-71982816D01*
X89974447Y-71972131D01*
X89974448Y-71972129D01*
X89979304Y-71965869D01*
X89997657Y-71923456D01*
X90002868Y-71912819D01*
X90025124Y-71872337D01*
X90027095Y-71864659D01*
X90030015Y-71857285D01*
X90032952Y-71858448D01*
X90061770Y-71810031D01*
X90125302Y-71778341D01*
X90195881Y-71786029D01*
X90251099Y-71830654D01*
X90273500Y-71902370D01*
X90273500Y-72319051D01*
X90253498Y-72387172D01*
X90236595Y-72408146D01*
X89000396Y-73644345D01*
X88991613Y-73652337D01*
X88984920Y-73656584D01*
X88979494Y-73662362D01*
X88936395Y-73708258D01*
X88933641Y-73711099D01*
X88913073Y-73731667D01*
X88910356Y-73735170D01*
X88902648Y-73744195D01*
X88871028Y-73777867D01*
X88867207Y-73784818D01*
X88867206Y-73784819D01*
X88860697Y-73796658D01*
X88849843Y-73813182D01*
X88842018Y-73823271D01*
X88836696Y-73830132D01*
X88833549Y-73837404D01*
X88833548Y-73837406D01*
X88818346Y-73872535D01*
X88813124Y-73883195D01*
X88790876Y-73923663D01*
X88785541Y-73944441D01*
X88779142Y-73963131D01*
X88770620Y-73982824D01*
X88769380Y-73990655D01*
X88763394Y-74028448D01*
X88760987Y-74040071D01*
X88749500Y-74084812D01*
X88749500Y-74106259D01*
X88747949Y-74125969D01*
X88744594Y-74147152D01*
X88745340Y-74155043D01*
X88748941Y-74193138D01*
X88749500Y-74204996D01*
X88749500Y-83225969D01*
X88729498Y-83294090D01*
X88712595Y-83315064D01*
X87089309Y-84938349D01*
X87026997Y-84972375D01*
X87000214Y-84975254D01*
X86979677Y-84975254D01*
X86973225Y-84976626D01*
X86973220Y-84976626D01*
X86886276Y-84995107D01*
X86792876Y-85014960D01*
X86786846Y-85017645D01*
X86786845Y-85017645D01*
X86624442Y-85089951D01*
X86624440Y-85089952D01*
X86618412Y-85092636D01*
X86613071Y-85096516D01*
X86613070Y-85096517D01*
X86570459Y-85127476D01*
X86463911Y-85204888D01*
X86459490Y-85209798D01*
X86459489Y-85209799D01*
X86369939Y-85309255D01*
X86336124Y-85346810D01*
X86311294Y-85389817D01*
X86251207Y-85493891D01*
X86240637Y-85512198D01*
X86181622Y-85693826D01*
X86180932Y-85700387D01*
X86180932Y-85700389D01*
X86172846Y-85777325D01*
X86161660Y-85883754D01*
X86181622Y-86073682D01*
X86240637Y-86255310D01*
X86336124Y-86420698D01*
X86463911Y-86562620D01*
X86540476Y-86618248D01*
X86612425Y-86670522D01*
X86618412Y-86674872D01*
X86624440Y-86677556D01*
X86624442Y-86677557D01*
X86745727Y-86731556D01*
X86792876Y-86752548D01*
X86886277Y-86772401D01*
X86973220Y-86790882D01*
X86973225Y-86790882D01*
X86979677Y-86792254D01*
X87170651Y-86792254D01*
X87177103Y-86790882D01*
X87177108Y-86790882D01*
X87264051Y-86772401D01*
X87357452Y-86752548D01*
X87404601Y-86731556D01*
X87525886Y-86677557D01*
X87525888Y-86677556D01*
X87531916Y-86674872D01*
X87537904Y-86670522D01*
X87609852Y-86618248D01*
X87686417Y-86562620D01*
X87814204Y-86420698D01*
X87909691Y-86255310D01*
X87955003Y-86115854D01*
X87966666Y-86079961D01*
X87966666Y-86079959D01*
X87968706Y-86073682D01*
X87981919Y-85947967D01*
X88008932Y-85882312D01*
X88018134Y-85872044D01*
X89815600Y-84074577D01*
X89824381Y-84066587D01*
X89824390Y-84066579D01*
X89831080Y-84062334D01*
X89879621Y-84010643D01*
X89882375Y-84007802D01*
X89902926Y-83987251D01*
X89905638Y-83983755D01*
X89913349Y-83974726D01*
X89939544Y-83946831D01*
X89944972Y-83941051D01*
X89955301Y-83922263D01*
X89966158Y-83905734D01*
X89974447Y-83895049D01*
X89974448Y-83895047D01*
X89979304Y-83888787D01*
X89997657Y-83846374D01*
X90002868Y-83835737D01*
X90025124Y-83795255D01*
X90030457Y-83774484D01*
X90036859Y-83755782D01*
X90045379Y-83736095D01*
X90052605Y-83690470D01*
X90055013Y-83678844D01*
X90064529Y-83641783D01*
X90064529Y-83641782D01*
X90066500Y-83634106D01*
X90066500Y-83612660D01*
X90068051Y-83592949D01*
X90070166Y-83579596D01*
X90071406Y-83571767D01*
X90067059Y-83525782D01*
X90066500Y-83513924D01*
X90066500Y-74492950D01*
X90086502Y-74424829D01*
X90103405Y-74403855D01*
X91339599Y-73167660D01*
X91348380Y-73159670D01*
X91348391Y-73159661D01*
X91355080Y-73155416D01*
X91403621Y-73103726D01*
X91406343Y-73100917D01*
X91426926Y-73080333D01*
X91429638Y-73076837D01*
X91437349Y-73067808D01*
X91463544Y-73039913D01*
X91468972Y-73034133D01*
X91479301Y-73015345D01*
X91490158Y-72998816D01*
X91498447Y-72988131D01*
X91498448Y-72988129D01*
X91503304Y-72981869D01*
X91521657Y-72939456D01*
X91526868Y-72928819D01*
X91549124Y-72888337D01*
X91554457Y-72867566D01*
X91560859Y-72848864D01*
X91569379Y-72829177D01*
X91572520Y-72809348D01*
X91576605Y-72783552D01*
X91579013Y-72771926D01*
X91588529Y-72734865D01*
X91588529Y-72734864D01*
X91590500Y-72727188D01*
X91590500Y-72705742D01*
X91592051Y-72686031D01*
X91594166Y-72672678D01*
X91595406Y-72664849D01*
X91591059Y-72618864D01*
X91590500Y-72607006D01*
X91590500Y-62906553D01*
X91610502Y-62838432D01*
X91627405Y-62817458D01*
X94881498Y-59563365D01*
X94943810Y-59529339D01*
X94970593Y-59526460D01*
X94991130Y-59526460D01*
X94997582Y-59525088D01*
X94997587Y-59525088D01*
X95084531Y-59506607D01*
X95177931Y-59486754D01*
X95183962Y-59484069D01*
X95346365Y-59411763D01*
X95346367Y-59411762D01*
X95352395Y-59409078D01*
X95506896Y-59296826D01*
X95519848Y-59282441D01*
X95630264Y-59159812D01*
X95630265Y-59159811D01*
X95634683Y-59154904D01*
X95706517Y-59030484D01*
X95726866Y-58995239D01*
X95726867Y-58995238D01*
X95730170Y-58989516D01*
X95789185Y-58807888D01*
X95791829Y-58782738D01*
X95808457Y-58624525D01*
X95809147Y-58617960D01*
X95789185Y-58428032D01*
X95730170Y-58246404D01*
X95634683Y-58081016D01*
X95613914Y-58057949D01*
X95511318Y-57944005D01*
X95511317Y-57944004D01*
X95506896Y-57939094D01*
X95388811Y-57853300D01*
X95345457Y-57797078D01*
X95339382Y-57726341D01*
X95343039Y-57712428D01*
X95379502Y-57600206D01*
X95381542Y-57593928D01*
X95393649Y-57478741D01*
X95400814Y-57410565D01*
X95401504Y-57404000D01*
X95400814Y-57397435D01*
X95382232Y-57220635D01*
X95382232Y-57220633D01*
X95381542Y-57214072D01*
X95324056Y-57037148D01*
X95322527Y-57032444D01*
X95323490Y-57032131D01*
X95314857Y-56967735D01*
X95344964Y-56903439D01*
X95351061Y-56897284D01*
X95353882Y-56895234D01*
X95369628Y-56877747D01*
X95477250Y-56758220D01*
X95477251Y-56758219D01*
X95481669Y-56753312D01*
X95548304Y-56637897D01*
X95573852Y-56593647D01*
X95573853Y-56593646D01*
X95577156Y-56587924D01*
X95636171Y-56406296D01*
X95639740Y-56372345D01*
X95655443Y-56222933D01*
X95656133Y-56216368D01*
X95653272Y-56189149D01*
X95636861Y-56033003D01*
X95636861Y-56033001D01*
X95636171Y-56026440D01*
X95577156Y-55844812D01*
X95481669Y-55679424D01*
X95421704Y-55612826D01*
X95390986Y-55548819D01*
X95399751Y-55478365D01*
X95406221Y-55465516D01*
X95444261Y-55399629D01*
X95444262Y-55399628D01*
X95447565Y-55393906D01*
X95506580Y-55212278D01*
X95507752Y-55201133D01*
X95525852Y-55028915D01*
X95526542Y-55022350D01*
X95512715Y-54890791D01*
X95507270Y-54838985D01*
X95507270Y-54838983D01*
X95506580Y-54832422D01*
X95447565Y-54650794D01*
X95431047Y-54622183D01*
X95368043Y-54513059D01*
X95352078Y-54485406D01*
X95351526Y-54484793D01*
X95328390Y-54419942D01*
X95344473Y-54350791D01*
X95395389Y-54301313D01*
X95402938Y-54297647D01*
X95420729Y-54289726D01*
X95420734Y-54289723D01*
X95426765Y-54287038D01*
X95581266Y-54174786D01*
X95600382Y-54153556D01*
X95704634Y-54037772D01*
X95704635Y-54037771D01*
X95709053Y-54032864D01*
X95780578Y-53908979D01*
X95801236Y-53873199D01*
X95801237Y-53873198D01*
X95804540Y-53867476D01*
X95863555Y-53685848D01*
X95865752Y-53664950D01*
X95882827Y-53502485D01*
X95883517Y-53495920D01*
X95866250Y-53331631D01*
X95864245Y-53312555D01*
X95864245Y-53312553D01*
X95863555Y-53305992D01*
X95804540Y-53124364D01*
X95709053Y-52958976D01*
X95692117Y-52940166D01*
X95585688Y-52821965D01*
X95585687Y-52821964D01*
X95581266Y-52817054D01*
X95434005Y-52710062D01*
X95432107Y-52708683D01*
X95432106Y-52708682D01*
X95426765Y-52704802D01*
X95420737Y-52702118D01*
X95420735Y-52702117D01*
X95258332Y-52629811D01*
X95258331Y-52629811D01*
X95252301Y-52627126D01*
X95157353Y-52606944D01*
X95071957Y-52588792D01*
X95071952Y-52588792D01*
X95065500Y-52587420D01*
X95044963Y-52587420D01*
X94976842Y-52567418D01*
X94955868Y-52550515D01*
X93799310Y-51393957D01*
X93791320Y-51385177D01*
X93791318Y-51385175D01*
X93787071Y-51378482D01*
X93735397Y-51329957D01*
X93732556Y-51327203D01*
X93711988Y-51306635D01*
X93708481Y-51303915D01*
X93699459Y-51296209D01*
X93685140Y-51282763D01*
X93665788Y-51264590D01*
X93658836Y-51260768D01*
X93646997Y-51254259D01*
X93630473Y-51243405D01*
X93619787Y-51235117D01*
X93613523Y-51230258D01*
X93606251Y-51227111D01*
X93606249Y-51227110D01*
X93571120Y-51211908D01*
X93560460Y-51206686D01*
X93526939Y-51188257D01*
X93526937Y-51188256D01*
X93519992Y-51184438D01*
X93499214Y-51179103D01*
X93480524Y-51172704D01*
X93460831Y-51164182D01*
X93415207Y-51156956D01*
X93403584Y-51154549D01*
X93375583Y-51147360D01*
X93358843Y-51143062D01*
X93337396Y-51143062D01*
X93317686Y-51141511D01*
X93304332Y-51139396D01*
X93296503Y-51138156D01*
X93250514Y-51142503D01*
X93238659Y-51143062D01*
X89205044Y-51143062D01*
X89136923Y-51123060D01*
X89130983Y-51118998D01*
X89130729Y-51118813D01*
X88999144Y-51023211D01*
X88986914Y-51014325D01*
X88986913Y-51014324D01*
X88981572Y-51010444D01*
X88975544Y-51007760D01*
X88975542Y-51007759D01*
X88813139Y-50935453D01*
X88813138Y-50935453D01*
X88807108Y-50932768D01*
X88713708Y-50912915D01*
X88626764Y-50894434D01*
X88626759Y-50894434D01*
X88620307Y-50893062D01*
X88429333Y-50893062D01*
X88422881Y-50894434D01*
X88422876Y-50894434D01*
X88335932Y-50912915D01*
X88242532Y-50932768D01*
X88236502Y-50935453D01*
X88236501Y-50935453D01*
X88074098Y-51007759D01*
X88074096Y-51007760D01*
X88068068Y-51010444D01*
X88062727Y-51014324D01*
X88062726Y-51014325D01*
X88050496Y-51023211D01*
X87913567Y-51122696D01*
X87909146Y-51127606D01*
X87909145Y-51127607D01*
X87799409Y-51249482D01*
X87785780Y-51264618D01*
X87748830Y-51328617D01*
X87701397Y-51410774D01*
X87690293Y-51430006D01*
X87631278Y-51611634D01*
X87630588Y-51618195D01*
X87630588Y-51618197D01*
X87622154Y-51698444D01*
X87611316Y-51801562D01*
X87612006Y-51808127D01*
X87626519Y-51946206D01*
X87631278Y-51991490D01*
X87690293Y-52173118D01*
X87785780Y-52338506D01*
X87790198Y-52343413D01*
X87790199Y-52343414D01*
X87884740Y-52448412D01*
X87913567Y-52480428D01*
X87936331Y-52496967D01*
X88062717Y-52588792D01*
X88068068Y-52592680D01*
X88074096Y-52595364D01*
X88074098Y-52595365D01*
X88236501Y-52667671D01*
X88242532Y-52670356D01*
X88317298Y-52686248D01*
X88422876Y-52708690D01*
X88422881Y-52708690D01*
X88429333Y-52710062D01*
X88620307Y-52710062D01*
X88626759Y-52708690D01*
X88626764Y-52708690D01*
X88732342Y-52686248D01*
X88807108Y-52670356D01*
X88813139Y-52667671D01*
X88975542Y-52595365D01*
X88975544Y-52595364D01*
X88981572Y-52592680D01*
X88986924Y-52588792D01*
X89113309Y-52496967D01*
X89130983Y-52484126D01*
X89197851Y-52460268D01*
X89205044Y-52460062D01*
X92950705Y-52460062D01*
X93018826Y-52480064D01*
X93039800Y-52496967D01*
X94027043Y-53484210D01*
X94061069Y-53546522D01*
X94063258Y-53560134D01*
X94074275Y-53664950D01*
X94076471Y-53685848D01*
X94078511Y-53692125D01*
X94078511Y-53692127D01*
X94096713Y-53748146D01*
X94135486Y-53867476D01*
X94138789Y-53873198D01*
X94138790Y-53873199D01*
X94159448Y-53908979D01*
X94230973Y-54032864D01*
X94231525Y-54033477D01*
X94254661Y-54098328D01*
X94238578Y-54167479D01*
X94187662Y-54216957D01*
X94180113Y-54220623D01*
X94162322Y-54228544D01*
X94162317Y-54228547D01*
X94156286Y-54231232D01*
X94030633Y-54322525D01*
X94006875Y-54339786D01*
X93940007Y-54363644D01*
X93932814Y-54363850D01*
X88823706Y-54363850D01*
X88811850Y-54363291D01*
X88811847Y-54363291D01*
X88804113Y-54361562D01*
X88749096Y-54363291D01*
X88733281Y-54363788D01*
X88729323Y-54363850D01*
X88700218Y-54363850D01*
X88695818Y-54364406D01*
X88683986Y-54365338D01*
X88637819Y-54366788D01*
X88617229Y-54372770D01*
X88597868Y-54376780D01*
X88590880Y-54377662D01*
X88584446Y-54378475D01*
X88584445Y-54378475D01*
X88576586Y-54379468D01*
X88569221Y-54382384D01*
X88569217Y-54382385D01*
X88533629Y-54396476D01*
X88522419Y-54400315D01*
X88478050Y-54413205D01*
X88459593Y-54424121D01*
X88441843Y-54432816D01*
X88421894Y-54440715D01*
X88415483Y-54445373D01*
X88415481Y-54445374D01*
X88384514Y-54467873D01*
X88374596Y-54474388D01*
X88334843Y-54497898D01*
X88319682Y-54513059D01*
X88304650Y-54525898D01*
X88287293Y-54538509D01*
X88257843Y-54574108D01*
X88249853Y-54582888D01*
X86460395Y-56372345D01*
X86451615Y-56380335D01*
X86451613Y-56380337D01*
X86444920Y-56384584D01*
X86439494Y-56390362D01*
X86439493Y-56390363D01*
X86396396Y-56436257D01*
X86393641Y-56439099D01*
X86373073Y-56459667D01*
X86370356Y-56463170D01*
X86362648Y-56472195D01*
X86331028Y-56505867D01*
X86327207Y-56512818D01*
X86327206Y-56512819D01*
X86320697Y-56524658D01*
X86309843Y-56541182D01*
X86302018Y-56551271D01*
X86296696Y-56558132D01*
X86293549Y-56565404D01*
X86293548Y-56565406D01*
X86278346Y-56600535D01*
X86273124Y-56611195D01*
X86256422Y-56641576D01*
X86250876Y-56651663D01*
X86245541Y-56672441D01*
X86239142Y-56691131D01*
X86230620Y-56710824D01*
X86229380Y-56718655D01*
X86223394Y-56756448D01*
X86220987Y-56768071D01*
X86209500Y-56812812D01*
X86209500Y-56834259D01*
X86207949Y-56853969D01*
X86204594Y-56875152D01*
X86205340Y-56883043D01*
X86208941Y-56921138D01*
X86209500Y-56932996D01*
X86209500Y-58707594D01*
X86189498Y-58775715D01*
X86177142Y-58791897D01*
X86130219Y-58844011D01*
X86034732Y-59009399D01*
X85975717Y-59191027D01*
X85975027Y-59197588D01*
X85975027Y-59197590D01*
X85966422Y-59279461D01*
X85955755Y-59380955D01*
X84289651Y-59380955D01*
X84281523Y-59371588D01*
X84281521Y-59371586D01*
X84278023Y-59367555D01*
X84222782Y-59322260D01*
X84103873Y-59224760D01*
X84103867Y-59224756D01*
X84099745Y-59221376D01*
X84095109Y-59218737D01*
X84095106Y-59218735D01*
X83904029Y-59109968D01*
X83899386Y-59107325D01*
X83682675Y-59028663D01*
X83677426Y-59027714D01*
X83677423Y-59027713D01*
X83459892Y-58988377D01*
X83459885Y-58988376D01*
X83455808Y-58987639D01*
X83438086Y-58986803D01*
X83433144Y-58986570D01*
X83433137Y-58986570D01*
X83431656Y-58986500D01*
X82969610Y-58986500D01*
X82902691Y-58992178D01*
X82803091Y-59000629D01*
X82803087Y-59000630D01*
X82797780Y-59001080D01*
X82792625Y-59002418D01*
X82792619Y-59002419D01*
X82579797Y-59057657D01*
X82579793Y-59057658D01*
X82574628Y-59058999D01*
X82569762Y-59061191D01*
X82569759Y-59061192D01*
X82461480Y-59109968D01*
X82364425Y-59153688D01*
X82173181Y-59282441D01*
X82169324Y-59286120D01*
X82169322Y-59286122D01*
X82154031Y-59300709D01*
X82006365Y-59441576D01*
X82003182Y-59445854D01*
X81971731Y-59488126D01*
X81868746Y-59626542D01*
X81866330Y-59631293D01*
X81866328Y-59631297D01*
X81852534Y-59658428D01*
X81764260Y-59832051D01*
X81762678Y-59837145D01*
X81762677Y-59837148D01*
X81719721Y-59975489D01*
X81695893Y-60052227D01*
X81695192Y-60057516D01*
X81670070Y-60247064D01*
X81665602Y-60280774D01*
X76073500Y-60280774D01*
X76073500Y-51410774D01*
X81673102Y-51410774D01*
X81681751Y-51641158D01*
X81729093Y-51866791D01*
X81731051Y-51871750D01*
X81731052Y-51871752D01*
X81809345Y-52070000D01*
X81813776Y-52081221D01*
X81816543Y-52085780D01*
X81816544Y-52085783D01*
X81873013Y-52178841D01*
X81933377Y-52278317D01*
X81936874Y-52282347D01*
X82034901Y-52395313D01*
X82084477Y-52452445D01*
X82120120Y-52481670D01*
X82160114Y-52540329D01*
X82162046Y-52611299D01*
X82125302Y-52672048D01*
X82106532Y-52686248D01*
X81975579Y-52767285D01*
X81960652Y-52776522D01*
X81835695Y-52901697D01*
X81831855Y-52907927D01*
X81831854Y-52907928D01*
X81800388Y-52958976D01*
X81742885Y-53052262D01*
X81740581Y-53059209D01*
X81694331Y-53198650D01*
X81687203Y-53220139D01*
X81686503Y-53226975D01*
X81686502Y-53226978D01*
X81682091Y-53270031D01*
X81676500Y-53324600D01*
X81676500Y-54625400D01*
X81676837Y-54628646D01*
X81676837Y-54628650D01*
X81679943Y-54658579D01*
X81687474Y-54731166D01*
X81689655Y-54737702D01*
X81689655Y-54737704D01*
X81696301Y-54757624D01*
X81743450Y-54898946D01*
X81836522Y-55049348D01*
X81961697Y-55174305D01*
X81967927Y-55178145D01*
X81967928Y-55178146D01*
X82105090Y-55262694D01*
X82112262Y-55267115D01*
X82192005Y-55293564D01*
X82273611Y-55320632D01*
X82273613Y-55320632D01*
X82280139Y-55322797D01*
X82286975Y-55323497D01*
X82286978Y-55323498D01*
X82330031Y-55327909D01*
X82384600Y-55333500D01*
X83985400Y-55333500D01*
X83988646Y-55333163D01*
X83988650Y-55333163D01*
X84084308Y-55323238D01*
X84084312Y-55323237D01*
X84091166Y-55322526D01*
X84097702Y-55320345D01*
X84097704Y-55320345D01*
X84229806Y-55276272D01*
X84258946Y-55266550D01*
X84409348Y-55173478D01*
X84534305Y-55048303D01*
X84550303Y-55022350D01*
X84623275Y-54903968D01*
X84623276Y-54903966D01*
X84627115Y-54897738D01*
X84668474Y-54773043D01*
X84680632Y-54736389D01*
X84680632Y-54736387D01*
X84682797Y-54729861D01*
X84693500Y-54625400D01*
X84693500Y-53969618D01*
X84713502Y-53901497D01*
X84730405Y-53880523D01*
X88517461Y-50093467D01*
X88579773Y-50059441D01*
X88606556Y-50056562D01*
X89699868Y-50056562D01*
X89718818Y-50057995D01*
X89733053Y-50060161D01*
X89733057Y-50060161D01*
X89740287Y-50061261D01*
X89747579Y-50060668D01*
X89747582Y-50060668D01*
X89792956Y-50056977D01*
X89803171Y-50056562D01*
X89811231Y-50056562D01*
X89824521Y-50055013D01*
X89839445Y-50053273D01*
X89843820Y-50052840D01*
X89909277Y-50047516D01*
X89909280Y-50047515D01*
X89916575Y-50046922D01*
X89923539Y-50044666D01*
X89929498Y-50043475D01*
X89935353Y-50042091D01*
X89942619Y-50041244D01*
X90011265Y-50016327D01*
X90015393Y-50014910D01*
X90077874Y-49994669D01*
X90077876Y-49994668D01*
X90084837Y-49992413D01*
X90091092Y-49988617D01*
X90096566Y-49986111D01*
X90101996Y-49983392D01*
X90108875Y-49980895D01*
X90169914Y-49940876D01*
X90173618Y-49938539D01*
X90236045Y-49900657D01*
X90244422Y-49893259D01*
X90244446Y-49893286D01*
X90247438Y-49890633D01*
X90250671Y-49887930D01*
X90256790Y-49883918D01*
X90310066Y-49827679D01*
X90312444Y-49825237D01*
X92280081Y-47857600D01*
X92342393Y-47823574D01*
X92413208Y-47828639D01*
X92420406Y-47831580D01*
X92592702Y-47908291D01*
X92680932Y-47927045D01*
X92773046Y-47946625D01*
X92773051Y-47946625D01*
X92779503Y-47947997D01*
X92970477Y-47947997D01*
X92976929Y-47946625D01*
X92976934Y-47946625D01*
X93069048Y-47927045D01*
X93157278Y-47908291D01*
X93163309Y-47905606D01*
X93325712Y-47833300D01*
X93325714Y-47833299D01*
X93331742Y-47830615D01*
X93380842Y-47794942D01*
X93392945Y-47786148D01*
X93486243Y-47718363D01*
X93490665Y-47713452D01*
X93609611Y-47581349D01*
X93609612Y-47581348D01*
X93614030Y-47576441D01*
X93709517Y-47411053D01*
X93768532Y-47229425D01*
X93788494Y-47039497D01*
X93768532Y-46849569D01*
X93709517Y-46667941D01*
X93614030Y-46502553D01*
X93569990Y-46453641D01*
X93490665Y-46365542D01*
X93490664Y-46365541D01*
X93486243Y-46360631D01*
X93376637Y-46280997D01*
X93337084Y-46252260D01*
X93337083Y-46252259D01*
X93331742Y-46248379D01*
X93325714Y-46245695D01*
X93325712Y-46245694D01*
X93163309Y-46173388D01*
X93163308Y-46173388D01*
X93157278Y-46170703D01*
X93063877Y-46150850D01*
X92976934Y-46132369D01*
X92976929Y-46132369D01*
X92970477Y-46130997D01*
X92779503Y-46130997D01*
X92773051Y-46132369D01*
X92773046Y-46132369D01*
X92686103Y-46150850D01*
X92592702Y-46170703D01*
X92586672Y-46173388D01*
X92586671Y-46173388D01*
X92424268Y-46245694D01*
X92424266Y-46245695D01*
X92418238Y-46248379D01*
X92412899Y-46252258D01*
X92412892Y-46252262D01*
X92406462Y-46256934D01*
X92332403Y-46280997D01*
X92092572Y-46280997D01*
X92073624Y-46279564D01*
X92066283Y-46278447D01*
X92059386Y-46277398D01*
X92059384Y-46277398D01*
X92052154Y-46276298D01*
X92044862Y-46276891D01*
X92044859Y-46276891D01*
X91999485Y-46280582D01*
X91989270Y-46280997D01*
X91981210Y-46280997D01*
X91967920Y-46282546D01*
X91952996Y-46284286D01*
X91948621Y-46284719D01*
X91883164Y-46290043D01*
X91883161Y-46290044D01*
X91875866Y-46290637D01*
X91868902Y-46292893D01*
X91862943Y-46294084D01*
X91857088Y-46295468D01*
X91849822Y-46296315D01*
X91781176Y-46321232D01*
X91777048Y-46322649D01*
X91714567Y-46342890D01*
X91714565Y-46342891D01*
X91707604Y-46345146D01*
X91701349Y-46348942D01*
X91695875Y-46351448D01*
X91690445Y-46354167D01*
X91683566Y-46356664D01*
X91622519Y-46396688D01*
X91618830Y-46399015D01*
X91598638Y-46411268D01*
X91561196Y-46433988D01*
X91561191Y-46433992D01*
X91556395Y-46436902D01*
X91548019Y-46444300D01*
X91547996Y-46444274D01*
X91545006Y-46446923D01*
X91541767Y-46449631D01*
X91535651Y-46453641D01*
X91530624Y-46458948D01*
X91530620Y-46458951D01*
X91482375Y-46509880D01*
X91479997Y-46512322D01*
X89489662Y-48502657D01*
X89427350Y-48536683D01*
X89400567Y-48539562D01*
X88307254Y-48539562D01*
X88288306Y-48538129D01*
X88280965Y-48537012D01*
X88274068Y-48535963D01*
X88274066Y-48535963D01*
X88266836Y-48534863D01*
X88259544Y-48535456D01*
X88259541Y-48535456D01*
X88214167Y-48539147D01*
X88203952Y-48539562D01*
X88195892Y-48539562D01*
X88182602Y-48541111D01*
X88167678Y-48542851D01*
X88163303Y-48543284D01*
X88097846Y-48548608D01*
X88097843Y-48548609D01*
X88090548Y-48549202D01*
X88083584Y-48551458D01*
X88077625Y-48552649D01*
X88071770Y-48554033D01*
X88064504Y-48554880D01*
X87995858Y-48579797D01*
X87991730Y-48581214D01*
X87929249Y-48601455D01*
X87929247Y-48601456D01*
X87922286Y-48603711D01*
X87916031Y-48607507D01*
X87910557Y-48610013D01*
X87905127Y-48612732D01*
X87898248Y-48615229D01*
X87892128Y-48619242D01*
X87892127Y-48619242D01*
X87837209Y-48655248D01*
X87833505Y-48657585D01*
X87771078Y-48695467D01*
X87762701Y-48702865D01*
X87762677Y-48702838D01*
X87759685Y-48705491D01*
X87756452Y-48708194D01*
X87750333Y-48712206D01*
X87745301Y-48717518D01*
X87697057Y-48768445D01*
X87694679Y-48770887D01*
X84909374Y-51556192D01*
X84847062Y-51590218D01*
X84776247Y-51585153D01*
X84719411Y-51542606D01*
X84694368Y-51471824D01*
X84689652Y-51346215D01*
X84688249Y-51308842D01*
X84686452Y-51300275D01*
X84652436Y-51138156D01*
X84640907Y-51083209D01*
X84590533Y-50955655D01*
X84558185Y-50873744D01*
X84558184Y-50873742D01*
X84556224Y-50868779D01*
X84549668Y-50857974D01*
X84439390Y-50676243D01*
X84436623Y-50671683D01*
X84349755Y-50571576D01*
X84289023Y-50501588D01*
X84289021Y-50501586D01*
X84285523Y-50497555D01*
X84243970Y-50463484D01*
X84111373Y-50354760D01*
X84111367Y-50354756D01*
X84107245Y-50351376D01*
X84102609Y-50348737D01*
X84102606Y-50348735D01*
X83911529Y-50239968D01*
X83906886Y-50237325D01*
X83690175Y-50158663D01*
X83684926Y-50157714D01*
X83684923Y-50157713D01*
X83467392Y-50118377D01*
X83467385Y-50118376D01*
X83463308Y-50117639D01*
X83445586Y-50116803D01*
X83440644Y-50116570D01*
X83440637Y-50116570D01*
X83439156Y-50116500D01*
X82977110Y-50116500D01*
X82910191Y-50122178D01*
X82810591Y-50130629D01*
X82810587Y-50130630D01*
X82805280Y-50131080D01*
X82800125Y-50132418D01*
X82800119Y-50132419D01*
X82587297Y-50187657D01*
X82587293Y-50187658D01*
X82582128Y-50188999D01*
X82577262Y-50191191D01*
X82577259Y-50191192D01*
X82468980Y-50239968D01*
X82371925Y-50283688D01*
X82180681Y-50412441D01*
X82013865Y-50571576D01*
X81876246Y-50756542D01*
X81771760Y-50962051D01*
X81770178Y-50967145D01*
X81770177Y-50967148D01*
X81716846Y-51138902D01*
X81703393Y-51182227D01*
X81702692Y-51187516D01*
X81675331Y-51393957D01*
X81673102Y-51410774D01*
X76073500Y-51410774D01*
X76073500Y-44412703D01*
X78535743Y-44412703D01*
X78573268Y-44697734D01*
X78649129Y-44975036D01*
X78761923Y-45239476D01*
X78909561Y-45486161D01*
X79089313Y-45710528D01*
X79297851Y-45908423D01*
X79531317Y-46076186D01*
X79535112Y-46078195D01*
X79535113Y-46078196D01*
X79556869Y-46089715D01*
X79785392Y-46210712D01*
X79809699Y-46219607D01*
X80013217Y-46294084D01*
X80055373Y-46309511D01*
X80336264Y-46370755D01*
X80364841Y-46373004D01*
X80559282Y-46388307D01*
X80559291Y-46388307D01*
X80561739Y-46388500D01*
X80717271Y-46388500D01*
X80719407Y-46388354D01*
X80719418Y-46388354D01*
X80927548Y-46374165D01*
X80927554Y-46374164D01*
X80931825Y-46373873D01*
X80936020Y-46373004D01*
X80936022Y-46373004D01*
X81081437Y-46342890D01*
X81213342Y-46315574D01*
X81484343Y-46219607D01*
X81739812Y-46087750D01*
X81743313Y-46085289D01*
X81743317Y-46085287D01*
X81857418Y-46005095D01*
X81975023Y-45922441D01*
X82185622Y-45726740D01*
X82367713Y-45504268D01*
X82517927Y-45259142D01*
X82633483Y-44995898D01*
X82712244Y-44719406D01*
X82752751Y-44434784D01*
X82752845Y-44416951D01*
X82754235Y-44151583D01*
X82754235Y-44151576D01*
X82754257Y-44147297D01*
X82716732Y-43862266D01*
X82640871Y-43584964D01*
X82528077Y-43320524D01*
X82397400Y-43102178D01*
X82382643Y-43077521D01*
X82382640Y-43077517D01*
X82380439Y-43073839D01*
X82200687Y-42849472D01*
X81992149Y-42651577D01*
X81758683Y-42483814D01*
X81736843Y-42472250D01*
X81713654Y-42459972D01*
X81504608Y-42349288D01*
X81234627Y-42250489D01*
X80953736Y-42189245D01*
X80922685Y-42186801D01*
X80730718Y-42171693D01*
X80730709Y-42171693D01*
X80728261Y-42171500D01*
X80572729Y-42171500D01*
X80570593Y-42171646D01*
X80570582Y-42171646D01*
X80362452Y-42185835D01*
X80362446Y-42185836D01*
X80358175Y-42186127D01*
X80353980Y-42186996D01*
X80353978Y-42186996D01*
X80217416Y-42215277D01*
X80076658Y-42244426D01*
X79805657Y-42340393D01*
X79550188Y-42472250D01*
X79546687Y-42474711D01*
X79546683Y-42474713D01*
X79536594Y-42481804D01*
X79314977Y-42637559D01*
X79104378Y-42833260D01*
X78922287Y-43055732D01*
X78772073Y-43300858D01*
X78656517Y-43564102D01*
X78577756Y-43840594D01*
X78537249Y-44125216D01*
X78537227Y-44129505D01*
X78537226Y-44129512D01*
X78536263Y-44313421D01*
X78535743Y-44412703D01*
X76073500Y-44412703D01*
X76073500Y-44333250D01*
X76075246Y-44312345D01*
X76077770Y-44297344D01*
X76077770Y-44297341D01*
X76078576Y-44292552D01*
X76078729Y-44280000D01*
X76078039Y-44275184D01*
X76078039Y-44275178D01*
X76076387Y-44263644D01*
X76075234Y-44240284D01*
X76079480Y-44143049D01*
X76090656Y-43887063D01*
X76091614Y-43876114D01*
X76142233Y-43491621D01*
X76144142Y-43480795D01*
X76228080Y-43102178D01*
X76230925Y-43091561D01*
X76311320Y-42836579D01*
X76347542Y-42721698D01*
X76351298Y-42711377D01*
X76377105Y-42649074D01*
X76499715Y-42353068D01*
X76504357Y-42343115D01*
X76551808Y-42251964D01*
X76683424Y-41999132D01*
X76688919Y-41989613D01*
X76897292Y-41662532D01*
X76903597Y-41653528D01*
X77139678Y-41345862D01*
X77146743Y-41337442D01*
X77408744Y-41051517D01*
X77416517Y-41043744D01*
X77702442Y-40781743D01*
X77710862Y-40774678D01*
X78018528Y-40538597D01*
X78027532Y-40532292D01*
X78354613Y-40323919D01*
X78364133Y-40318423D01*
X78708124Y-40139353D01*
X78718068Y-40134715D01*
X79076385Y-39986295D01*
X79086698Y-39982542D01*
X79286298Y-39919608D01*
X79456561Y-39865925D01*
X79467178Y-39863080D01*
X79845795Y-39779142D01*
X79856621Y-39777233D01*
X80241114Y-39726614D01*
X80252063Y-39725656D01*
X80601554Y-39710397D01*
X80626429Y-39711777D01*
X80638724Y-39713691D01*
X80647626Y-39712527D01*
X80647628Y-39712527D01*
X80666399Y-39710072D01*
X80670286Y-39709564D01*
X80686621Y-39708500D01*
X91014000Y-39708500D01*
X91082121Y-39728502D01*
G37*
%TD.AperFunction*%
%TD*%
M02*
