%TF.GenerationSoftware,KiCad,Pcbnew,(6.0.7)*%
%TF.CreationDate,2023-03-03T12:59:51+05:30*%
%TF.ProjectId,ESP32-dev-board,45535033-322d-4646-9576-2d626f617264,rev?*%
%TF.SameCoordinates,Original*%
%TF.FileFunction,Legend,Top*%
%TF.FilePolarity,Positive*%
%FSLAX46Y46*%
G04 Gerber Fmt 4.6, Leading zero omitted, Abs format (unit mm)*
G04 Created by KiCad (PCBNEW (6.0.7)) date 2023-03-03 12:59:51*
%MOMM*%
%LPD*%
G01*
G04 APERTURE LIST*
%ADD10C,0.300000*%
%ADD11C,0.150000*%
%ADD12C,0.120000*%
%ADD13C,0.200000*%
%ADD14C,0.240000*%
G04 APERTURE END LIST*
D10*
X82677857Y-132749642D02*
X82892142Y-132821071D01*
X83249285Y-132821071D01*
X83392142Y-132749642D01*
X83463571Y-132678214D01*
X83535000Y-132535357D01*
X83535000Y-132392500D01*
X83463571Y-132249642D01*
X83392142Y-132178214D01*
X83249285Y-132106785D01*
X82963571Y-132035357D01*
X82820714Y-131963928D01*
X82749285Y-131892500D01*
X82677857Y-131749642D01*
X82677857Y-131606785D01*
X82749285Y-131463928D01*
X82820714Y-131392500D01*
X82963571Y-131321071D01*
X83320714Y-131321071D01*
X83535000Y-131392500D01*
X84749285Y-132749642D02*
X84606428Y-132821071D01*
X84320714Y-132821071D01*
X84177857Y-132749642D01*
X84106428Y-132606785D01*
X84106428Y-132035357D01*
X84177857Y-131892500D01*
X84320714Y-131821071D01*
X84606428Y-131821071D01*
X84749285Y-131892500D01*
X84820714Y-132035357D01*
X84820714Y-132178214D01*
X84106428Y-132321071D01*
X85463571Y-131821071D02*
X85463571Y-132821071D01*
X85463571Y-131963928D02*
X85535000Y-131892500D01*
X85677857Y-131821071D01*
X85892142Y-131821071D01*
X86035000Y-131892500D01*
X86106428Y-132035357D01*
X86106428Y-132821071D01*
X86749285Y-132749642D02*
X86892142Y-132821071D01*
X87177857Y-132821071D01*
X87320714Y-132749642D01*
X87392142Y-132606785D01*
X87392142Y-132535357D01*
X87320714Y-132392500D01*
X87177857Y-132321071D01*
X86963571Y-132321071D01*
X86820714Y-132249642D01*
X86749285Y-132106785D01*
X86749285Y-132035357D01*
X86820714Y-131892500D01*
X86963571Y-131821071D01*
X87177857Y-131821071D01*
X87320714Y-131892500D01*
X88249285Y-132821071D02*
X88106428Y-132749642D01*
X88035000Y-132678214D01*
X87963571Y-132535357D01*
X87963571Y-132106785D01*
X88035000Y-131963928D01*
X88106428Y-131892500D01*
X88249285Y-131821071D01*
X88463571Y-131821071D01*
X88606428Y-131892500D01*
X88677857Y-131963928D01*
X88749285Y-132106785D01*
X88749285Y-132535357D01*
X88677857Y-132678214D01*
X88606428Y-132749642D01*
X88463571Y-132821071D01*
X88249285Y-132821071D01*
X89392142Y-132821071D02*
X89392142Y-131821071D01*
X89392142Y-132106785D02*
X89463571Y-131963928D01*
X89535000Y-131892500D01*
X89677857Y-131821071D01*
X89820714Y-131821071D01*
X91463571Y-132821071D02*
X91463571Y-131321071D01*
X92320714Y-132821071D01*
X92320714Y-131321071D01*
X93249285Y-132821071D02*
X93106428Y-132749642D01*
X93034999Y-132678214D01*
X92963571Y-132535357D01*
X92963571Y-132106785D01*
X93034999Y-131963928D01*
X93106428Y-131892500D01*
X93249285Y-131821071D01*
X93463571Y-131821071D01*
X93606428Y-131892500D01*
X93677857Y-131963928D01*
X93749285Y-132106785D01*
X93749285Y-132535357D01*
X93677857Y-132678214D01*
X93606428Y-132749642D01*
X93463571Y-132821071D01*
X93249285Y-132821071D01*
X95034999Y-132821071D02*
X95034999Y-131321071D01*
X95034999Y-132749642D02*
X94892142Y-132821071D01*
X94606428Y-132821071D01*
X94463571Y-132749642D01*
X94392142Y-132678214D01*
X94320714Y-132535357D01*
X94320714Y-132106785D01*
X94392142Y-131963928D01*
X94463571Y-131892500D01*
X94606428Y-131821071D01*
X94892142Y-131821071D01*
X95034999Y-131892500D01*
X96320714Y-132749642D02*
X96177857Y-132821071D01*
X95892142Y-132821071D01*
X95749285Y-132749642D01*
X95677857Y-132606785D01*
X95677857Y-132035357D01*
X95749285Y-131892500D01*
X95892142Y-131821071D01*
X96177857Y-131821071D01*
X96320714Y-131892500D01*
X96392142Y-132035357D01*
X96392142Y-132178214D01*
X95677857Y-132321071D01*
X87963571Y-134236071D02*
X88320714Y-135236071D01*
X88677857Y-134236071D01*
X90035000Y-135236071D02*
X89177857Y-135236071D01*
X89606428Y-135236071D02*
X89606428Y-133736071D01*
X89463571Y-133950357D01*
X89320714Y-134093214D01*
X89177857Y-134164642D01*
X90677857Y-135093214D02*
X90749285Y-135164642D01*
X90677857Y-135236071D01*
X90606428Y-135164642D01*
X90677857Y-135093214D01*
X90677857Y-135236071D01*
X91677857Y-133736071D02*
X91820714Y-133736071D01*
X91963571Y-133807500D01*
X92035000Y-133878928D01*
X92106428Y-134021785D01*
X92177857Y-134307500D01*
X92177857Y-134664642D01*
X92106428Y-134950357D01*
X92035000Y-135093214D01*
X91963571Y-135164642D01*
X91820714Y-135236071D01*
X91677857Y-135236071D01*
X91535000Y-135164642D01*
X91463571Y-135093214D01*
X91392142Y-134950357D01*
X91320714Y-134664642D01*
X91320714Y-134307500D01*
X91392142Y-134021785D01*
X91463571Y-133878928D01*
X91535000Y-133807500D01*
X91677857Y-133736071D01*
D11*
X123642380Y-116435000D02*
X123642380Y-116911190D01*
X122642380Y-116911190D01*
X123642380Y-116101666D02*
X122975714Y-116101666D01*
X122642380Y-116101666D02*
X122690000Y-116149285D01*
X122737619Y-116101666D01*
X122690000Y-116054047D01*
X122642380Y-116101666D01*
X122737619Y-116101666D01*
X123261428Y-115625476D02*
X123261428Y-114863571D01*
X123642380Y-114387380D02*
X122642380Y-114387380D01*
X122642380Y-114006428D01*
X122690000Y-113911190D01*
X122737619Y-113863571D01*
X122832857Y-113815952D01*
X122975714Y-113815952D01*
X123070952Y-113863571D01*
X123118571Y-113911190D01*
X123166190Y-114006428D01*
X123166190Y-114387380D01*
X123642380Y-113244523D02*
X123594761Y-113339761D01*
X123547142Y-113387380D01*
X123451904Y-113435000D01*
X123166190Y-113435000D01*
X123070952Y-113387380D01*
X123023333Y-113339761D01*
X122975714Y-113244523D01*
X122975714Y-113101666D01*
X123023333Y-113006428D01*
X123070952Y-112958809D01*
X123166190Y-112911190D01*
X123451904Y-112911190D01*
X123547142Y-112958809D01*
X123594761Y-113006428D01*
X123642380Y-113101666D01*
X123642380Y-113244523D01*
X133167380Y-60467380D02*
X132167380Y-60467380D01*
X132262619Y-60038809D02*
X132215000Y-59991190D01*
X132167380Y-59895952D01*
X132167380Y-59657857D01*
X132215000Y-59562619D01*
X132262619Y-59515000D01*
X132357857Y-59467380D01*
X132453095Y-59467380D01*
X132595952Y-59515000D01*
X133167380Y-60086428D01*
X133167380Y-59467380D01*
X133072142Y-58467380D02*
X133119761Y-58515000D01*
X133167380Y-58657857D01*
X133167380Y-58753095D01*
X133119761Y-58895952D01*
X133024523Y-58991190D01*
X132929285Y-59038809D01*
X132738809Y-59086428D01*
X132595952Y-59086428D01*
X132405476Y-59038809D01*
X132310238Y-58991190D01*
X132215000Y-58895952D01*
X132167380Y-58753095D01*
X132167380Y-58657857D01*
X132215000Y-58515000D01*
X132262619Y-58467380D01*
X133167380Y-57276904D02*
X132167380Y-57276904D01*
X132643571Y-57276904D02*
X132643571Y-56705476D01*
X133167380Y-56705476D02*
X132167380Y-56705476D01*
X133119761Y-55848333D02*
X133167380Y-55943571D01*
X133167380Y-56134047D01*
X133119761Y-56229285D01*
X133024523Y-56276904D01*
X132643571Y-56276904D01*
X132548333Y-56229285D01*
X132500714Y-56134047D01*
X132500714Y-55943571D01*
X132548333Y-55848333D01*
X132643571Y-55800714D01*
X132738809Y-55800714D01*
X132834047Y-56276904D01*
X133167380Y-54943571D02*
X132643571Y-54943571D01*
X132548333Y-54991190D01*
X132500714Y-55086428D01*
X132500714Y-55276904D01*
X132548333Y-55372142D01*
X133119761Y-54943571D02*
X133167380Y-55038809D01*
X133167380Y-55276904D01*
X133119761Y-55372142D01*
X133024523Y-55419761D01*
X132929285Y-55419761D01*
X132834047Y-55372142D01*
X132786428Y-55276904D01*
X132786428Y-55038809D01*
X132738809Y-54943571D01*
X133167380Y-54038809D02*
X132167380Y-54038809D01*
X133119761Y-54038809D02*
X133167380Y-54134047D01*
X133167380Y-54324523D01*
X133119761Y-54419761D01*
X133072142Y-54467380D01*
X132976904Y-54515000D01*
X132691190Y-54515000D01*
X132595952Y-54467380D01*
X132548333Y-54419761D01*
X132500714Y-54324523D01*
X132500714Y-54134047D01*
X132548333Y-54038809D01*
X133119761Y-53181666D02*
X133167380Y-53276904D01*
X133167380Y-53467380D01*
X133119761Y-53562619D01*
X133024523Y-53610238D01*
X132643571Y-53610238D01*
X132548333Y-53562619D01*
X132500714Y-53467380D01*
X132500714Y-53276904D01*
X132548333Y-53181666D01*
X132643571Y-53134047D01*
X132738809Y-53134047D01*
X132834047Y-53610238D01*
X133167380Y-52705476D02*
X132500714Y-52705476D01*
X132691190Y-52705476D02*
X132595952Y-52657857D01*
X132548333Y-52610238D01*
X132500714Y-52515000D01*
X132500714Y-52419761D01*
X132571848Y-78663571D02*
X132571848Y-78996904D01*
X133095657Y-78996904D02*
X132095657Y-78996904D01*
X132095657Y-78520714D01*
X132095657Y-78282619D02*
X132095657Y-77711190D01*
X133095657Y-77996904D02*
X132095657Y-77996904D01*
X133095657Y-77377857D02*
X132095657Y-77377857D01*
X132095657Y-77139761D01*
X132143277Y-76996904D01*
X132238515Y-76901666D01*
X132333753Y-76854047D01*
X132524229Y-76806428D01*
X132667086Y-76806428D01*
X132857562Y-76854047D01*
X132952800Y-76901666D01*
X133048038Y-76996904D01*
X133095657Y-77139761D01*
X133095657Y-77377857D01*
X133095657Y-76377857D02*
X132095657Y-76377857D01*
X132048038Y-74425476D02*
X133333753Y-75282619D01*
X133048038Y-73377857D02*
X133095657Y-73235000D01*
X133095657Y-72996904D01*
X133048038Y-72901666D01*
X133000419Y-72854047D01*
X132905181Y-72806428D01*
X132809943Y-72806428D01*
X132714705Y-72854047D01*
X132667086Y-72901666D01*
X132619467Y-72996904D01*
X132571848Y-73187380D01*
X132524229Y-73282619D01*
X132476610Y-73330238D01*
X132381372Y-73377857D01*
X132286134Y-73377857D01*
X132190896Y-73330238D01*
X132143277Y-73282619D01*
X132095657Y-73187380D01*
X132095657Y-72949285D01*
X132143277Y-72806428D01*
X133048038Y-71996904D02*
X133095657Y-72092142D01*
X133095657Y-72282619D01*
X133048038Y-72377857D01*
X132952800Y-72425476D01*
X132571848Y-72425476D01*
X132476610Y-72377857D01*
X132428991Y-72282619D01*
X132428991Y-72092142D01*
X132476610Y-71996904D01*
X132571848Y-71949285D01*
X132667086Y-71949285D01*
X132762324Y-72425476D01*
X133095657Y-71520714D02*
X132428991Y-71520714D01*
X132619467Y-71520714D02*
X132524229Y-71473095D01*
X132476610Y-71425476D01*
X132428991Y-71330238D01*
X132428991Y-71235000D01*
X133095657Y-70901666D02*
X132428991Y-70901666D01*
X132095657Y-70901666D02*
X132143277Y-70949285D01*
X132190896Y-70901666D01*
X132143277Y-70854047D01*
X132095657Y-70901666D01*
X132190896Y-70901666D01*
X133095657Y-69996904D02*
X132571848Y-69996904D01*
X132476610Y-70044523D01*
X132428991Y-70139761D01*
X132428991Y-70330238D01*
X132476610Y-70425476D01*
X133048038Y-69996904D02*
X133095657Y-70092142D01*
X133095657Y-70330238D01*
X133048038Y-70425476D01*
X132952800Y-70473095D01*
X132857562Y-70473095D01*
X132762324Y-70425476D01*
X132714705Y-70330238D01*
X132714705Y-70092142D01*
X132667086Y-69996904D01*
X133095657Y-69377857D02*
X133048038Y-69473095D01*
X132952800Y-69520714D01*
X132095657Y-69520714D01*
%TO.C,U2*%
X115570095Y-46188380D02*
X115570095Y-46997904D01*
X115617714Y-47093142D01*
X115665333Y-47140761D01*
X115760571Y-47188380D01*
X115951047Y-47188380D01*
X116046285Y-47140761D01*
X116093904Y-47093142D01*
X116141523Y-46997904D01*
X116141523Y-46188380D01*
X116570095Y-46283619D02*
X116617714Y-46236000D01*
X116712952Y-46188380D01*
X116951047Y-46188380D01*
X117046285Y-46236000D01*
X117093904Y-46283619D01*
X117141523Y-46378857D01*
X117141523Y-46474095D01*
X117093904Y-46616952D01*
X116522476Y-47188380D01*
X117141523Y-47188380D01*
%TO.C,SW2*%
X79311666Y-115896761D02*
X79454523Y-115944380D01*
X79692619Y-115944380D01*
X79787857Y-115896761D01*
X79835476Y-115849142D01*
X79883095Y-115753904D01*
X79883095Y-115658666D01*
X79835476Y-115563428D01*
X79787857Y-115515809D01*
X79692619Y-115468190D01*
X79502142Y-115420571D01*
X79406904Y-115372952D01*
X79359285Y-115325333D01*
X79311666Y-115230095D01*
X79311666Y-115134857D01*
X79359285Y-115039619D01*
X79406904Y-114992000D01*
X79502142Y-114944380D01*
X79740238Y-114944380D01*
X79883095Y-114992000D01*
X80216428Y-114944380D02*
X80454523Y-115944380D01*
X80645000Y-115230095D01*
X80835476Y-115944380D01*
X81073571Y-114944380D01*
X81406904Y-115039619D02*
X81454523Y-114992000D01*
X81549761Y-114944380D01*
X81787857Y-114944380D01*
X81883095Y-114992000D01*
X81930714Y-115039619D01*
X81978333Y-115134857D01*
X81978333Y-115230095D01*
X81930714Y-115372952D01*
X81359285Y-115944380D01*
X81978333Y-115944380D01*
%TO.C,L1*%
X104898181Y-97099380D02*
X104421990Y-97099380D01*
X104421990Y-96099380D01*
X105755324Y-97099380D02*
X105183895Y-97099380D01*
X105469609Y-97099380D02*
X105469609Y-96099380D01*
X105374371Y-96242238D01*
X105279133Y-96337476D01*
X105183895Y-96385095D01*
%TO.C,J3*%
X85673236Y-57855880D02*
X85673236Y-58570166D01*
X85625617Y-58713023D01*
X85530379Y-58808261D01*
X85387522Y-58855880D01*
X85292284Y-58855880D01*
X86054189Y-57855880D02*
X86673236Y-57855880D01*
X86339903Y-58236833D01*
X86482760Y-58236833D01*
X86577998Y-58284452D01*
X86625617Y-58332071D01*
X86673236Y-58427309D01*
X86673236Y-58665404D01*
X86625617Y-58760642D01*
X86577998Y-58808261D01*
X86482760Y-58855880D01*
X86197046Y-58855880D01*
X86101808Y-58808261D01*
X86054189Y-58760642D01*
%TO.C,Q3*%
X117925860Y-67963018D02*
X117830622Y-67915399D01*
X117735384Y-67820160D01*
X117592527Y-67677303D01*
X117497289Y-67629684D01*
X117402051Y-67629684D01*
X117449670Y-67867779D02*
X117354432Y-67820160D01*
X117259194Y-67724922D01*
X117211575Y-67534446D01*
X117211575Y-67201113D01*
X117259194Y-67010637D01*
X117354432Y-66915399D01*
X117449670Y-66867779D01*
X117640146Y-66867779D01*
X117735384Y-66915399D01*
X117830622Y-67010637D01*
X117878241Y-67201113D01*
X117878241Y-67534446D01*
X117830622Y-67724922D01*
X117735384Y-67820160D01*
X117640146Y-67867779D01*
X117449670Y-67867779D01*
X118211575Y-66867779D02*
X118830622Y-66867779D01*
X118497289Y-67248732D01*
X118640146Y-67248732D01*
X118735384Y-67296351D01*
X118783003Y-67343970D01*
X118830622Y-67439208D01*
X118830622Y-67677303D01*
X118783003Y-67772541D01*
X118735384Y-67820160D01*
X118640146Y-67867779D01*
X118354432Y-67867779D01*
X118259194Y-67820160D01*
X118211575Y-67772541D01*
%TO.C,D6*%
X97891280Y-103432379D02*
X97891280Y-102432379D01*
X98129376Y-102432379D01*
X98272233Y-102479999D01*
X98367471Y-102575237D01*
X98415090Y-102670475D01*
X98462709Y-102860951D01*
X98462709Y-103003808D01*
X98415090Y-103194284D01*
X98367471Y-103289522D01*
X98272233Y-103384760D01*
X98129376Y-103432379D01*
X97891280Y-103432379D01*
X99319852Y-102432379D02*
X99129376Y-102432379D01*
X99034137Y-102479999D01*
X98986518Y-102527618D01*
X98891280Y-102670475D01*
X98843661Y-102860951D01*
X98843661Y-103241903D01*
X98891280Y-103337141D01*
X98938899Y-103384760D01*
X99034137Y-103432379D01*
X99224614Y-103432379D01*
X99319852Y-103384760D01*
X99367471Y-103337141D01*
X99415090Y-103241903D01*
X99415090Y-103003808D01*
X99367471Y-102908570D01*
X99319852Y-102860951D01*
X99224614Y-102813332D01*
X99034137Y-102813332D01*
X98938899Y-102860951D01*
X98891280Y-102908570D01*
X98843661Y-103003808D01*
%TO.C,J10*%
X130934904Y-102980828D02*
X130934904Y-103695114D01*
X130887285Y-103837971D01*
X130792047Y-103933209D01*
X130649189Y-103980828D01*
X130553951Y-103980828D01*
X131934904Y-103980828D02*
X131363475Y-103980828D01*
X131649189Y-103980828D02*
X131649189Y-102980828D01*
X131553951Y-103123686D01*
X131458713Y-103218924D01*
X131363475Y-103266543D01*
X132553951Y-102980828D02*
X132649189Y-102980828D01*
X132744428Y-103028448D01*
X132792047Y-103076067D01*
X132839666Y-103171305D01*
X132887285Y-103361781D01*
X132887285Y-103599876D01*
X132839666Y-103790352D01*
X132792047Y-103885590D01*
X132744428Y-103933209D01*
X132649189Y-103980828D01*
X132553951Y-103980828D01*
X132458713Y-103933209D01*
X132411094Y-103885590D01*
X132363475Y-103790352D01*
X132315856Y-103599876D01*
X132315856Y-103361781D01*
X132363475Y-103171305D01*
X132411094Y-103076067D01*
X132458713Y-103028448D01*
X132553951Y-102980828D01*
%TO.C,R12*%
X112718481Y-136021405D02*
X112385148Y-135545215D01*
X112147053Y-136021405D02*
X112147053Y-135021405D01*
X112528005Y-135021405D01*
X112623243Y-135069025D01*
X112670862Y-135116644D01*
X112718481Y-135211882D01*
X112718481Y-135354739D01*
X112670862Y-135449977D01*
X112623243Y-135497596D01*
X112528005Y-135545215D01*
X112147053Y-135545215D01*
X113670862Y-136021405D02*
X113099434Y-136021405D01*
X113385148Y-136021405D02*
X113385148Y-135021405D01*
X113289910Y-135164263D01*
X113194672Y-135259501D01*
X113099434Y-135307120D01*
X114051815Y-135116644D02*
X114099434Y-135069025D01*
X114194672Y-135021405D01*
X114432767Y-135021405D01*
X114528005Y-135069025D01*
X114575624Y-135116644D01*
X114623243Y-135211882D01*
X114623243Y-135307120D01*
X114575624Y-135449977D01*
X114004196Y-136021405D01*
X114623243Y-136021405D01*
%TO.C,R17*%
X104126109Y-111930785D02*
X103792776Y-111454595D01*
X103554681Y-111930785D02*
X103554681Y-110930785D01*
X103935633Y-110930785D01*
X104030871Y-110978405D01*
X104078490Y-111026024D01*
X104126109Y-111121262D01*
X104126109Y-111264119D01*
X104078490Y-111359357D01*
X104030871Y-111406976D01*
X103935633Y-111454595D01*
X103554681Y-111454595D01*
X105078490Y-111930785D02*
X104507062Y-111930785D01*
X104792776Y-111930785D02*
X104792776Y-110930785D01*
X104697538Y-111073643D01*
X104602300Y-111168881D01*
X104507062Y-111216500D01*
X105411824Y-110930785D02*
X106078490Y-110930785D01*
X105649919Y-111930785D01*
%TO.C,J5*%
X85754175Y-66687380D02*
X85754175Y-67401666D01*
X85706556Y-67544523D01*
X85611318Y-67639761D01*
X85468461Y-67687380D01*
X85373223Y-67687380D01*
X86706556Y-66687380D02*
X86230366Y-66687380D01*
X86182747Y-67163571D01*
X86230366Y-67115952D01*
X86325604Y-67068333D01*
X86563699Y-67068333D01*
X86658937Y-67115952D01*
X86706556Y-67163571D01*
X86754175Y-67258809D01*
X86754175Y-67496904D01*
X86706556Y-67592142D01*
X86658937Y-67639761D01*
X86563699Y-67687380D01*
X86325604Y-67687380D01*
X86230366Y-67639761D01*
X86182747Y-67592142D01*
%TO.C,R13*%
X120405565Y-135447083D02*
X120072232Y-134970893D01*
X119834137Y-135447083D02*
X119834137Y-134447083D01*
X120215089Y-134447083D01*
X120310327Y-134494703D01*
X120357946Y-134542322D01*
X120405565Y-134637560D01*
X120405565Y-134780417D01*
X120357946Y-134875655D01*
X120310327Y-134923274D01*
X120215089Y-134970893D01*
X119834137Y-134970893D01*
X121357946Y-135447083D02*
X120786518Y-135447083D01*
X121072232Y-135447083D02*
X121072232Y-134447083D01*
X120976994Y-134589941D01*
X120881756Y-134685179D01*
X120786518Y-134732798D01*
X121691280Y-134447083D02*
X122310327Y-134447083D01*
X121976994Y-134828036D01*
X122119851Y-134828036D01*
X122215089Y-134875655D01*
X122262708Y-134923274D01*
X122310327Y-135018512D01*
X122310327Y-135256607D01*
X122262708Y-135351845D01*
X122215089Y-135399464D01*
X122119851Y-135447083D01*
X121834137Y-135447083D01*
X121738899Y-135399464D01*
X121691280Y-135351845D01*
%TO.C,D5*%
X118348609Y-132333304D02*
X118348609Y-131333304D01*
X118586705Y-131333304D01*
X118729562Y-131380924D01*
X118824800Y-131476162D01*
X118872419Y-131571400D01*
X118920038Y-131761876D01*
X118920038Y-131904733D01*
X118872419Y-132095209D01*
X118824800Y-132190447D01*
X118729562Y-132285685D01*
X118586705Y-132333304D01*
X118348609Y-132333304D01*
X119824800Y-131333304D02*
X119348609Y-131333304D01*
X119300990Y-131809495D01*
X119348609Y-131761876D01*
X119443847Y-131714257D01*
X119681943Y-131714257D01*
X119777181Y-131761876D01*
X119824800Y-131809495D01*
X119872419Y-131904733D01*
X119872419Y-132142828D01*
X119824800Y-132238066D01*
X119777181Y-132285685D01*
X119681943Y-132333304D01*
X119443847Y-132333304D01*
X119348609Y-132285685D01*
X119300990Y-132238066D01*
%TO.C,C9*%
X94844599Y-100558327D02*
X94796980Y-100605946D01*
X94654123Y-100653565D01*
X94558885Y-100653565D01*
X94416027Y-100605946D01*
X94320789Y-100510708D01*
X94273170Y-100415470D01*
X94225551Y-100224994D01*
X94225551Y-100082137D01*
X94273170Y-99891661D01*
X94320789Y-99796423D01*
X94416027Y-99701185D01*
X94558885Y-99653565D01*
X94654123Y-99653565D01*
X94796980Y-99701185D01*
X94844599Y-99748804D01*
X95320789Y-100653565D02*
X95511266Y-100653565D01*
X95606504Y-100605946D01*
X95654123Y-100558327D01*
X95749361Y-100415470D01*
X95796980Y-100224994D01*
X95796980Y-99844042D01*
X95749361Y-99748804D01*
X95701742Y-99701185D01*
X95606504Y-99653565D01*
X95416027Y-99653565D01*
X95320789Y-99701185D01*
X95273170Y-99748804D01*
X95225551Y-99844042D01*
X95225551Y-100082137D01*
X95273170Y-100177375D01*
X95320789Y-100224994D01*
X95416027Y-100272613D01*
X95606504Y-100272613D01*
X95701742Y-100224994D01*
X95749361Y-100177375D01*
X95796980Y-100082137D01*
%TO.C,R4*%
X86861743Y-65853084D02*
X86528410Y-65376894D01*
X86290314Y-65853084D02*
X86290314Y-64853084D01*
X86671267Y-64853084D01*
X86766505Y-64900704D01*
X86814124Y-64948323D01*
X86861743Y-65043561D01*
X86861743Y-65186418D01*
X86814124Y-65281656D01*
X86766505Y-65329275D01*
X86671267Y-65376894D01*
X86290314Y-65376894D01*
X87718886Y-65186418D02*
X87718886Y-65853084D01*
X87480790Y-64805465D02*
X87242695Y-65519751D01*
X87861743Y-65519751D01*
%TO.C,C2*%
X102703333Y-85379996D02*
X102655714Y-85427615D01*
X102512857Y-85475234D01*
X102417619Y-85475234D01*
X102274761Y-85427615D01*
X102179523Y-85332377D01*
X102131904Y-85237139D01*
X102084285Y-85046663D01*
X102084285Y-84903806D01*
X102131904Y-84713330D01*
X102179523Y-84618092D01*
X102274761Y-84522854D01*
X102417619Y-84475234D01*
X102512857Y-84475234D01*
X102655714Y-84522854D01*
X102703333Y-84570473D01*
X103084285Y-84570473D02*
X103131904Y-84522854D01*
X103227142Y-84475234D01*
X103465238Y-84475234D01*
X103560476Y-84522854D01*
X103608095Y-84570473D01*
X103655714Y-84665711D01*
X103655714Y-84760949D01*
X103608095Y-84903806D01*
X103036666Y-85475234D01*
X103655714Y-85475234D01*
%TO.C,C5*%
X90774252Y-45696674D02*
X90726633Y-45744293D01*
X90583776Y-45791912D01*
X90488538Y-45791912D01*
X90345680Y-45744293D01*
X90250442Y-45649055D01*
X90202823Y-45553817D01*
X90155204Y-45363341D01*
X90155204Y-45220484D01*
X90202823Y-45030008D01*
X90250442Y-44934770D01*
X90345680Y-44839532D01*
X90488538Y-44791912D01*
X90583776Y-44791912D01*
X90726633Y-44839532D01*
X90774252Y-44887151D01*
X91679014Y-44791912D02*
X91202823Y-44791912D01*
X91155204Y-45268103D01*
X91202823Y-45220484D01*
X91298061Y-45172865D01*
X91536157Y-45172865D01*
X91631395Y-45220484D01*
X91679014Y-45268103D01*
X91726633Y-45363341D01*
X91726633Y-45601436D01*
X91679014Y-45696674D01*
X91631395Y-45744293D01*
X91536157Y-45791912D01*
X91298061Y-45791912D01*
X91202823Y-45744293D01*
X91155204Y-45696674D01*
%TO.C,R21*%
X120372142Y-64537380D02*
X120038809Y-64061190D01*
X119800714Y-64537380D02*
X119800714Y-63537380D01*
X120181666Y-63537380D01*
X120276904Y-63585000D01*
X120324523Y-63632619D01*
X120372142Y-63727857D01*
X120372142Y-63870714D01*
X120324523Y-63965952D01*
X120276904Y-64013571D01*
X120181666Y-64061190D01*
X119800714Y-64061190D01*
X120753095Y-63632619D02*
X120800714Y-63585000D01*
X120895952Y-63537380D01*
X121134047Y-63537380D01*
X121229285Y-63585000D01*
X121276904Y-63632619D01*
X121324523Y-63727857D01*
X121324523Y-63823095D01*
X121276904Y-63965952D01*
X120705476Y-64537380D01*
X121324523Y-64537380D01*
X122276904Y-64537380D02*
X121705476Y-64537380D01*
X121991190Y-64537380D02*
X121991190Y-63537380D01*
X121895952Y-63680238D01*
X121800714Y-63775476D01*
X121705476Y-63823095D01*
%TO.C,R1*%
X86922280Y-56978288D02*
X86588947Y-56502098D01*
X86350851Y-56978288D02*
X86350851Y-55978288D01*
X86731804Y-55978288D01*
X86827042Y-56025908D01*
X86874661Y-56073527D01*
X86922280Y-56168765D01*
X86922280Y-56311622D01*
X86874661Y-56406860D01*
X86827042Y-56454479D01*
X86731804Y-56502098D01*
X86350851Y-56502098D01*
X87874661Y-56978288D02*
X87303232Y-56978288D01*
X87588947Y-56978288D02*
X87588947Y-55978288D01*
X87493708Y-56121146D01*
X87398470Y-56216384D01*
X87303232Y-56264003D01*
%TO.C,J1*%
X86026666Y-48982380D02*
X86026666Y-49696666D01*
X85979047Y-49839523D01*
X85883809Y-49934761D01*
X85740952Y-49982380D01*
X85645714Y-49982380D01*
X87026666Y-49982380D02*
X86455238Y-49982380D01*
X86740952Y-49982380D02*
X86740952Y-48982380D01*
X86645714Y-49125238D01*
X86550476Y-49220476D01*
X86455238Y-49268095D01*
%TO.C,C4*%
X100825469Y-127900239D02*
X100777850Y-127947858D01*
X100634993Y-127995477D01*
X100539755Y-127995477D01*
X100396897Y-127947858D01*
X100301659Y-127852620D01*
X100254040Y-127757382D01*
X100206421Y-127566906D01*
X100206421Y-127424049D01*
X100254040Y-127233573D01*
X100301659Y-127138335D01*
X100396897Y-127043097D01*
X100539755Y-126995477D01*
X100634993Y-126995477D01*
X100777850Y-127043097D01*
X100825469Y-127090716D01*
X101682612Y-127328811D02*
X101682612Y-127995477D01*
X101444516Y-126947858D02*
X101206421Y-127662144D01*
X101825469Y-127662144D01*
%TO.C,R3*%
X86844873Y-83034765D02*
X86511540Y-82558575D01*
X86273444Y-83034765D02*
X86273444Y-82034765D01*
X86654397Y-82034765D01*
X86749635Y-82082385D01*
X86797254Y-82130004D01*
X86844873Y-82225242D01*
X86844873Y-82368099D01*
X86797254Y-82463337D01*
X86749635Y-82510956D01*
X86654397Y-82558575D01*
X86273444Y-82558575D01*
X87178206Y-82034765D02*
X87797254Y-82034765D01*
X87463920Y-82415718D01*
X87606778Y-82415718D01*
X87702016Y-82463337D01*
X87749635Y-82510956D01*
X87797254Y-82606194D01*
X87797254Y-82844289D01*
X87749635Y-82939527D01*
X87702016Y-82987146D01*
X87606778Y-83034765D01*
X87321063Y-83034765D01*
X87225825Y-82987146D01*
X87178206Y-82939527D01*
%TO.C,J4*%
X85691270Y-84083217D02*
X85691270Y-84797503D01*
X85643651Y-84940360D01*
X85548413Y-85035598D01*
X85405556Y-85083217D01*
X85310318Y-85083217D01*
X86596032Y-84416551D02*
X86596032Y-85083217D01*
X86357937Y-84035598D02*
X86119842Y-84749884D01*
X86738889Y-84749884D01*
%TO.C,J6*%
X131216666Y-48280296D02*
X131216666Y-48994582D01*
X131169047Y-49137439D01*
X131073809Y-49232677D01*
X130930952Y-49280296D01*
X130835714Y-49280296D01*
X132121428Y-48280296D02*
X131930952Y-48280296D01*
X131835714Y-48327916D01*
X131788095Y-48375535D01*
X131692857Y-48518392D01*
X131645238Y-48708868D01*
X131645238Y-49089820D01*
X131692857Y-49185058D01*
X131740476Y-49232677D01*
X131835714Y-49280296D01*
X132026190Y-49280296D01*
X132121428Y-49232677D01*
X132169047Y-49185058D01*
X132216666Y-49089820D01*
X132216666Y-48851725D01*
X132169047Y-48756487D01*
X132121428Y-48708868D01*
X132026190Y-48661249D01*
X131835714Y-48661249D01*
X131740476Y-48708868D01*
X131692857Y-48756487D01*
X131645238Y-48851725D01*
%TO.C,R7*%
X86844873Y-74795610D02*
X86511540Y-74319420D01*
X86273444Y-74795610D02*
X86273444Y-73795610D01*
X86654397Y-73795610D01*
X86749635Y-73843230D01*
X86797254Y-73890849D01*
X86844873Y-73986087D01*
X86844873Y-74128944D01*
X86797254Y-74224182D01*
X86749635Y-74271801D01*
X86654397Y-74319420D01*
X86273444Y-74319420D01*
X87178206Y-73795610D02*
X87844873Y-73795610D01*
X87416301Y-74795610D01*
%TO.C,Q2*%
X110648761Y-74652619D02*
X110553523Y-74605000D01*
X110458285Y-74509761D01*
X110315428Y-74366904D01*
X110220190Y-74319285D01*
X110124952Y-74319285D01*
X110172571Y-74557380D02*
X110077333Y-74509761D01*
X109982095Y-74414523D01*
X109934476Y-74224047D01*
X109934476Y-73890714D01*
X109982095Y-73700238D01*
X110077333Y-73605000D01*
X110172571Y-73557380D01*
X110363047Y-73557380D01*
X110458285Y-73605000D01*
X110553523Y-73700238D01*
X110601142Y-73890714D01*
X110601142Y-74224047D01*
X110553523Y-74414523D01*
X110458285Y-74509761D01*
X110363047Y-74557380D01*
X110172571Y-74557380D01*
X110982095Y-73652619D02*
X111029714Y-73605000D01*
X111124952Y-73557380D01*
X111363047Y-73557380D01*
X111458285Y-73605000D01*
X111505904Y-73652619D01*
X111553523Y-73747857D01*
X111553523Y-73843095D01*
X111505904Y-73985952D01*
X110934476Y-74557380D01*
X111553523Y-74557380D01*
%TO.C,D3*%
X117780420Y-142780737D02*
X117780420Y-141780737D01*
X118018516Y-141780737D01*
X118161373Y-141828357D01*
X118256611Y-141923595D01*
X118304230Y-142018833D01*
X118351849Y-142209309D01*
X118351849Y-142352166D01*
X118304230Y-142542642D01*
X118256611Y-142637880D01*
X118161373Y-142733118D01*
X118018516Y-142780737D01*
X117780420Y-142780737D01*
X118685182Y-141780737D02*
X119304230Y-141780737D01*
X118970896Y-142161690D01*
X119113754Y-142161690D01*
X119208992Y-142209309D01*
X119256611Y-142256928D01*
X119304230Y-142352166D01*
X119304230Y-142590261D01*
X119256611Y-142685499D01*
X119208992Y-142733118D01*
X119113754Y-142780737D01*
X118828039Y-142780737D01*
X118732801Y-142733118D01*
X118685182Y-142685499D01*
%TO.C,Q1*%
X123214343Y-126209306D02*
X123119105Y-126161687D01*
X123023867Y-126066448D01*
X122881010Y-125923591D01*
X122785772Y-125875972D01*
X122690534Y-125875972D01*
X122738153Y-126114067D02*
X122642915Y-126066448D01*
X122547677Y-125971210D01*
X122500058Y-125780734D01*
X122500058Y-125447401D01*
X122547677Y-125256925D01*
X122642915Y-125161687D01*
X122738153Y-125114067D01*
X122928629Y-125114067D01*
X123023867Y-125161687D01*
X123119105Y-125256925D01*
X123166724Y-125447401D01*
X123166724Y-125780734D01*
X123119105Y-125971210D01*
X123023867Y-126066448D01*
X122928629Y-126114067D01*
X122738153Y-126114067D01*
X124119105Y-126114067D02*
X123547677Y-126114067D01*
X123833391Y-126114067D02*
X123833391Y-125114067D01*
X123738153Y-125256925D01*
X123642915Y-125352163D01*
X123547677Y-125399782D01*
%TO.C,SW5*%
X100936666Y-74572761D02*
X101079523Y-74620380D01*
X101317619Y-74620380D01*
X101412857Y-74572761D01*
X101460476Y-74525142D01*
X101508095Y-74429904D01*
X101508095Y-74334666D01*
X101460476Y-74239428D01*
X101412857Y-74191809D01*
X101317619Y-74144190D01*
X101127142Y-74096571D01*
X101031904Y-74048952D01*
X100984285Y-74001333D01*
X100936666Y-73906095D01*
X100936666Y-73810857D01*
X100984285Y-73715619D01*
X101031904Y-73668000D01*
X101127142Y-73620380D01*
X101365238Y-73620380D01*
X101508095Y-73668000D01*
X101841428Y-73620380D02*
X102079523Y-74620380D01*
X102270000Y-73906095D01*
X102460476Y-74620380D01*
X102698571Y-73620380D01*
X103555714Y-73620380D02*
X103079523Y-73620380D01*
X103031904Y-74096571D01*
X103079523Y-74048952D01*
X103174761Y-74001333D01*
X103412857Y-74001333D01*
X103508095Y-74048952D01*
X103555714Y-74096571D01*
X103603333Y-74191809D01*
X103603333Y-74429904D01*
X103555714Y-74525142D01*
X103508095Y-74572761D01*
X103412857Y-74620380D01*
X103174761Y-74620380D01*
X103079523Y-74572761D01*
X103031904Y-74525142D01*
%TO.C,R14*%
X111223771Y-114735880D02*
X110890438Y-114259690D01*
X110652343Y-114735880D02*
X110652343Y-113735880D01*
X111033295Y-113735880D01*
X111128533Y-113783500D01*
X111176152Y-113831119D01*
X111223771Y-113926357D01*
X111223771Y-114069214D01*
X111176152Y-114164452D01*
X111128533Y-114212071D01*
X111033295Y-114259690D01*
X110652343Y-114259690D01*
X112176152Y-114735880D02*
X111604724Y-114735880D01*
X111890438Y-114735880D02*
X111890438Y-113735880D01*
X111795200Y-113878738D01*
X111699962Y-113973976D01*
X111604724Y-114021595D01*
X113033295Y-114069214D02*
X113033295Y-114735880D01*
X112795200Y-113688261D02*
X112557105Y-114402547D01*
X113176152Y-114402547D01*
%TO.C,R8*%
X86827087Y-123476116D02*
X86493754Y-122999926D01*
X86255658Y-123476116D02*
X86255658Y-122476116D01*
X86636611Y-122476116D01*
X86731849Y-122523736D01*
X86779468Y-122571355D01*
X86827087Y-122666593D01*
X86827087Y-122809450D01*
X86779468Y-122904688D01*
X86731849Y-122952307D01*
X86636611Y-122999926D01*
X86255658Y-122999926D01*
X87398515Y-122904688D02*
X87303277Y-122857069D01*
X87255658Y-122809450D01*
X87208039Y-122714212D01*
X87208039Y-122666593D01*
X87255658Y-122571355D01*
X87303277Y-122523736D01*
X87398515Y-122476116D01*
X87588992Y-122476116D01*
X87684230Y-122523736D01*
X87731849Y-122571355D01*
X87779468Y-122666593D01*
X87779468Y-122714212D01*
X87731849Y-122809450D01*
X87684230Y-122857069D01*
X87588992Y-122904688D01*
X87398515Y-122904688D01*
X87303277Y-122952307D01*
X87255658Y-122999926D01*
X87208039Y-123095164D01*
X87208039Y-123285640D01*
X87255658Y-123380878D01*
X87303277Y-123428497D01*
X87398515Y-123476116D01*
X87588992Y-123476116D01*
X87684230Y-123428497D01*
X87731849Y-123380878D01*
X87779468Y-123285640D01*
X87779468Y-123095164D01*
X87731849Y-122999926D01*
X87684230Y-122952307D01*
X87588992Y-122904688D01*
%TO.C,SW1*%
X79311666Y-107274761D02*
X79454523Y-107322380D01*
X79692619Y-107322380D01*
X79787857Y-107274761D01*
X79835476Y-107227142D01*
X79883095Y-107131904D01*
X79883095Y-107036666D01*
X79835476Y-106941428D01*
X79787857Y-106893809D01*
X79692619Y-106846190D01*
X79502142Y-106798571D01*
X79406904Y-106750952D01*
X79359285Y-106703333D01*
X79311666Y-106608095D01*
X79311666Y-106512857D01*
X79359285Y-106417619D01*
X79406904Y-106370000D01*
X79502142Y-106322380D01*
X79740238Y-106322380D01*
X79883095Y-106370000D01*
X80216428Y-106322380D02*
X80454523Y-107322380D01*
X80645000Y-106608095D01*
X80835476Y-107322380D01*
X81073571Y-106322380D01*
X81978333Y-107322380D02*
X81406904Y-107322380D01*
X81692619Y-107322380D02*
X81692619Y-106322380D01*
X81597380Y-106465238D01*
X81502142Y-106560476D01*
X81406904Y-106608095D01*
%TO.C,JP1*%
X111113292Y-118616335D02*
X111113292Y-119330621D01*
X111065673Y-119473478D01*
X110970435Y-119568716D01*
X110827578Y-119616335D01*
X110732340Y-119616335D01*
X111589483Y-119616335D02*
X111589483Y-118616335D01*
X111970435Y-118616335D01*
X112065673Y-118663955D01*
X112113292Y-118711574D01*
X112160911Y-118806812D01*
X112160911Y-118949669D01*
X112113292Y-119044907D01*
X112065673Y-119092526D01*
X111970435Y-119140145D01*
X111589483Y-119140145D01*
X113113292Y-119616335D02*
X112541864Y-119616335D01*
X112827578Y-119616335D02*
X112827578Y-118616335D01*
X112732340Y-118759193D01*
X112637102Y-118854431D01*
X112541864Y-118902050D01*
%TO.C,R9*%
X104491282Y-80893379D02*
X104157949Y-80417189D01*
X103919853Y-80893379D02*
X103919853Y-79893379D01*
X104300806Y-79893379D01*
X104396044Y-79940999D01*
X104443663Y-79988618D01*
X104491282Y-80083856D01*
X104491282Y-80226713D01*
X104443663Y-80321951D01*
X104396044Y-80369570D01*
X104300806Y-80417189D01*
X103919853Y-80417189D01*
X104967472Y-80893379D02*
X105157949Y-80893379D01*
X105253187Y-80845760D01*
X105300806Y-80798141D01*
X105396044Y-80655284D01*
X105443663Y-80464808D01*
X105443663Y-80083856D01*
X105396044Y-79988618D01*
X105348425Y-79940999D01*
X105253187Y-79893379D01*
X105062710Y-79893379D01*
X104967472Y-79940999D01*
X104919853Y-79988618D01*
X104872234Y-80083856D01*
X104872234Y-80321951D01*
X104919853Y-80417189D01*
X104967472Y-80464808D01*
X105062710Y-80512427D01*
X105253187Y-80512427D01*
X105348425Y-80464808D01*
X105396044Y-80417189D01*
X105443663Y-80321951D01*
%TO.C,C3*%
X105878333Y-134342142D02*
X105830714Y-134389761D01*
X105687857Y-134437380D01*
X105592619Y-134437380D01*
X105449761Y-134389761D01*
X105354523Y-134294523D01*
X105306904Y-134199285D01*
X105259285Y-134008809D01*
X105259285Y-133865952D01*
X105306904Y-133675476D01*
X105354523Y-133580238D01*
X105449761Y-133485000D01*
X105592619Y-133437380D01*
X105687857Y-133437380D01*
X105830714Y-133485000D01*
X105878333Y-133532619D01*
X106211666Y-133437380D02*
X106830714Y-133437380D01*
X106497380Y-133818333D01*
X106640238Y-133818333D01*
X106735476Y-133865952D01*
X106783095Y-133913571D01*
X106830714Y-134008809D01*
X106830714Y-134246904D01*
X106783095Y-134342142D01*
X106735476Y-134389761D01*
X106640238Y-134437380D01*
X106354523Y-134437380D01*
X106259285Y-134389761D01*
X106211666Y-134342142D01*
%TO.C,R11*%
X108103172Y-126397547D02*
X107769839Y-125921357D01*
X107531744Y-126397547D02*
X107531744Y-125397547D01*
X107912696Y-125397547D01*
X108007934Y-125445167D01*
X108055553Y-125492786D01*
X108103172Y-125588024D01*
X108103172Y-125730881D01*
X108055553Y-125826119D01*
X108007934Y-125873738D01*
X107912696Y-125921357D01*
X107531744Y-125921357D01*
X109055553Y-126397547D02*
X108484125Y-126397547D01*
X108769839Y-126397547D02*
X108769839Y-125397547D01*
X108674601Y-125540405D01*
X108579363Y-125635643D01*
X108484125Y-125683262D01*
X110007934Y-126397547D02*
X109436506Y-126397547D01*
X109722220Y-126397547D02*
X109722220Y-125397547D01*
X109626982Y-125540405D01*
X109531744Y-125635643D01*
X109436506Y-125683262D01*
%TO.C,SW3*%
X79311666Y-124532761D02*
X79454523Y-124580380D01*
X79692619Y-124580380D01*
X79787857Y-124532761D01*
X79835476Y-124485142D01*
X79883095Y-124389904D01*
X79883095Y-124294666D01*
X79835476Y-124199428D01*
X79787857Y-124151809D01*
X79692619Y-124104190D01*
X79502142Y-124056571D01*
X79406904Y-124008952D01*
X79359285Y-123961333D01*
X79311666Y-123866095D01*
X79311666Y-123770857D01*
X79359285Y-123675619D01*
X79406904Y-123628000D01*
X79502142Y-123580380D01*
X79740238Y-123580380D01*
X79883095Y-123628000D01*
X80216428Y-123580380D02*
X80454523Y-124580380D01*
X80645000Y-123866095D01*
X80835476Y-124580380D01*
X81073571Y-123580380D01*
X81359285Y-123580380D02*
X81978333Y-123580380D01*
X81645000Y-123961333D01*
X81787857Y-123961333D01*
X81883095Y-124008952D01*
X81930714Y-124056571D01*
X81978333Y-124151809D01*
X81978333Y-124389904D01*
X81930714Y-124485142D01*
X81883095Y-124532761D01*
X81787857Y-124580380D01*
X81502142Y-124580380D01*
X81406904Y-124532761D01*
X81359285Y-124485142D01*
%TO.C,U4*%
X106934095Y-104608380D02*
X106934095Y-105417904D01*
X106981714Y-105513142D01*
X107029333Y-105560761D01*
X107124571Y-105608380D01*
X107315047Y-105608380D01*
X107410285Y-105560761D01*
X107457904Y-105513142D01*
X107505523Y-105417904D01*
X107505523Y-104608380D01*
X108410285Y-104941714D02*
X108410285Y-105608380D01*
X108172190Y-104560761D02*
X107934095Y-105275047D01*
X108553142Y-105275047D01*
%TO.C,C7*%
X92908333Y-54917142D02*
X92860714Y-54964761D01*
X92717857Y-55012380D01*
X92622619Y-55012380D01*
X92479761Y-54964761D01*
X92384523Y-54869523D01*
X92336904Y-54774285D01*
X92289285Y-54583809D01*
X92289285Y-54440952D01*
X92336904Y-54250476D01*
X92384523Y-54155238D01*
X92479761Y-54060000D01*
X92622619Y-54012380D01*
X92717857Y-54012380D01*
X92860714Y-54060000D01*
X92908333Y-54107619D01*
X93241666Y-54012380D02*
X93908333Y-54012380D01*
X93479761Y-55012380D01*
%TO.C,U3*%
X104719953Y-119028729D02*
X104719953Y-119838253D01*
X104767572Y-119933491D01*
X104815191Y-119981110D01*
X104910429Y-120028729D01*
X105100905Y-120028729D01*
X105196143Y-119981110D01*
X105243762Y-119933491D01*
X105291381Y-119838253D01*
X105291381Y-119028729D01*
X105672334Y-119028729D02*
X106291381Y-119028729D01*
X105958048Y-119409682D01*
X106100905Y-119409682D01*
X106196143Y-119457301D01*
X106243762Y-119504920D01*
X106291381Y-119600158D01*
X106291381Y-119838253D01*
X106243762Y-119933491D01*
X106196143Y-119981110D01*
X106100905Y-120028729D01*
X105815191Y-120028729D01*
X105719953Y-119981110D01*
X105672334Y-119933491D01*
%TO.C,SW4*%
X130532686Y-133475463D02*
X130675543Y-133523082D01*
X130913639Y-133523082D01*
X131008877Y-133475463D01*
X131056496Y-133427844D01*
X131104115Y-133332606D01*
X131104115Y-133237368D01*
X131056496Y-133142130D01*
X131008877Y-133094511D01*
X130913639Y-133046892D01*
X130723162Y-132999273D01*
X130627924Y-132951654D01*
X130580305Y-132904035D01*
X130532686Y-132808797D01*
X130532686Y-132713559D01*
X130580305Y-132618321D01*
X130627924Y-132570702D01*
X130723162Y-132523082D01*
X130961258Y-132523082D01*
X131104115Y-132570702D01*
X131437448Y-132523082D02*
X131675543Y-133523082D01*
X131866020Y-132808797D01*
X132056496Y-133523082D01*
X132294591Y-132523082D01*
X133104115Y-132856416D02*
X133104115Y-133523082D01*
X132866020Y-132475463D02*
X132627924Y-133189749D01*
X133246972Y-133189749D01*
%TO.C,R19*%
X117422419Y-57066102D02*
X117089086Y-56589912D01*
X116850991Y-57066102D02*
X116850991Y-56066102D01*
X117231943Y-56066102D01*
X117327181Y-56113722D01*
X117374800Y-56161341D01*
X117422419Y-56256579D01*
X117422419Y-56399436D01*
X117374800Y-56494674D01*
X117327181Y-56542293D01*
X117231943Y-56589912D01*
X116850991Y-56589912D01*
X118374800Y-57066102D02*
X117803372Y-57066102D01*
X118089086Y-57066102D02*
X118089086Y-56066102D01*
X117993848Y-56208960D01*
X117898610Y-56304198D01*
X117803372Y-56351817D01*
X118850991Y-57066102D02*
X119041467Y-57066102D01*
X119136705Y-57018483D01*
X119184324Y-56970864D01*
X119279562Y-56828007D01*
X119327181Y-56637531D01*
X119327181Y-56256579D01*
X119279562Y-56161341D01*
X119231943Y-56113722D01*
X119136705Y-56066102D01*
X118946229Y-56066102D01*
X118850991Y-56113722D01*
X118803372Y-56161341D01*
X118755753Y-56256579D01*
X118755753Y-56494674D01*
X118803372Y-56589912D01*
X118850991Y-56637531D01*
X118946229Y-56685150D01*
X119136705Y-56685150D01*
X119231943Y-56637531D01*
X119279562Y-56589912D01*
X119327181Y-56494674D01*
%TO.C,R10*%
X114305505Y-126251102D02*
X113972172Y-125774912D01*
X113734077Y-126251102D02*
X113734077Y-125251102D01*
X114115029Y-125251102D01*
X114210267Y-125298722D01*
X114257886Y-125346341D01*
X114305505Y-125441579D01*
X114305505Y-125584436D01*
X114257886Y-125679674D01*
X114210267Y-125727293D01*
X114115029Y-125774912D01*
X113734077Y-125774912D01*
X115257886Y-126251102D02*
X114686458Y-126251102D01*
X114972172Y-126251102D02*
X114972172Y-125251102D01*
X114876934Y-125393960D01*
X114781696Y-125489198D01*
X114686458Y-125536817D01*
X115876934Y-125251102D02*
X115972172Y-125251102D01*
X116067410Y-125298722D01*
X116115029Y-125346341D01*
X116162648Y-125441579D01*
X116210267Y-125632055D01*
X116210267Y-125870150D01*
X116162648Y-126060626D01*
X116115029Y-126155864D01*
X116067410Y-126203483D01*
X115972172Y-126251102D01*
X115876934Y-126251102D01*
X115781696Y-126203483D01*
X115734077Y-126155864D01*
X115686458Y-126060626D01*
X115638839Y-125870150D01*
X115638839Y-125632055D01*
X115686458Y-125441579D01*
X115734077Y-125346341D01*
X115781696Y-125298722D01*
X115876934Y-125251102D01*
%TO.C,J7*%
X130575660Y-63580702D02*
X130575660Y-64294988D01*
X130528041Y-64437845D01*
X130432803Y-64533083D01*
X130289946Y-64580702D01*
X130194708Y-64580702D01*
X130956613Y-63580702D02*
X131623279Y-63580702D01*
X131194708Y-64580702D01*
%TO.C,J8*%
X107972411Y-136141141D02*
X107972411Y-136855427D01*
X107924792Y-136998284D01*
X107829554Y-137093522D01*
X107686697Y-137141141D01*
X107591459Y-137141141D01*
X108591459Y-136569713D02*
X108496221Y-136522094D01*
X108448602Y-136474475D01*
X108400983Y-136379237D01*
X108400983Y-136331618D01*
X108448602Y-136236380D01*
X108496221Y-136188761D01*
X108591459Y-136141141D01*
X108781935Y-136141141D01*
X108877173Y-136188761D01*
X108924792Y-136236380D01*
X108972411Y-136331618D01*
X108972411Y-136379237D01*
X108924792Y-136474475D01*
X108877173Y-136522094D01*
X108781935Y-136569713D01*
X108591459Y-136569713D01*
X108496221Y-136617332D01*
X108448602Y-136664951D01*
X108400983Y-136760189D01*
X108400983Y-136950665D01*
X108448602Y-137045903D01*
X108496221Y-137093522D01*
X108591459Y-137141141D01*
X108781935Y-137141141D01*
X108877173Y-137093522D01*
X108924792Y-137045903D01*
X108972411Y-136950665D01*
X108972411Y-136760189D01*
X108924792Y-136664951D01*
X108877173Y-136617332D01*
X108781935Y-136569713D01*
%TO.C,R15*%
X95242142Y-80462380D02*
X94908809Y-79986190D01*
X94670714Y-80462380D02*
X94670714Y-79462380D01*
X95051666Y-79462380D01*
X95146904Y-79510000D01*
X95194523Y-79557619D01*
X95242142Y-79652857D01*
X95242142Y-79795714D01*
X95194523Y-79890952D01*
X95146904Y-79938571D01*
X95051666Y-79986190D01*
X94670714Y-79986190D01*
X96194523Y-80462380D02*
X95623095Y-80462380D01*
X95908809Y-80462380D02*
X95908809Y-79462380D01*
X95813571Y-79605238D01*
X95718333Y-79700476D01*
X95623095Y-79748095D01*
X97099285Y-79462380D02*
X96623095Y-79462380D01*
X96575476Y-79938571D01*
X96623095Y-79890952D01*
X96718333Y-79843333D01*
X96956428Y-79843333D01*
X97051666Y-79890952D01*
X97099285Y-79938571D01*
X97146904Y-80033809D01*
X97146904Y-80271904D01*
X97099285Y-80367142D01*
X97051666Y-80414761D01*
X96956428Y-80462380D01*
X96718333Y-80462380D01*
X96623095Y-80414761D01*
X96575476Y-80367142D01*
%TO.C,R20*%
X114357866Y-73091224D02*
X114024533Y-72615034D01*
X113786438Y-73091224D02*
X113786438Y-72091224D01*
X114167390Y-72091224D01*
X114262628Y-72138844D01*
X114310247Y-72186463D01*
X114357866Y-72281701D01*
X114357866Y-72424558D01*
X114310247Y-72519796D01*
X114262628Y-72567415D01*
X114167390Y-72615034D01*
X113786438Y-72615034D01*
X114738819Y-72186463D02*
X114786438Y-72138844D01*
X114881676Y-72091224D01*
X115119771Y-72091224D01*
X115215009Y-72138844D01*
X115262628Y-72186463D01*
X115310247Y-72281701D01*
X115310247Y-72376939D01*
X115262628Y-72519796D01*
X114691200Y-73091224D01*
X115310247Y-73091224D01*
X115929295Y-72091224D02*
X116024533Y-72091224D01*
X116119771Y-72138844D01*
X116167390Y-72186463D01*
X116215009Y-72281701D01*
X116262628Y-72472177D01*
X116262628Y-72710272D01*
X116215009Y-72900748D01*
X116167390Y-72995986D01*
X116119771Y-73043605D01*
X116024533Y-73091224D01*
X115929295Y-73091224D01*
X115834057Y-73043605D01*
X115786438Y-72995986D01*
X115738819Y-72900748D01*
X115691200Y-72710272D01*
X115691200Y-72472177D01*
X115738819Y-72281701D01*
X115786438Y-72186463D01*
X115834057Y-72138844D01*
X115929295Y-72091224D01*
%TO.C,J2*%
X85707162Y-75355164D02*
X85707162Y-76069450D01*
X85659543Y-76212307D01*
X85564305Y-76307545D01*
X85421448Y-76355164D01*
X85326210Y-76355164D01*
X86135734Y-75450403D02*
X86183353Y-75402784D01*
X86278591Y-75355164D01*
X86516686Y-75355164D01*
X86611924Y-75402784D01*
X86659543Y-75450403D01*
X86707162Y-75545641D01*
X86707162Y-75640879D01*
X86659543Y-75783736D01*
X86088115Y-76355164D01*
X86707162Y-76355164D01*
%TO.C,R2*%
X86842652Y-106257699D02*
X86509319Y-105781509D01*
X86271223Y-106257699D02*
X86271223Y-105257699D01*
X86652176Y-105257699D01*
X86747414Y-105305319D01*
X86795033Y-105352938D01*
X86842652Y-105448176D01*
X86842652Y-105591033D01*
X86795033Y-105686271D01*
X86747414Y-105733890D01*
X86652176Y-105781509D01*
X86271223Y-105781509D01*
X87223604Y-105352938D02*
X87271223Y-105305319D01*
X87366461Y-105257699D01*
X87604557Y-105257699D01*
X87699795Y-105305319D01*
X87747414Y-105352938D01*
X87795033Y-105448176D01*
X87795033Y-105543414D01*
X87747414Y-105686271D01*
X87175985Y-106257699D01*
X87795033Y-106257699D01*
%TO.C,D4*%
X97509102Y-114636614D02*
X97509102Y-113636614D01*
X97747198Y-113636614D01*
X97890055Y-113684234D01*
X97985293Y-113779472D01*
X98032912Y-113874710D01*
X98080531Y-114065186D01*
X98080531Y-114208043D01*
X98032912Y-114398519D01*
X97985293Y-114493757D01*
X97890055Y-114588995D01*
X97747198Y-114636614D01*
X97509102Y-114636614D01*
X98937674Y-113969948D02*
X98937674Y-114636614D01*
X98699578Y-113588995D02*
X98461483Y-114303281D01*
X99080531Y-114303281D01*
%TO.C,J9*%
X132381666Y-109688380D02*
X132381666Y-110402666D01*
X132334047Y-110545523D01*
X132238809Y-110640761D01*
X132095952Y-110688380D01*
X132000714Y-110688380D01*
X132905476Y-110688380D02*
X133095952Y-110688380D01*
X133191190Y-110640761D01*
X133238809Y-110593142D01*
X133334047Y-110450285D01*
X133381666Y-110259809D01*
X133381666Y-109878857D01*
X133334047Y-109783619D01*
X133286428Y-109736000D01*
X133191190Y-109688380D01*
X133000714Y-109688380D01*
X132905476Y-109736000D01*
X132857857Y-109783619D01*
X132810238Y-109878857D01*
X132810238Y-110116952D01*
X132857857Y-110212190D01*
X132905476Y-110259809D01*
X133000714Y-110307428D01*
X133191190Y-110307428D01*
X133286428Y-110259809D01*
X133334047Y-110212190D01*
X133381666Y-110116952D01*
%TO.C,R16*%
X99960119Y-111733449D02*
X99626786Y-111257259D01*
X99388691Y-111733449D02*
X99388691Y-110733449D01*
X99769643Y-110733449D01*
X99864881Y-110781069D01*
X99912500Y-110828688D01*
X99960119Y-110923926D01*
X99960119Y-111066783D01*
X99912500Y-111162021D01*
X99864881Y-111209640D01*
X99769643Y-111257259D01*
X99388691Y-111257259D01*
X100912500Y-111733449D02*
X100341072Y-111733449D01*
X100626786Y-111733449D02*
X100626786Y-110733449D01*
X100531548Y-110876307D01*
X100436310Y-110971545D01*
X100341072Y-111019164D01*
X101769643Y-110733449D02*
X101579167Y-110733449D01*
X101483929Y-110781069D01*
X101436310Y-110828688D01*
X101341072Y-110971545D01*
X101293453Y-111162021D01*
X101293453Y-111542973D01*
X101341072Y-111638211D01*
X101388691Y-111685830D01*
X101483929Y-111733449D01*
X101674405Y-111733449D01*
X101769643Y-111685830D01*
X101817262Y-111638211D01*
X101864881Y-111542973D01*
X101864881Y-111304878D01*
X101817262Y-111209640D01*
X101769643Y-111162021D01*
X101674405Y-111114402D01*
X101483929Y-111114402D01*
X101388691Y-111162021D01*
X101341072Y-111209640D01*
X101293453Y-111304878D01*
%TO.C,C8*%
X108556187Y-112236724D02*
X108508568Y-112284343D01*
X108365711Y-112331962D01*
X108270473Y-112331962D01*
X108127615Y-112284343D01*
X108032377Y-112189105D01*
X107984758Y-112093867D01*
X107937139Y-111903391D01*
X107937139Y-111760534D01*
X107984758Y-111570058D01*
X108032377Y-111474820D01*
X108127615Y-111379582D01*
X108270473Y-111331962D01*
X108365711Y-111331962D01*
X108508568Y-111379582D01*
X108556187Y-111427201D01*
X109127615Y-111760534D02*
X109032377Y-111712915D01*
X108984758Y-111665296D01*
X108937139Y-111570058D01*
X108937139Y-111522439D01*
X108984758Y-111427201D01*
X109032377Y-111379582D01*
X109127615Y-111331962D01*
X109318092Y-111331962D01*
X109413330Y-111379582D01*
X109460949Y-111427201D01*
X109508568Y-111522439D01*
X109508568Y-111570058D01*
X109460949Y-111665296D01*
X109413330Y-111712915D01*
X109318092Y-111760534D01*
X109127615Y-111760534D01*
X109032377Y-111808153D01*
X108984758Y-111855772D01*
X108937139Y-111951010D01*
X108937139Y-112141486D01*
X108984758Y-112236724D01*
X109032377Y-112284343D01*
X109127615Y-112331962D01*
X109318092Y-112331962D01*
X109413330Y-112284343D01*
X109460949Y-112236724D01*
X109508568Y-112141486D01*
X109508568Y-111951010D01*
X109460949Y-111855772D01*
X109413330Y-111808153D01*
X109318092Y-111760534D01*
%TO.C,U1*%
X103321193Y-92559527D02*
X103321193Y-93369051D01*
X103368812Y-93464289D01*
X103416431Y-93511908D01*
X103511669Y-93559527D01*
X103702145Y-93559527D01*
X103797383Y-93511908D01*
X103845002Y-93464289D01*
X103892621Y-93369051D01*
X103892621Y-92559527D01*
X104892621Y-93559527D02*
X104321193Y-93559527D01*
X104606907Y-93559527D02*
X104606907Y-92559527D01*
X104511669Y-92702385D01*
X104416431Y-92797623D01*
X104321193Y-92845242D01*
%TO.C,R6*%
X86841364Y-114890341D02*
X86508031Y-114414151D01*
X86269935Y-114890341D02*
X86269935Y-113890341D01*
X86650888Y-113890341D01*
X86746126Y-113937961D01*
X86793745Y-113985580D01*
X86841364Y-114080818D01*
X86841364Y-114223675D01*
X86793745Y-114318913D01*
X86746126Y-114366532D01*
X86650888Y-114414151D01*
X86269935Y-114414151D01*
X87698507Y-113890341D02*
X87508031Y-113890341D01*
X87412792Y-113937961D01*
X87365173Y-113985580D01*
X87269935Y-114128437D01*
X87222316Y-114318913D01*
X87222316Y-114699865D01*
X87269935Y-114795103D01*
X87317554Y-114842722D01*
X87412792Y-114890341D01*
X87603269Y-114890341D01*
X87698507Y-114842722D01*
X87746126Y-114795103D01*
X87793745Y-114699865D01*
X87793745Y-114461770D01*
X87746126Y-114366532D01*
X87698507Y-114318913D01*
X87603269Y-114271294D01*
X87412792Y-114271294D01*
X87317554Y-114318913D01*
X87269935Y-114366532D01*
X87222316Y-114461770D01*
%TO.C,D2*%
X115240148Y-142824915D02*
X115240148Y-141824915D01*
X115478244Y-141824915D01*
X115621101Y-141872535D01*
X115716339Y-141967773D01*
X115763958Y-142063011D01*
X115811577Y-142253487D01*
X115811577Y-142396344D01*
X115763958Y-142586820D01*
X115716339Y-142682058D01*
X115621101Y-142777296D01*
X115478244Y-142824915D01*
X115240148Y-142824915D01*
X116192529Y-141920154D02*
X116240148Y-141872535D01*
X116335386Y-141824915D01*
X116573482Y-141824915D01*
X116668720Y-141872535D01*
X116716339Y-141920154D01*
X116763958Y-142015392D01*
X116763958Y-142110630D01*
X116716339Y-142253487D01*
X116144910Y-142824915D01*
X116763958Y-142824915D01*
%TO.C,R18*%
X112414006Y-67811877D02*
X112080673Y-67335687D01*
X111842578Y-67811877D02*
X111842578Y-66811877D01*
X112223530Y-66811877D01*
X112318768Y-66859497D01*
X112366387Y-66907116D01*
X112414006Y-67002354D01*
X112414006Y-67145211D01*
X112366387Y-67240449D01*
X112318768Y-67288068D01*
X112223530Y-67335687D01*
X111842578Y-67335687D01*
X113366387Y-67811877D02*
X112794959Y-67811877D01*
X113080673Y-67811877D02*
X113080673Y-66811877D01*
X112985435Y-66954735D01*
X112890197Y-67049973D01*
X112794959Y-67097592D01*
X113937816Y-67240449D02*
X113842578Y-67192830D01*
X113794959Y-67145211D01*
X113747340Y-67049973D01*
X113747340Y-67002354D01*
X113794959Y-66907116D01*
X113842578Y-66859497D01*
X113937816Y-66811877D01*
X114128292Y-66811877D01*
X114223530Y-66859497D01*
X114271149Y-66907116D01*
X114318768Y-67002354D01*
X114318768Y-67049973D01*
X114271149Y-67145211D01*
X114223530Y-67192830D01*
X114128292Y-67240449D01*
X113937816Y-67240449D01*
X113842578Y-67288068D01*
X113794959Y-67335687D01*
X113747340Y-67430925D01*
X113747340Y-67621401D01*
X113794959Y-67716639D01*
X113842578Y-67764258D01*
X113937816Y-67811877D01*
X114128292Y-67811877D01*
X114223530Y-67764258D01*
X114271149Y-67716639D01*
X114318768Y-67621401D01*
X114318768Y-67430925D01*
X114271149Y-67335687D01*
X114223530Y-67288068D01*
X114128292Y-67240449D01*
%TO.C,C1*%
X95083333Y-94337142D02*
X95035714Y-94384761D01*
X94892857Y-94432380D01*
X94797619Y-94432380D01*
X94654761Y-94384761D01*
X94559523Y-94289523D01*
X94511904Y-94194285D01*
X94464285Y-94003809D01*
X94464285Y-93860952D01*
X94511904Y-93670476D01*
X94559523Y-93575238D01*
X94654761Y-93480000D01*
X94797619Y-93432380D01*
X94892857Y-93432380D01*
X95035714Y-93480000D01*
X95083333Y-93527619D01*
X96035714Y-94432380D02*
X95464285Y-94432380D01*
X95750000Y-94432380D02*
X95750000Y-93432380D01*
X95654761Y-93575238D01*
X95559523Y-93670476D01*
X95464285Y-93718095D01*
%TO.C,D1*%
X106449904Y-80843380D02*
X106449904Y-79843380D01*
X106688000Y-79843380D01*
X106830857Y-79891000D01*
X106926095Y-79986238D01*
X106973714Y-80081476D01*
X107021333Y-80271952D01*
X107021333Y-80414809D01*
X106973714Y-80605285D01*
X106926095Y-80700523D01*
X106830857Y-80795761D01*
X106688000Y-80843380D01*
X106449904Y-80843380D01*
X107973714Y-80843380D02*
X107402285Y-80843380D01*
X107688000Y-80843380D02*
X107688000Y-79843380D01*
X107592761Y-79986238D01*
X107497523Y-80081476D01*
X107402285Y-80129095D01*
%TO.C,R5*%
X86808820Y-92510722D02*
X86475487Y-92034532D01*
X86237391Y-92510722D02*
X86237391Y-91510722D01*
X86618344Y-91510722D01*
X86713582Y-91558342D01*
X86761201Y-91605961D01*
X86808820Y-91701199D01*
X86808820Y-91844056D01*
X86761201Y-91939294D01*
X86713582Y-91986913D01*
X86618344Y-92034532D01*
X86237391Y-92034532D01*
X87713582Y-91510722D02*
X87237391Y-91510722D01*
X87189772Y-91986913D01*
X87237391Y-91939294D01*
X87332629Y-91891675D01*
X87570725Y-91891675D01*
X87665963Y-91939294D01*
X87713582Y-91986913D01*
X87761201Y-92082151D01*
X87761201Y-92320246D01*
X87713582Y-92415484D01*
X87665963Y-92463103D01*
X87570725Y-92510722D01*
X87332629Y-92510722D01*
X87237391Y-92463103D01*
X87189772Y-92415484D01*
%TO.C,C6*%
X98289438Y-80435376D02*
X98241819Y-80482995D01*
X98098962Y-80530614D01*
X98003724Y-80530614D01*
X97860866Y-80482995D01*
X97765628Y-80387757D01*
X97718009Y-80292519D01*
X97670390Y-80102043D01*
X97670390Y-79959186D01*
X97718009Y-79768710D01*
X97765628Y-79673472D01*
X97860866Y-79578234D01*
X98003724Y-79530614D01*
X98098962Y-79530614D01*
X98241819Y-79578234D01*
X98289438Y-79625853D01*
X99146581Y-79530614D02*
X98956105Y-79530614D01*
X98860866Y-79578234D01*
X98813247Y-79625853D01*
X98718009Y-79768710D01*
X98670390Y-79959186D01*
X98670390Y-80340138D01*
X98718009Y-80435376D01*
X98765628Y-80482995D01*
X98860866Y-80530614D01*
X99051343Y-80530614D01*
X99146581Y-80482995D01*
X99194200Y-80435376D01*
X99241819Y-80340138D01*
X99241819Y-80102043D01*
X99194200Y-80006805D01*
X99146581Y-79959186D01*
X99051343Y-79911567D01*
X98860866Y-79911567D01*
X98765628Y-79959186D01*
X98718009Y-80006805D01*
X98670390Y-80102043D01*
D12*
%TO.C,U2*%
X96020000Y-65245000D02*
X97020000Y-65245000D01*
X114260000Y-39500000D02*
X114260000Y-45920000D01*
X96020000Y-64465000D02*
X96020000Y-65245000D01*
X114260000Y-64465000D02*
X114260000Y-65245000D01*
X96020000Y-39500000D02*
X114260000Y-39500000D01*
X114260000Y-65245000D02*
X113260000Y-65245000D01*
X96020000Y-45920000D02*
X95640000Y-45920000D01*
X96020000Y-39500000D02*
X96020000Y-45920000D01*
%TO.C,SW2*%
X77435000Y-110052000D02*
X77435000Y-112452000D01*
X83855000Y-112452000D02*
X83855000Y-110052000D01*
X77435000Y-114462000D02*
X83855000Y-114462000D01*
X77435000Y-108042000D02*
X77435000Y-108452000D01*
X83855000Y-108452000D02*
X83855000Y-108042000D01*
X83855000Y-114462000D02*
X83855000Y-114182000D01*
X77435000Y-114052000D02*
X77435000Y-114462000D01*
X83855000Y-108042000D02*
X77435000Y-108042000D01*
%TO.C,L1*%
X109064848Y-97992000D02*
X101064848Y-97992000D01*
X109064848Y-104192000D02*
X101064848Y-104192000D01*
%TO.C,J3*%
X78167500Y-60665000D02*
X78087500Y-60345000D01*
X82587500Y-64235000D02*
X82587500Y-65455000D01*
X81587500Y-63165000D02*
X78167500Y-63165000D01*
X84787500Y-64235000D02*
X84787500Y-65455000D01*
X81587500Y-60345000D02*
X81587500Y-60665000D01*
X77587500Y-58955000D02*
X82587500Y-58955000D01*
X77587500Y-64235000D02*
X82587500Y-64235000D01*
X82587500Y-58955000D02*
X82587500Y-57735000D01*
X84787500Y-65455000D02*
X76367500Y-65455000D01*
X76367500Y-65455000D02*
X76367500Y-57735000D01*
X77587500Y-57735000D02*
X77587500Y-58955000D01*
X81587500Y-60025000D02*
X81587500Y-60345000D01*
X85277500Y-63145000D02*
X85277500Y-62545000D01*
X84677500Y-62845000D02*
X85277500Y-63145000D01*
X82587500Y-64235000D02*
X84787500Y-64235000D01*
X84787500Y-57735000D02*
X84787500Y-58955000D01*
X85277500Y-62545000D02*
X84677500Y-62845000D01*
X82587500Y-61675000D02*
X82587500Y-61515000D01*
X84787500Y-58955000D02*
X82587500Y-58955000D01*
X77587500Y-65455000D02*
X77587500Y-64235000D01*
X78167500Y-62525000D02*
X81587500Y-62525000D01*
X81587500Y-64235000D02*
X81587500Y-58955000D01*
X78087500Y-62845000D02*
X78167500Y-62525000D01*
X78167500Y-63165000D02*
X78087500Y-62845000D01*
X81587500Y-62845000D02*
X81587500Y-63165000D01*
X81587500Y-60665000D02*
X78167500Y-60665000D01*
X78087500Y-60345000D02*
X78167500Y-60025000D01*
X81587500Y-62525000D02*
X81587500Y-62845000D01*
X78167500Y-60025000D02*
X81587500Y-60025000D01*
X76367500Y-57735000D02*
X84787500Y-57735000D01*
%TO.C,Q3*%
X116280000Y-64720000D02*
X116280000Y-66395000D01*
X116280000Y-64720000D02*
X116280000Y-64070000D01*
X119400000Y-64720000D02*
X119400000Y-64070000D01*
X119400000Y-64720000D02*
X119400000Y-65370000D01*
%TO.C,D6*%
X96617000Y-94297115D02*
X96617000Y-101457115D01*
X100487000Y-94297115D02*
X96617000Y-94297115D01*
X100487000Y-101457115D02*
X100487000Y-94297115D01*
D13*
%TO.C,J10*%
X133538000Y-87800000D02*
X133538000Y-86700000D01*
X133288000Y-86000000D02*
X130508000Y-86000000D01*
X133288000Y-87800000D02*
X133538000Y-87800000D01*
X133288000Y-101050000D02*
X133288000Y-87800000D01*
X133538000Y-86700000D02*
X133288000Y-86700000D01*
X133288000Y-101050000D02*
X130508000Y-101050000D01*
X127308000Y-86000000D02*
X121508000Y-86000000D01*
X127308000Y-101050000D02*
X121508000Y-101050000D01*
X133288000Y-86700000D02*
X133288000Y-86000000D01*
X118538000Y-90800000D02*
X118538000Y-86300000D01*
D14*
X116928000Y-90800000D02*
G75*
G03*
X116928000Y-90800000I-120000J0D01*
G01*
D12*
%TO.C,R12*%
X112466156Y-139507315D02*
X112466156Y-138053187D01*
X114286156Y-139507315D02*
X114286156Y-138053187D01*
%TO.C,R17*%
X105511494Y-108635032D02*
X104057366Y-108635032D01*
X105511494Y-110455032D02*
X104057366Y-110455032D01*
%TO.C,J5*%
X81587500Y-72055000D02*
X78167500Y-72055000D01*
X78167500Y-69555000D02*
X78087500Y-69235000D01*
X77587500Y-74345000D02*
X77587500Y-73125000D01*
X78167500Y-68915000D02*
X81587500Y-68915000D01*
X78087500Y-71735000D02*
X78167500Y-71415000D01*
X81587500Y-73125000D02*
X81587500Y-67845000D01*
X78087500Y-69235000D02*
X78167500Y-68915000D01*
X85277500Y-71435000D02*
X84677500Y-71735000D01*
X82587500Y-73125000D02*
X84787500Y-73125000D01*
X77587500Y-66625000D02*
X77587500Y-67845000D01*
X84787500Y-74345000D02*
X76367500Y-74345000D01*
X85277500Y-72035000D02*
X85277500Y-71435000D01*
X82587500Y-73125000D02*
X82587500Y-74345000D01*
X78167500Y-72055000D02*
X78087500Y-71735000D01*
X81587500Y-71735000D02*
X81587500Y-72055000D01*
X81587500Y-69235000D02*
X81587500Y-69555000D01*
X77587500Y-67845000D02*
X82587500Y-67845000D01*
X82587500Y-67845000D02*
X82587500Y-66625000D01*
X84677500Y-71735000D02*
X85277500Y-72035000D01*
X84787500Y-67845000D02*
X82587500Y-67845000D01*
X76367500Y-66625000D02*
X84787500Y-66625000D01*
X84787500Y-66625000D02*
X84787500Y-67845000D01*
X81587500Y-71415000D02*
X81587500Y-71735000D01*
X81587500Y-69555000D02*
X78167500Y-69555000D01*
X84787500Y-73125000D02*
X84787500Y-74345000D01*
X81587500Y-68915000D02*
X81587500Y-69235000D01*
X77587500Y-73125000D02*
X82587500Y-73125000D01*
X76367500Y-74345000D02*
X76367500Y-66625000D01*
X82587500Y-70565000D02*
X82587500Y-70405000D01*
X78167500Y-71415000D02*
X81587500Y-71415000D01*
%TO.C,R13*%
X120171204Y-139586822D02*
X120171204Y-138132694D01*
X121991204Y-139586822D02*
X121991204Y-138132694D01*
%TO.C,D5*%
X128159585Y-129862543D02*
X120999585Y-129862543D01*
X128159585Y-133732543D02*
X128159585Y-129862543D01*
X120999585Y-133732543D02*
X128159585Y-133732543D01*
%TO.C,C9*%
X95906000Y-96316748D02*
X95906000Y-97739252D01*
X94086000Y-96316748D02*
X94086000Y-97739252D01*
%TO.C,R4*%
X86085000Y-61502936D02*
X86085000Y-62957064D01*
X87905000Y-61502936D02*
X87905000Y-62957064D01*
%TO.C,C2*%
X100105259Y-84180000D02*
X98682755Y-84180000D01*
X100105259Y-86000000D02*
X98682755Y-86000000D01*
%TO.C,C5*%
X93359452Y-47986897D02*
X91936948Y-47986897D01*
X93359452Y-46166897D02*
X91936948Y-46166897D01*
%TO.C,R21*%
X121925000Y-61637064D02*
X121925000Y-60182936D01*
X120105000Y-61637064D02*
X120105000Y-60182936D01*
%TO.C,R1*%
X87905000Y-52612936D02*
X87905000Y-54067064D01*
X86085000Y-52612936D02*
X86085000Y-54067064D01*
%TO.C,J1*%
X82595000Y-55365000D02*
X84795000Y-55365000D01*
X78175000Y-51795000D02*
X78095000Y-51475000D01*
X78095000Y-53975000D02*
X78175000Y-53655000D01*
X85285000Y-54275000D02*
X85285000Y-53675000D01*
X77595000Y-48865000D02*
X77595000Y-50085000D01*
X76375000Y-56585000D02*
X76375000Y-48865000D01*
X81595000Y-51475000D02*
X81595000Y-51795000D01*
X81595000Y-51795000D02*
X78175000Y-51795000D01*
X84795000Y-48865000D02*
X84795000Y-50085000D01*
X84685000Y-53975000D02*
X85285000Y-54275000D01*
X77595000Y-55365000D02*
X82595000Y-55365000D01*
X85285000Y-53675000D02*
X84685000Y-53975000D01*
X82595000Y-50085000D02*
X82595000Y-48865000D01*
X77595000Y-50085000D02*
X82595000Y-50085000D01*
X78095000Y-51475000D02*
X78175000Y-51155000D01*
X76375000Y-48865000D02*
X84795000Y-48865000D01*
X81595000Y-53975000D02*
X81595000Y-54295000D01*
X84795000Y-50085000D02*
X82595000Y-50085000D01*
X81595000Y-55365000D02*
X81595000Y-50085000D01*
X78175000Y-51155000D02*
X81595000Y-51155000D01*
X81595000Y-54295000D02*
X78175000Y-54295000D01*
X78175000Y-53655000D02*
X81595000Y-53655000D01*
X78175000Y-54295000D02*
X78095000Y-53975000D01*
X84795000Y-56585000D02*
X76375000Y-56585000D01*
X82595000Y-52805000D02*
X82595000Y-52645000D01*
X84795000Y-55365000D02*
X84795000Y-56585000D01*
X82595000Y-55365000D02*
X82595000Y-56585000D01*
X77595000Y-56585000D02*
X77595000Y-55365000D01*
X81595000Y-51155000D02*
X81595000Y-51475000D01*
X81595000Y-53655000D02*
X81595000Y-53975000D01*
%TO.C,C4*%
X101875000Y-124282252D02*
X101875000Y-122859748D01*
X100055000Y-124282252D02*
X100055000Y-122859748D01*
%TO.C,R3*%
X87905000Y-78647936D02*
X87905000Y-80102064D01*
X86085000Y-78647936D02*
X86085000Y-80102064D01*
%TO.C,J4*%
X78087500Y-89515000D02*
X78167500Y-89195000D01*
X78167500Y-87335000D02*
X78087500Y-87015000D01*
X76367500Y-84405000D02*
X84787500Y-84405000D01*
X82587500Y-90905000D02*
X82587500Y-92125000D01*
X77587500Y-90905000D02*
X82587500Y-90905000D01*
X82587500Y-88345000D02*
X82587500Y-88185000D01*
X78167500Y-89195000D02*
X81587500Y-89195000D01*
X78087500Y-87015000D02*
X78167500Y-86695000D01*
X77587500Y-85625000D02*
X82587500Y-85625000D01*
X76367500Y-92125000D02*
X76367500Y-84405000D01*
X84787500Y-90905000D02*
X84787500Y-92125000D01*
X84787500Y-85625000D02*
X82587500Y-85625000D01*
X81587500Y-89515000D02*
X81587500Y-89835000D01*
X81587500Y-87335000D02*
X78167500Y-87335000D01*
X82587500Y-90905000D02*
X84787500Y-90905000D01*
X84787500Y-84405000D02*
X84787500Y-85625000D01*
X82587500Y-85625000D02*
X82587500Y-84405000D01*
X84677500Y-89515000D02*
X85277500Y-89815000D01*
X81587500Y-87015000D02*
X81587500Y-87335000D01*
X81587500Y-90905000D02*
X81587500Y-85625000D01*
X81587500Y-86695000D02*
X81587500Y-87015000D01*
X85277500Y-89815000D02*
X85277500Y-89215000D01*
X78167500Y-89835000D02*
X78087500Y-89515000D01*
X84787500Y-92125000D02*
X76367500Y-92125000D01*
X77587500Y-92125000D02*
X77587500Y-90905000D01*
X77587500Y-84405000D02*
X77587500Y-85625000D01*
X85277500Y-89215000D02*
X84677500Y-89515000D01*
X81587500Y-89835000D02*
X78167500Y-89835000D01*
X81587500Y-89195000D02*
X81587500Y-89515000D01*
X78167500Y-86695000D02*
X81587500Y-86695000D01*
%TO.C,J6*%
X131050000Y-62155000D02*
X129840000Y-62155000D01*
X129030000Y-50935000D02*
X127530000Y-50935000D01*
X131050000Y-50435000D02*
X131050000Y-62155000D01*
X127530000Y-62655000D02*
X131550000Y-62655000D01*
X129840000Y-49935000D02*
X129840000Y-50435000D01*
X129840000Y-50435000D02*
X131050000Y-50435000D01*
X129030000Y-49935000D02*
X129030000Y-50935000D01*
X129840000Y-62155000D02*
X129840000Y-62655000D01*
X127530000Y-49935000D02*
X127530000Y-62655000D01*
X129730000Y-49635000D02*
X127230000Y-49635000D01*
X127230000Y-49635000D02*
X127230000Y-52135000D01*
X129030000Y-62655000D02*
X129030000Y-61655000D01*
X129030000Y-61655000D02*
X127530000Y-61655000D01*
X131550000Y-62655000D02*
X131550000Y-49935000D01*
X131550000Y-49935000D02*
X127530000Y-49935000D01*
%TO.C,R7*%
X86085000Y-70392936D02*
X86085000Y-71847064D01*
X87905000Y-70392936D02*
X87905000Y-71847064D01*
%TO.C,Q2*%
X108950000Y-70145000D02*
X108300000Y-70145000D01*
X108950000Y-73265000D02*
X110625000Y-73265000D01*
X108950000Y-73265000D02*
X108300000Y-73265000D01*
X108950000Y-70145000D02*
X109600000Y-70145000D01*
%TO.C,D3*%
X117321156Y-137235424D02*
X117321156Y-141295424D01*
X117321156Y-141295424D02*
X119591156Y-141295424D01*
X119591156Y-141295424D02*
X119591156Y-137235424D01*
%TO.C,Q1*%
X122082828Y-129626219D02*
X121432828Y-129626219D01*
X122082828Y-129626219D02*
X122732828Y-129626219D01*
X122082828Y-126506219D02*
X122732828Y-126506219D01*
X122082828Y-126506219D02*
X120407828Y-126506219D01*
%TO.C,SW5*%
X95850000Y-66640000D02*
X95850000Y-67050000D01*
X102270000Y-71050000D02*
X102270000Y-68650000D01*
X95850000Y-68650000D02*
X95850000Y-71050000D01*
X102270000Y-73060000D02*
X102270000Y-72780000D01*
X95850000Y-72650000D02*
X95850000Y-73060000D01*
X102270000Y-67050000D02*
X102270000Y-66640000D01*
X102270000Y-66640000D02*
X95850000Y-66640000D01*
X95850000Y-73060000D02*
X102270000Y-73060000D01*
%TO.C,R14*%
X107222936Y-113390000D02*
X108677064Y-113390000D01*
X107222936Y-115210000D02*
X108677064Y-115210000D01*
%TO.C,R8*%
X86085000Y-119160936D02*
X86085000Y-120615064D01*
X87905000Y-119160936D02*
X87905000Y-120615064D01*
%TO.C,SW1*%
X77435000Y-105840000D02*
X83855000Y-105840000D01*
X83855000Y-103830000D02*
X83855000Y-101430000D01*
X83855000Y-105840000D02*
X83855000Y-105560000D01*
X83855000Y-99420000D02*
X77435000Y-99420000D01*
X77435000Y-101430000D02*
X77435000Y-103830000D01*
X77435000Y-99420000D02*
X77435000Y-99830000D01*
X83855000Y-99830000D02*
X83855000Y-99420000D01*
X77435000Y-105430000D02*
X77435000Y-105840000D01*
%TO.C,JP1*%
X110538856Y-121329276D02*
X110538856Y-120729276D01*
X111238856Y-120029276D02*
X112638856Y-120029276D01*
X112638856Y-122029276D02*
X111238856Y-122029276D01*
X113338856Y-120729276D02*
X113338856Y-121329276D01*
X111238856Y-120029276D02*
G75*
G03*
X110538856Y-120729276I0J-700000D01*
G01*
X112638856Y-122029276D02*
G75*
G03*
X113338856Y-121329276I1J699999D01*
G01*
X110538856Y-121329276D02*
G75*
G03*
X111238856Y-122029276I700000J0D01*
G01*
X113338856Y-120729276D02*
G75*
G03*
X112638856Y-120029276I-699999J1D01*
G01*
%TO.C,R9*%
X105558000Y-77943064D02*
X105558000Y-76488936D01*
X103738000Y-77943064D02*
X103738000Y-76488936D01*
%TO.C,C3*%
X102946252Y-133075000D02*
X101523748Y-133075000D01*
X102946252Y-134895000D02*
X101523748Y-134895000D01*
%TO.C,R11*%
X109495000Y-123282064D02*
X109495000Y-121827936D01*
X107675000Y-123282064D02*
X107675000Y-121827936D01*
%TO.C,SW3*%
X83855000Y-117088000D02*
X83855000Y-116678000D01*
X77435000Y-122688000D02*
X77435000Y-123098000D01*
X77435000Y-118688000D02*
X77435000Y-121088000D01*
X83855000Y-121088000D02*
X83855000Y-118688000D01*
X83855000Y-123098000D02*
X83855000Y-122818000D01*
X77435000Y-116678000D02*
X77435000Y-117088000D01*
X83855000Y-116678000D02*
X77435000Y-116678000D01*
X77435000Y-123098000D02*
X83855000Y-123098000D01*
%TO.C,U4*%
X104812869Y-105047189D02*
X105612869Y-105047189D01*
X104812869Y-105047189D02*
X103012869Y-105047189D01*
X104812869Y-108167189D02*
X104012869Y-108167189D01*
X104812869Y-108167189D02*
X105612869Y-108167189D01*
%TO.C,C7*%
X92130149Y-50495007D02*
X92130149Y-51917511D01*
X93950149Y-50495007D02*
X93950149Y-51917511D01*
%TO.C,U3*%
X104775000Y-120360000D02*
X105575000Y-120360000D01*
X104775000Y-120360000D02*
X102975000Y-120360000D01*
X104775000Y-123480000D02*
X105575000Y-123480000D01*
X104775000Y-123480000D02*
X103975000Y-123480000D01*
%TO.C,SW4*%
X134903829Y-129035000D02*
X135113829Y-128835000D01*
X132603829Y-124185000D02*
X131813829Y-124185000D01*
X134903829Y-127735000D02*
X133613829Y-127735000D01*
X135113829Y-128835000D02*
X135113829Y-127935000D01*
X134903829Y-127735000D02*
X135113829Y-127935000D01*
X130763829Y-129235000D02*
X130763829Y-127535000D01*
X130763829Y-126235000D02*
X130763829Y-126035000D01*
X131813829Y-131085000D02*
X132603829Y-131085000D01*
X133613829Y-129035000D02*
X134903829Y-129035000D01*
X133613829Y-130485000D02*
X133613829Y-124785000D01*
%TO.C,R19*%
X118762898Y-60398169D02*
X118762898Y-58944041D01*
X116942898Y-60398169D02*
X116942898Y-58944041D01*
%TO.C,R10*%
X115816211Y-123320414D02*
X115816211Y-121866286D01*
X113996211Y-123320414D02*
X113996211Y-121866286D01*
%TO.C,J7*%
X129840000Y-82595000D02*
X129840000Y-83095000D01*
X129030000Y-82095000D02*
X127530000Y-82095000D01*
X129840000Y-65375000D02*
X129840000Y-65875000D01*
X129030000Y-83095000D02*
X129030000Y-82095000D01*
X127530000Y-83095000D02*
X131550000Y-83095000D01*
X129730000Y-65075000D02*
X127230000Y-65075000D01*
X129030000Y-66375000D02*
X127530000Y-66375000D01*
X131050000Y-65875000D02*
X131050000Y-82595000D01*
X127530000Y-65375000D02*
X127530000Y-83095000D01*
X131050000Y-82595000D02*
X129840000Y-82595000D01*
X129840000Y-65875000D02*
X131050000Y-65875000D01*
X129030000Y-65375000D02*
X129030000Y-66375000D01*
X131550000Y-83095000D02*
X131550000Y-65375000D01*
X131550000Y-65375000D02*
X127530000Y-65375000D01*
X127230000Y-65075000D02*
X127230000Y-67575000D01*
%TO.C,R15*%
X94975000Y-76107936D02*
X94975000Y-77562064D01*
X96795000Y-76107936D02*
X96795000Y-77562064D01*
%TO.C,R20*%
X114258876Y-69831007D02*
X115713004Y-69831007D01*
X114258876Y-71651007D02*
X115713004Y-71651007D01*
%TO.C,J2*%
X77587500Y-75515000D02*
X77587500Y-76735000D01*
X76367500Y-75515000D02*
X84787500Y-75515000D01*
X77587500Y-82015000D02*
X82587500Y-82015000D01*
X78167500Y-80305000D02*
X81587500Y-80305000D01*
X81587500Y-82015000D02*
X81587500Y-76735000D01*
X78167500Y-80945000D02*
X78087500Y-80625000D01*
X78087500Y-80625000D02*
X78167500Y-80305000D01*
X84787500Y-76735000D02*
X82587500Y-76735000D01*
X82587500Y-82015000D02*
X84787500Y-82015000D01*
X82587500Y-76735000D02*
X82587500Y-75515000D01*
X84787500Y-75515000D02*
X84787500Y-76735000D01*
X78167500Y-78445000D02*
X78087500Y-78125000D01*
X84787500Y-83235000D02*
X76367500Y-83235000D01*
X85277500Y-80925000D02*
X85277500Y-80325000D01*
X81587500Y-77805000D02*
X81587500Y-78125000D01*
X82587500Y-82015000D02*
X82587500Y-83235000D01*
X81587500Y-80305000D02*
X81587500Y-80625000D01*
X77587500Y-83235000D02*
X77587500Y-82015000D01*
X78167500Y-77805000D02*
X81587500Y-77805000D01*
X81587500Y-80625000D02*
X81587500Y-80945000D01*
X77587500Y-76735000D02*
X82587500Y-76735000D01*
X81587500Y-78445000D02*
X78167500Y-78445000D01*
X78087500Y-78125000D02*
X78167500Y-77805000D01*
X81587500Y-80945000D02*
X78167500Y-80945000D01*
X84677500Y-80625000D02*
X85277500Y-80925000D01*
X76367500Y-83235000D02*
X76367500Y-75515000D01*
X82587500Y-79455000D02*
X82587500Y-79295000D01*
X81587500Y-78125000D02*
X81587500Y-78445000D01*
X84787500Y-82015000D02*
X84787500Y-83235000D01*
X85277500Y-80325000D02*
X84677500Y-80625000D01*
%TO.C,R2*%
X87905000Y-101902936D02*
X87905000Y-103357064D01*
X86085000Y-101902936D02*
X86085000Y-103357064D01*
%TO.C,D4*%
X104307757Y-115407592D02*
X104307757Y-113137592D01*
X104307757Y-113137592D02*
X100247757Y-113137592D01*
X100247757Y-115407592D02*
X104307757Y-115407592D01*
%TO.C,J9*%
X124762500Y-117956000D02*
X126962500Y-117956000D01*
X124872500Y-114066000D02*
X124272500Y-113766000D01*
X127962500Y-113746000D02*
X131382500Y-113746000D01*
X126962500Y-115236000D02*
X126962500Y-115396000D01*
X131962500Y-117956000D02*
X126962500Y-117956000D01*
X131382500Y-116246000D02*
X131462500Y-116566000D01*
X127962500Y-116246000D02*
X131382500Y-116246000D01*
X126962500Y-117956000D02*
X126962500Y-119176000D01*
X124272500Y-113766000D02*
X124272500Y-114366000D01*
X133182500Y-111456000D02*
X133182500Y-119176000D01*
X126962500Y-112676000D02*
X124762500Y-112676000D01*
X126962500Y-112676000D02*
X126962500Y-111456000D01*
X127962500Y-114066000D02*
X127962500Y-113746000D01*
X131962500Y-112676000D02*
X126962500Y-112676000D01*
X131962500Y-111456000D02*
X131962500Y-112676000D01*
X127962500Y-112676000D02*
X127962500Y-117956000D01*
X133182500Y-119176000D02*
X124762500Y-119176000D01*
X124762500Y-111456000D02*
X133182500Y-111456000D01*
X127962500Y-114386000D02*
X127962500Y-114066000D01*
X127962500Y-116566000D02*
X127962500Y-116246000D01*
X131462500Y-116566000D02*
X131382500Y-116886000D01*
X131462500Y-114066000D02*
X131382500Y-114386000D01*
X131382500Y-116886000D02*
X127962500Y-116886000D01*
X131382500Y-113746000D02*
X131462500Y-114066000D01*
X124762500Y-119176000D02*
X124762500Y-117956000D01*
X131382500Y-114386000D02*
X127962500Y-114386000D01*
X124762500Y-112676000D02*
X124762500Y-111456000D01*
X127962500Y-116886000D02*
X127962500Y-116566000D01*
X131962500Y-119176000D02*
X131962500Y-117956000D01*
X124272500Y-114366000D02*
X124872500Y-114066000D01*
%TO.C,R16*%
X101473943Y-108733601D02*
X101473943Y-107279473D01*
X99653943Y-108733601D02*
X99653943Y-107279473D01*
%TO.C,C8*%
X109622000Y-107452221D02*
X109622000Y-108874725D01*
X107802000Y-107452221D02*
X107802000Y-108874725D01*
%TO.C,U1*%
X102875000Y-93580000D02*
X102875000Y-92320000D01*
X99115000Y-93580000D02*
X102875000Y-93580000D01*
X102875000Y-86760000D02*
X102875000Y-88020000D01*
X96865000Y-86760000D02*
X102875000Y-86760000D01*
%TO.C,R6*%
X87905000Y-110524936D02*
X87905000Y-111979064D01*
X86085000Y-110524936D02*
X86085000Y-111979064D01*
%TO.C,D2*%
X117051156Y-141295424D02*
X117051156Y-137235424D01*
X114781156Y-137235424D02*
X114781156Y-141295424D01*
X114781156Y-141295424D02*
X117051156Y-141295424D01*
%TO.C,R18*%
X108528926Y-68110319D02*
X109983054Y-68110319D01*
X108528926Y-66290319D02*
X109983054Y-66290319D01*
%TO.C,C1*%
X96160000Y-91516252D02*
X96160000Y-90093748D01*
X94340000Y-91516252D02*
X94340000Y-90093748D01*
%TO.C,D1*%
X106053000Y-79676000D02*
X108323000Y-79676000D01*
X106053000Y-75616000D02*
X106053000Y-79676000D01*
X108323000Y-79676000D02*
X108323000Y-75616000D01*
%TO.C,R5*%
X87905000Y-88172936D02*
X87905000Y-89627064D01*
X86085000Y-88172936D02*
X86085000Y-89627064D01*
%TO.C,C6*%
X97515000Y-76123748D02*
X97515000Y-77546252D01*
X99335000Y-76123748D02*
X99335000Y-77546252D01*
%TD*%
M02*
